<?xml version="1.0" standalone="no"?>
<!DOCTYPE svg PUBLIC "-//W3C//DTD SVG 1.1//EN" "http://www.w3.org/Graphics/SVG/1.1/DTD/svg11.dtd" >
<svg xmlns="http://www.w3.org/2000/svg">
<metadata></metadata>
<defs>
<font id="haboro_sansnorm_book_italic" horiz-adv-x="1146" >
<font-face units-per-em="2048" ascent="1638" descent="-410" />
<missing-glyph horiz-adv-x="509" />
<glyph horiz-adv-x="0" />
<glyph horiz-adv-x="682" />
<glyph horiz-adv-x="0" />
<glyph horiz-adv-x="0" />
<glyph unicode="&#xd;" horiz-adv-x="509" />
<glyph unicode=" "  horiz-adv-x="509" />
<glyph unicode="&#x09;" horiz-adv-x="509" />
<glyph unicode="&#xa0;" horiz-adv-x="509" />
<glyph unicode="!" horiz-adv-x="509" d="M289 297h-107l205 1284h152zM98 74q6 42 37 71t78 29q45 0 66.5 -29t15.5 -71q-8 -41 -38.5 -67.5t-76.5 -26.5q-48 0 -69 26.5t-13 67.5z" />
<glyph unicode="&#x22;" horiz-adv-x="741" d="M264 928l45 506h164l-133 -506h-76zM584 928l45 506h164l-134 -506h-75z" />
<glyph unicode="#" horiz-adv-x="1204" d="M1202 899h-209l-143 -360h207l-19 -109h-229l-170 -430h-129l170 430h-268l-170 -430h-131l170 430h-193l18 109h216l143 360h-191l19 111h213l170 426h131l-170 -426h268l170 426h129l-170 -426h187zM596 899l-143 -360h268l143 360h-268z" />
<glyph unicode="$" horiz-adv-x="1054" d="M465 -188h-115l31 174q-228 22 -352 188l114 86q39 -48 76.5 -79t105.5 -55t156 -24q131 0 225 61.5t111 162.5q10 64 -1 116t-39 87.5t-68 67t-86.5 54.5t-95.5 49.5t-95 52t-85 62t-65.5 79t-36 104t2.5 137.5q25 148 136.5 232.5t279.5 84.5h6l30 170h115l-33 -180 q171 -24 287 -150l-111 -84q-66 61 -131 91t-163 30q-109 0 -185.5 -52t-93.5 -144q-11 -65 5 -116.5t50.5 -85t82 -64.5t101.5 -54.5t107.5 -54.5t99.5 -65t79 -86t45.5 -117.5t-1.5 -159.5q-23 -151 -149 -247.5t-309 -102.5z" />
<glyph unicode="%" horiz-adv-x="1875" d="M489 -57h-133l1119 1530h135zM854 1106q-30 -164 -138 -256t-255 -92t-224 92t-47 256q28 165 137.5 257.5t256.5 92.5t222.5 -92t47.5 -258zM741 1106q21 118 -28 182t-148 64q-97 0 -169 -64t-93 -182q-21 -116 29 -181t147 -65q98 0 169.5 64.5t92.5 181.5zM1792 334 q-29 -165 -136.5 -257.5t-256.5 -92.5q-147 0 -222.5 92.5t-46.5 257.5q30 166 137.5 258t254.5 92q149 0 224.5 -92t45.5 -258zM1679 334q21 118 -28 182t-148 64q-97 0 -168 -64t-92 -182q-21 -117 28 -181.5t146 -64.5q98 0 169.5 64.5t92.5 181.5z" />
<glyph unicode="&#x26;" horiz-adv-x="1353" d="M772 1452q138 0 236 -45.5t141 -103.5l-90 -101q-117 125 -311 125q-266 0 -308 -229q-24 -138 39 -196t221 -58h664l-23 -125h-274l-115 -653q-169 -86 -432 -86q-474 0 -399 432q14 78 44 140.5t66.5 101.5t83.5 67t87 41.5t85 21.5q-109 19 -160.5 101t-29.5 207 q33 181 148 270.5t327 89.5zM545 106q156 0 289 46l98 567h-254q-186 0 -287 -73.5t-129 -227.5q-28 -158 40.5 -235t242.5 -77z" />
<glyph unicode="'" horiz-adv-x="421" d="M264 928l45 506h164l-133 -506h-76z" />
<glyph unicode="(" horiz-adv-x="638" d="M274 573q-44 -249 3 -507t176 -431l-58 -57q-166 156 -239 428.5t-21 566.5q52 293 221 565.5t389 428.5l37 -58q-190 -173 -327 -430t-181 -506z" />
<glyph unicode=")" horiz-adv-x="638" d="M422 573q44 249 -3.5 506t-176.5 430l57 58q166 -156 240 -428.5t22 -565.5q-52 -295 -221 -567.5t-391 -427.5l-35 57q189 174 326.5 432t181.5 506z" />
<glyph unicode="*" horiz-adv-x="976" d="M246 983l305 127l-258 129l76 111l219 -187l26 312h121l-84 -312l285 183l39 -107l-305 -127l260 -125l-74 -110l-223 182l-25 -309h-121l84 311l-288 -184z" />
<glyph unicode="+" horiz-adv-x="989" d="M659 1020l-59 -338h334l-19 -104h-333l-60 -338h-121l60 338h-330l19 104h329l60 338h120z" />
<glyph unicode="," horiz-adv-x="471" d="M76 76q7 42 40 69t72 27q102 0 80 -127q-16 -91 -85.5 -175t-157.5 -142l-43 51q75 53 125.5 110.5t56.5 94.5q-8 -4 -25 -4q-36 0 -54 23.5t-9 72.5z" />
<glyph unicode="-" horiz-adv-x="880" d="M760 555h-590l23 125h589z" />
<glyph unicode="." horiz-adv-x="464" d="M76 74q6 42 36.5 71t77.5 29q45 0 66.5 -29t15.5 -71q-8 -41 -38 -67.5t-76 -26.5q-48 0 -69 26.5t-13 67.5z" />
<glyph unicode="/" horiz-adv-x="1067" d="M94 -123h-135l1114 1639h135z" />
<glyph unicode="0" horiz-adv-x="1269" d="M1206 721q-38 -203 -123.5 -369t-217 -269t-283.5 -103q-103 0 -184.5 39t-132.5 108.5t-81.5 164t-31.5 205t18 232.5q37 201 122.5 363.5t217 261t285.5 98.5q103 0 184 -37.5t132 -104.5t81.5 -158.5t31.5 -200.5t-18 -230zM311 727q-17 -98 -18.5 -188t15 -171 t49.5 -140.5t90 -94.5t133 -35q75 0 143 34.5t122 94t98 140t74.5 171t47.5 187.5q16 94 18 181t-13.5 165.5t-48.5 136t-90 91.5t-134 34q-96 0 -179.5 -51t-143 -137.5t-101 -192.5t-62.5 -225z" />
<glyph unicode="1" horiz-adv-x="587" d="M236 1245l-3 96l295 111h39l-256 -1452h-125l230 1303z" />
<glyph unicode="2" horiz-adv-x="1069" d="M20 0l11 61l350 328q120 112 193.5 185.5t154.5 167t126 175t58 158.5q22 120 -42 190t-197 70q-112 0 -199 -53.5t-166 -163.5l-84 68q93 128 203 197t268 69q194 0 288 -100.5t65 -270.5q-13 -74 -50 -151.5t-83 -144.5t-123 -152t-143.5 -150.5t-170.5 -163.5 l-219 -204h651l-18 -115h-873z" />
<glyph unicode="3" horiz-adv-x="1091" d="M682 1452q207 0 296 -96.5t60 -259.5q-26 -143 -103 -227t-196 -105q41 -6 77 -21t71 -43.5t55 -70t29.5 -101t-6.5 -137.5q-35 -197 -165 -304t-325 -107q-376 0 -444 280l123 49q59 -215 315 -215q140 0 238 78.5t122 220.5q27 150 -48 231t-251 81h-65l20 114h66 q153 0 241.5 71.5t110.5 199.5q21 115 -34 181t-181 66q-200 0 -332 -176l-94 53q35 51 71.5 90t87.5 74.5t117 54.5t144 19z" />
<glyph unicode="4" horiz-adv-x="1132" d="M35 297l18 109l838 1032h125l-180 -1026h227l-21 -115h-227l-51 -297h-125l51 297h-655zM197 412h514l143 815z" />
<glyph unicode="5" horiz-adv-x="1054" d="M442 96q153 0 249.5 86.5t121.5 235.5q30 169 -53 261.5t-289 92.5h-225l160 662h655l-21 -117h-544l-107 -430h133q257 0 361.5 -126t66.5 -358q-34 -200 -165 -311.5t-343 -111.5q-162 0 -257.5 55t-157.5 166l116 65q55 -89 122 -129.5t177 -40.5z" />
<glyph unicode="6" horiz-adv-x="1153" d="M815 1335q-35 0 -68.5 -6t-75.5 -23t-80.5 -44.5t-79.5 -74.5t-75.5 -109t-66 -152t-54.5 -199q93 81 184.5 117.5t196.5 36.5q67 0 124 -14.5t105.5 -47t77.5 -84t40.5 -124.5t-5.5 -169q-36 -211 -166 -336.5t-335 -125.5q-94 0 -165 23t-124 73.5t-78.5 130.5t-29 194 t25.5 265q25 141 63.5 257t82.5 196t97.5 141t104 96.5t107 58t102.5 30t94 7.5q101 0 173.5 -24.5t112 -61.5t73.5 -94l-113 -78q-43 74 -99 107.5t-149 33.5zM666 764q-99 0 -189 -44t-186 -128q-35 -258 27.5 -377t220.5 -119q147 0 241 92.5t121 249.5 q28 161 -37.5 243.5t-197.5 82.5z" />
<glyph unicode="7" horiz-adv-x="948" d="M1081 1434l-14 -84l-807 -1352h-147l780 1311h-682l22 125h848z" />
<glyph unicode="8" horiz-adv-x="1140" d="M1063 1077q-18 -106 -80.5 -176.5t-157.5 -103.5q117 -44 169.5 -146.5t25.5 -255.5q-36 -205 -171 -310t-333 -105q-108 0 -191 27t-139 80.5t-76.5 138t-0.5 194.5q26 145 115.5 242.5t224.5 138.5q-84 39 -122 118.5t-16 198.5q27 158 142 246t280 88 q184 0 273.5 -97.5t56.5 -277.5zM242 401q-26 -146 48 -226.5t224 -80.5q149 0 250 79t127 226q28 153 -44 243.5t-218 90.5q-149 0 -255 -91t-132 -241zM438 1106q-5 -39 -6 -76t12.5 -70t36.5 -58t64.5 -39.5t97.5 -14.5q70 0 125.5 22t91 59.5t56.5 81t30 93.5 q20 114 -36.5 176.5t-176.5 62.5q-121 0 -198 -62t-97 -175z" />
<glyph unicode="9" horiz-adv-x="1142" d="M440 98q44 0 86 9.5t101 46t109 96.5t100.5 172t83.5 262q-157 -131 -347 -131q-68 0 -126 14.5t-109.5 47.5t-82 85.5t-43.5 129.5t7 180q36 201 166 321.5t332 120.5q92 0 162 -24t121.5 -76t76.5 -134t28 -199t-26 -271q-25 -139 -64 -253.5t-82.5 -192.5 t-96.5 -137.5t-102.5 -93.5t-104.5 -55.5t-98 -28.5t-87 -7q-256 0 -374 153l106 90q39 -60 112.5 -92.5t151.5 -32.5zM584 670q170 0 362 147q20 144 17 242.5t-35 159t-82.5 87.5t-124.5 27q-149 0 -242 -96t-121 -254q-28 -157 33.5 -235t192.5 -78z" />
<glyph unicode=":" horiz-adv-x="489" d="M229 903q8 42 40 71.5t77 29.5q47 0 67.5 -29.5t12.5 -71.5q-6 -41 -36.5 -67.5t-78.5 -26.5q-46 0 -67 26.5t-15 67.5zM84 74q6 42 37.5 71t77.5 29q47 0 67.5 -28.5t14.5 -71.5q-8 -42 -37.5 -68t-77.5 -26q-46 0 -68 26.5t-14 67.5z" />
<glyph unicode=";" horiz-adv-x="540" d="M266 899q8 43 39.5 71.5t77.5 28.5t67 -28.5t13 -71.5q-8 -40 -39 -67t-76 -27q-46 0 -68 27t-14 67zM117 76q7 42 40 69t72 27q102 0 80 -127q-16 -91 -85.5 -175t-157.5 -142l-43 51q75 53 125.5 110.5t56.5 94.5q-8 -4 -25 -4q-36 0 -54 23.5t-9 72.5z" />
<glyph unicode="&#x3c;" horiz-adv-x="1091" d="M901 88l-803 408l27 153l940 369l-23 -133l-821 -314l705 -348z" />
<glyph unicode="=" horiz-adv-x="1175" d="M195 666l22 125h873l-23 -125h-872zM127 285l23 125h872l-23 -125h-872z" />
<glyph unicode="&#x3e;" horiz-adv-x="1091" d="M1022 496l-946 -408l24 135l828 348l-711 314l23 133l809 -369z" />
<glyph unicode="?" horiz-adv-x="925" d="M274 74q6 42 37.5 71t77.5 29q45 0 66.5 -29t15.5 -71q-8 -41 -38.5 -67.5t-76.5 -26.5t-68 26.5t-14 67.5zM604 1325q-85 0 -170.5 -38t-140.5 -103l-84 86q74 82 187.5 132t240.5 50q175 0 262 -97.5t57 -267.5q-13 -73 -44.5 -133.5t-72 -103.5t-87.5 -81.5t-94.5 -78 t-88.5 -83.5t-73 -106.5t-45 -138.5l-19 -98h-127l17 94q17 96 50.5 173t74.5 126.5t86.5 90t90 74t82.5 68.5t66.5 82.5t38.5 106.5q22 122 -40 184t-167 62z" />
<glyph unicode="@" horiz-adv-x="1632" d="M1591 786q-67 -376 -372 -376q-154 0 -179 100q-102 -102 -270 -102q-80 0 -135 24.5t-80 66.5t-32.5 98.5t5.5 121.5q28 152 118.5 231.5t240.5 79.5q62 0 110.5 -16t102.5 -56l8 41l106 2l-63 -360q-24 -137 100 -137q84 0 133 64t74 202q25 128 8 234.5t-69 183 t-151.5 119.5t-239.5 43q-274 0 -466 -178.5t-243 -473.5q-35 -195 13.5 -335.5t165 -210.5t286.5 -70q208 0 358.5 71.5t247.5 182.5l70 -64q-92 -119 -278.5 -205.5t-416.5 -86.5q-156 0 -277 46.5t-198.5 137t-105.5 223.5t2 307q40 221 158 392.5t300.5 268.5t401.5 97 q100 0 184.5 -18.5t147 -52t111 -81t77 -105t45.5 -123.5t15.5 -138t-13.5 -148zM809 512q67 0 121.5 22.5t109.5 81.5l41 240q-86 72 -204 72q-189 0 -224 -207q-20 -110 16.5 -159.5t139.5 -49.5z" />
<glyph unicode="A" horiz-adv-x="1249" d="M1012 0l-76 399h-621l-215 -399h-143l774 1434h139l279 -1434h-137zM776 1253l-395 -731h530z" />
<glyph unicode="B" horiz-adv-x="1218" d="M129 0l252 1434h354q126 0 214.5 -28t135.5 -79t62.5 -117.5t1.5 -148.5q-22 -122 -103.5 -197t-181.5 -94q38 -5 70.5 -15t66 -30t56.5 -48.5t40.5 -70.5t18 -96.5t-9.5 -126.5q-65 -383 -553 -383h-424zM651 702h-264l-102 -577h276q187 0 282.5 71.5t119.5 209.5 q27 151 -52 223.5t-260 72.5zM725 1309h-231l-84 -482h254q295 0 340 246q21 117 -44.5 176.5t-234.5 59.5z" />
<glyph unicode="C" horiz-adv-x="1314" d="M702 -20q-148 0 -261 47.5t-187 144.5t-96.5 243.5t10.5 344.5q30 170 100.5 303t170 217.5t222 128t261.5 43.5q94 0 168.5 -17t128 -50.5t90.5 -71t73 -90.5l-116 -86q-69 98 -148.5 144t-199.5 46q-229 0 -392 -153.5t-213 -438.5q-55 -309 52.5 -470t334.5 -161 q127 0 222 45.5t202 131.5l82 -82q-47 -45 -89.5 -77t-105.5 -68t-141.5 -55t-167.5 -19z" />
<glyph unicode="D" horiz-adv-x="1359" d="M129 0l252 1434h278q129 0 235 -26.5t181 -75t128 -117t77.5 -153.5t30 -184t-16.5 -208q-26 -149 -93.5 -271t-171.5 -211.5t-251 -138.5t-325 -49h-324zM647 1309h-153l-209 -1184h153q161 0 287 43.5t210 124t135.5 185.5t74.5 237q16 103 11.5 193t-40 164 t-95.5 126.5t-155 81.5t-219 29z" />
<glyph unicode="E" horiz-adv-x="1120" d="M129 0l252 1434h803l-23 -125h-667l-91 -514h523l-23 -125h-522l-96 -545h688l-21 -125h-823z" />
<glyph unicode="F" horiz-adv-x="1056" d="M129 0l252 1434h803l-23 -125h-667l-99 -559h496l-23 -125h-495l-109 -625h-135z" />
<glyph unicode="G" horiz-adv-x="1351" d="M711 -20q-318 0 -462.5 205.5t-82.5 555.5q31 173 103.5 310.5t171.5 224t216 131.5t244 45q94 0 168.5 -14.5t129 -42.5t90 -56t73.5 -69l-113 -88q-106 145 -346 145q-100 0 -193 -37.5t-173 -111.5t-139.5 -193.5t-86.5 -273.5q-50 -281 58 -444t344 -163 q154 0 317 56l68 377h-314l21 125h450l-102 -586q-212 -96 -442 -96z" />
<glyph unicode="H" horiz-adv-x="1378" d="M264 0h-135l252 1434h135l-113 -643h703l113 643h135l-252 -1434h-135l116 666h-702z" />
<glyph unicode="I" horiz-adv-x="540" d="M129 0l252 1434h135l-252 -1434h-135z" />
<glyph unicode="J" horiz-adv-x="559" d="M-213 -442l-10 98q324 80 391 465l231 1313h136l-232 -1309q-83 -475 -516 -567z" />
<glyph unicode="K" horiz-adv-x="1220" d="M1184 1434h172l-662 -576l439 -858h-144l-391 774l-233 -205l-101 -569h-135l252 1434h135l-121 -691z" />
<glyph unicode="L" horiz-adv-x="1036" d="M129 0l252 1434h135l-231 -1309h649l-21 -125h-784z" />
<glyph unicode="M" horiz-adv-x="1800" d="M1389 0l225 1280l-719 -1280h-137l-269 1288l-225 -1288h-135l252 1434h219l254 -1270l707 1270h215l-252 -1434h-135z" />
<glyph unicode="N" horiz-adv-x="1486" d="M381 1434h201l528 -1258l217 1258h137l-221 -1266l-31 -168h-172l-548 1292l-228 -1292h-135z" />
<glyph unicode="O" horiz-adv-x="1480" d="M1417 688q-59 -327 -253.5 -517.5t-477.5 -190.5q-308 0 -445.5 206t-72.5 559q59 326 252.5 516.5t476.5 190.5q204 0 336.5 -94.5t179 -266.5t4.5 -403zM313 723q-27 -139 -15 -253t56 -195.5t128 -126t202 -44.5q155 0 278 77.5t199.5 213t108.5 316.5 q17 106 15.5 199t-28.5 170t-73.5 131.5t-119.5 85t-167 30.5q-154 0 -277.5 -79.5t-199.5 -214t-107 -310.5z" />
<glyph unicode="P" horiz-adv-x="1155" d="M129 0l252 1434h334q269 0 389 -99.5t80 -318.5q-38 -220 -180.5 -316t-391.5 -96h-241l-107 -604h-135zM711 1309h-217l-103 -580h217q195 0 298.5 65.5t131.5 227.5q28 157 -52 222t-275 65z" />
<glyph unicode="Q" horiz-adv-x="1480" d="M1417 688q-47 -260 -181.5 -436.5t-332.5 -239.5q63 -30 215 -111.5t225 -119.5l-81 -113q-65 36 -214 129.5t-240 138t-153 44.5v2q-293 10 -421.5 214t-65.5 549q59 326 252.5 516.5t476.5 190.5q204 0 336.5 -94.5t179 -266.5t4.5 -403zM313 723q-27 -139 -15 -253 t56 -195.5t128 -126t202 -44.5q155 0 278 77.5t199.5 213t108.5 316.5q17 106 15.5 199t-28.5 170t-73.5 131.5t-119.5 85t-167 30.5q-154 0 -277.5 -79.5t-199.5 -214t-107 -310.5z" />
<glyph unicode="R" horiz-adv-x="1185" d="M129 0l252 1434h317q262 0 377 -104t76 -320q-57 -322 -403 -379l311 -631h-144l-294 621h-248l-109 -621h-135zM690 1309h-196l-99 -564h197q189 0 288.5 67.5t125.5 211.5q25 143 -51 214t-265 71z" />
<glyph unicode="S" horiz-adv-x="1071" d="M672 1329q-109 0 -185.5 -52t-93.5 -144q-11 -65 5 -116.5t50.5 -85t82.5 -64.5t101.5 -54.5t107 -54.5t100 -65t79.5 -86t45.5 -117.5t-1.5 -159.5q-25 -155 -156 -252.5t-320 -97.5q-91 0 -164.5 15.5t-126.5 44t-90 60.5t-69 74l115 86q60 -75 135.5 -116.5 t201.5 -41.5q131 0 225 61.5t111 162.5q10 64 -1 116t-39 87.5t-68 67t-86.5 54.5t-95.5 49.5t-95 52t-85 62t-65.5 79t-36 104t2.5 137.5q25 148 136.5 232.5t279.5 84.5q141 0 236.5 -40t168.5 -120l-110 -84q-66 61 -131.5 91t-163.5 30z" />
<glyph unicode="T" horiz-adv-x="1077" d="M401 0l230 1309h-418l23 125h962l-22 -125h-408l-229 -1309h-138z" />
<glyph unicode="U" horiz-adv-x="1353" d="M1044 522l162 912h137l-161 -914q-47 -268 -191 -403t-370 -135q-248 0 -358 135.5t-58 402.5l162 914h135l-162 -912q-34 -198 33.5 -307t247.5 -109q181 0 285 109t138 307z" />
<glyph unicode="V" horiz-adv-x="1202" d="M551 174l627 1260h149l-729 -1434h-143l-224 1434h144z" />
<glyph unicode="W" horiz-adv-x="1861" d="M1032 1434h156l110 -1250l535 1250h145l-624 -1434h-158l-117 1268l-565 -1268h-156l-116 1434h143l90 -1250z" />
<glyph unicode="X" horiz-adv-x="1165" d="M-35 0l600 741l-325 693h139l272 -586l475 586h154l-571 -705l344 -729h-135l-295 623l-504 -623h-154z" />
<glyph unicode="Y" horiz-adv-x="1179" d="M680 555l-96 -555h-135l96 555l-326 879h129l275 -764l546 764h148z" />
<glyph unicode="Z" horiz-adv-x="1103" d="M1178 1434l-19 -103l-952 -1206h764l-21 -125h-936l17 100l950 1209h-731l22 125h906z" />
<glyph unicode="[" horiz-adv-x="622" d="M483 1313l-260 -1465l221 -41l-14 -79h-362l301 1706h362l-14 -80z" />
<glyph unicode="\" horiz-adv-x="1067" d="M920 -123h-136l-536 1639h135z" />
<glyph unicode="]" horiz-adv-x="622" d="M199 -152l260 1465l-221 41l14 80h362l-301 -1706h-362l14 79z" />
<glyph unicode="^" horiz-adv-x="1042" d="M641 1434h119l270 -457h-141l-209 342l-328 -342h-143z" />
<glyph unicode="_" horiz-adv-x="964" d="M-119 -276l21 124h960l-20 -124h-961z" />
<glyph unicode="`" horiz-adv-x="290" d="M377 1081h-80l-203 338h164z" />
<glyph unicode="a" d="M119 508q43 243 179 368t323 125q237 0 305 -184l28 162h125l-172 -979h-108l14 172q-126 -192 -346 -192q-95 0 -168.5 30.5t-124 94.5t-64.5 164t9 239zM479 94q73 0 134.5 25t101.5 63t71.5 89.5t48.5 96.5t27 93l8 43q5 40 5 78.5t-5.5 84t-22.5 83t-44 69.5 t-72.5 50t-105.5 18q-139 0 -237.5 -99.5t-135.5 -304.5q-68 -389 227 -389z" />
<glyph unicode="b" horiz-adv-x="1161" d="M1065 496q-43 -251 -180.5 -383.5t-333.5 -132.5q-231 0 -301 174l-62 -162h-98l272 1544h125l-127 -723q130 188 375 188q194 0 283.5 -128t46.5 -377zM303 494q-16 -102 -4.5 -177t48.5 -125t90.5 -74t121.5 -24q140 0 239 103t132 292q32 188 -29 293t-207 105 q-143 0 -250 -101t-141 -292z" />
<glyph unicode="c" horiz-adv-x="980" d="M637 887q-156 0 -252.5 -107.5t-130.5 -292.5q-33 -188 28.5 -290.5t215.5 -102.5q63 0 122 20t92.5 41.5t84.5 59.5l69 -82q-95 -76 -186.5 -114.5t-204.5 -38.5q-213 0 -306 131.5t-50 373.5t182.5 379t351.5 137q200 0 318 -141l-105 -82q-30 28 -37 34.5t-34 27 t-44.5 27t-48.5 13.5t-65 7z" />
<glyph unicode="d" d="M907 0h-108l10 170q-130 -190 -360 -190q-90 0 -158.5 29t-116.5 90t-62 156t7 228q44 254 185.5 386t336.5 132q221 0 285 -184l127 719h125zM479 94q73 0 134.5 25t101.5 63t71.5 89.5t48.5 96.5t27 93l8 43q5 40 5 78.5t-5.5 84t-22.5 83t-44 69.5t-72.5 50t-105.5 18 q-138 0 -236 -100t-135 -308q-68 -385 225 -385z" />
<glyph unicode="e" horiz-adv-x="1028" d="M428 389h-192q0 -148 77.5 -222.5t218.5 -74.5q87 0 164 38.5t131 92.5l66 -76q-72 -74 -157 -120.5t-201 -46.5q-89 0 -161.5 19.5t-132.5 61.5t-93.5 108.5t-44 161.5t15.5 220q43 227 174.5 338.5t320.5 111.5q192 0 279.5 -88.5t60.5 -238.5q-54 -285 -526 -285z M250 530l-6 -34h202q173 0 265.5 39.5t111.5 140.5q21 109 -36 161t-169 52q-148 0 -242 -92.5t-126 -266.5z" />
<glyph unicode="f" horiz-adv-x="595" d="M162 868l20 111h125l37 213q61 344 346 344q92 0 158 -27l-39 -110q-45 22 -123 22q-87 0 -141 -53t-76 -180l-37 -209h217l-20 -111h-217l-154 -876q-35 -197 -122 -304.5t-234 -138.5l-13 89q101 29 159 114.5t85 237.5l154 878h-125z" />
<glyph unicode="g" d="M954 979h125l-174 -981q-38 -219 -179.5 -333t-369.5 -114q-118 0 -207 34.5t-143 86.5l94 95q45 -41 118 -71t155 -30q164 0 271 82.5t136 243.5l31 182q-130 -194 -362 -194q-90 0 -158.5 29t-116.5 90t-62 156t7 228q44 254 185.5 386t336.5 132q221 0 285 -184z M866 483q9 47 10.5 95.5t-9.5 106t-36.5 101t-78 72.5t-127.5 29q-139 0 -236.5 -100t-134.5 -308q-68 -385 225 -385q77 0 140.5 27.5t104.5 68.5t72 96.5t46 102.5t24 94z" />
<glyph unicode="h" horiz-adv-x="1081" d="M850 0h-123l109 618q23 129 -26 199t-153 70q-53 0 -103.5 -16t-98 -50t-84 -95.5t-52.5 -143.5l-102 -582h-125l270 1536h125l-131 -735q37 87 136 143.5t215 56.5q146 0 216 -92t40 -268z" />
<glyph unicode="i" horiz-adv-x="454" d="M289 1339q8 43 38.5 72t75.5 29q48 0 70 -29t14 -72t-38 -69.5t-78 -26.5q-46 0 -68 27t-14 69zM92 0l172 979h125l-172 -979h-125z" />
<glyph unicode="j" horiz-adv-x="454" d="M-141 -451l-11 89q99 29 157 115t85 237l174 989h125l-174 -987q-35 -196 -122.5 -304t-233.5 -139zM291 1339q8 43 39.5 72t77.5 29q48 0 70 -29t14 -72t-38.5 -69.5t-78.5 -26.5q-46 0 -69 27t-15 69z" />
<glyph unicode="k" horiz-adv-x="978" d="M92 0l270 1536h125l-190 -1077l571 520h154l-418 -375l266 -604h-145l-223 514l-232 -207l-53 -307h-125z" />
<glyph unicode="l" horiz-adv-x="454" d="M92 0l270 1536h125l-270 -1536h-125z" />
<glyph unicode="m" horiz-adv-x="1605" d="M92 0l172 979h125l-33 -178q35 90 118.5 145t187.5 55q60 0 111 -18t92 -63t53 -113q38 88 124 141t193 53q59 0 109 -17t90.5 -52.5t57 -100t1.5 -149.5l-119 -682h-125l113 649q22 119 -25 178.5t-147 59.5q-48 0 -91 -14.5t-84 -45.5t-71.5 -89.5t-44.5 -137.5 l-104 -600h-125l112 649q20 111 -26 174.5t-140 63.5q-103 0 -185.5 -77t-111.5 -228l-102 -582h-125z" />
<glyph unicode="n" horiz-adv-x="1081" d="M389 979l-33 -178q37 87 136 143.5t215 56.5q147 0 217.5 -91.5t40.5 -268.5l-113 -641h-125l109 618q23 129 -26 199t-153 70q-53 0 -103.5 -16t-98 -50t-84 -95.5t-52.5 -143.5l-102 -582h-125l172 979h125z" />
<glyph unicode="o" horiz-adv-x="1128" d="M1034 498q-42 -244 -188.5 -381t-360.5 -137q-212 0 -310 137t-56 381q43 242 190 372.5t357 130.5q212 0 311.5 -130t56.5 -373zM254 498q-33 -184 34 -292t218 -108q153 0 256.5 107.5t136.5 292.5q32 183 -34.5 284t-221.5 101q-152 0 -254.5 -101t-134.5 -284z" />
<glyph unicode="p" horiz-adv-x="1159" d="M12 -434l250 1413h125l-29 -164q133 186 373 186q194 0 283.5 -128t46.5 -377q-43 -251 -180 -383.5t-332 -132.5q-237 0 -305 186l-43 -244l-62 -356h-127zM301 494q-16 -102 -4.5 -177t48.5 -125t90.5 -74t121.5 -24q140 0 239 103t132 292q32 188 -30 293t-206 105 q-143 0 -250 -101t-141 -292z" />
<glyph unicode="q" horiz-adv-x="1148" d="M119 483q44 252 185.5 385t330.5 133q225 0 301 -170l63 150h84l-249 -1415h-125l106 606q-131 -192 -364 -192q-91 0 -160.5 29t-117.5 90.5t-61.5 156.5t7.5 227zM870 483l4 21q5 39 5 78t-5.5 84.5t-23 83t-45 69.5t-73 50t-105.5 18q-139 0 -237.5 -100t-135.5 -308 q-68 -385 227 -385q65 0 120.5 19t95 51.5t70.5 71.5t51.5 85t32.5 84.5t19 77.5z" />
<glyph unicode="r" horiz-adv-x="712" d="M780 981l-41 -115q-44 23 -98 23q-44 0 -92.5 -22t-98.5 -67t-91 -128.5t-60 -192.5l-84 -479h-123l172 979h119l-39 -217q38 108 129 175t199 67q67 0 108 -23z" />
<glyph unicode="s" horiz-adv-x="854" d="M549 1001q71 0 127.5 -19.5t84.5 -41t58 -53.5l-98 -84q-46 44 -87.5 65t-111.5 21q-83 0 -141.5 -33t-71.5 -104q-8 -45 14 -78.5t62.5 -55t91 -41t99.5 -43.5t88 -55.5t57 -84t6 -122.5q-24 -135 -124.5 -213.5t-264.5 -78.5q-126 0 -203.5 41.5t-107.5 97.5l98 82 q22 -30 45 -50.5t72.5 -39.5t113.5 -19q213 0 246 178q9 50 -12.5 87.5t-62 60t-90.5 42.5t-100 42.5t-89 51.5t-58.5 78.5t-7.5 115.5q12 69 48.5 120.5t89 79t109.5 40.5t120 13z" />
<glyph unicode="t" horiz-adv-x="673" d="M487 1233l-45 -254h258l-20 -111h-258l-100 -571q-38 -205 118 -205q59 0 117 14l-18 -112q-49 -14 -125 -14q-134 0 -190.5 73t-26.5 238l100 577h-160l21 111h159l97 254h73z" />
<glyph unicode="u" horiz-adv-x="1079" d="M254 979h125l-113 -631q-20 -115 25.5 -183.5t163.5 -68.5q53 0 102 15.5t96.5 49t82.5 95t50 145.5l103 578h123l-172 -979h-101l27 178q-37 -85 -141 -140.5t-224 -55.5q-64 0 -116 19t-92.5 58t-56 107t0.5 158z" />
<glyph unicode="v" horiz-adv-x="972" d="M293 979l145 -825l439 825h135l-543 -979h-111l-200 979h135z" />
<glyph unicode="w" horiz-adv-x="1443" d="M879 965l102 -779l379 793h117l-473 -979h-109l-107 782l-389 -782h-108l-125 979h133l84 -793l389 779h107z" />
<glyph unicode="x" horiz-adv-x="960" d="M-23 0l447 494l-266 485h137l213 -389l354 389h137l-438 -483l277 -496h-140l-223 399l-360 -399h-138z" />
<glyph unicode="y" horiz-adv-x="989" d="M301 979l148 -823l446 823h137l-545 -979l-49 -92q-56 -105 -107.5 -174.5t-102.5 -109t-99.5 -55t-108.5 -15.5q-33 0 -69 8l29 112q21 -8 57 -8q34 0 62.5 8.5t66 33.5t78.5 80.5t84 139.5l39 72h-11l-192 979h137z" />
<glyph unicode="z" horiz-adv-x="933" d="M12 80l715 784h-534l20 115h713l-15 -80l-714 -784h600l-19 -115h-778z" />
<glyph unicode="{" horiz-adv-x="661" d="M465 -334l-19 -106q-175 0 -260 113.5t-49 320.5q11 63 34.5 165.5t31.5 153.5q14 73 -12.5 123.5t-94.5 63.5l13 78q147 29 182 219q10 125 39 288q36 207 161 321t300 114l-19 -107q-117 0 -202 -95t-109 -233q-8 -42 -19.5 -130.5t-17.5 -125.5q-20 -125 -64 -194 q-16 -25 -33 -43.5t-29.5 -27.5t-35.5 -23q4 -3 19.5 -13.5t19 -14t13 -13.5t14.5 -22t10 -29q20 -64 4 -148q-7 -43 -35.5 -147t-40.5 -168q-23 -131 30 -225.5t169 -94.5z" />
<glyph unicode="|" horiz-adv-x="514" d="M524 1538l-362 -2050h-137l362 2050h137z" />
<glyph unicode="}" horiz-adv-x="661" d="M-82 -440l16 106q116 0 201.5 94.5t108.5 225.5q13 70 21.5 175t13.5 140q17 90 57 148q11 17 21 29t22 21.5t18 14t23 14t24 13.5q-26 20 -40 39t-25 55q-16 57 6 194q8 49 28 137.5t25 118.5q24 138 -27.5 233t-168.5 95l18 107q175 0 260 -114t49 -321 q-21 -121 -63 -288q-35 -189 104 -219l-12 -78q-73 -13 -117.5 -63t-58.5 -124q-6 -38 -19 -142.5t-26 -176.5q-36 -206 -160.5 -320t-298.5 -114z" />
<glyph unicode="~" horiz-adv-x="1120" d="M948 768l76 -70q-14 -77 -87.5 -141.5t-158.5 -64.5q-47 0 -87.5 17t-70 41t-58 47.5t-64 40.5t-74.5 17q-67 0 -112.5 -45.5t-57.5 -117.5l-78 75q15 78 86 139.5t170 61.5q52 0 99 -17t81 -41t64 -48t60.5 -41t58.5 -17q49 0 94 41.5t59 122.5z" />
<glyph unicode="&#xa1;" horiz-adv-x="483" d="M344 686h-106l-250 -1282h151zM229 901q8 43 39.5 71.5t77.5 28.5t67 -28.5t13 -71.5q-8 -41 -38.5 -67.5t-76.5 -26.5t-68 26.5t-14 67.5z" />
<glyph unicode="&#xa2;" horiz-adv-x="1015" d="M504 -188h-113l31 172q-182 17 -259.5 146.5t-37.5 354.5q40 224 163.5 358.5t311.5 153.5l35 193h113l-33 -191q157 -16 262 -139l-105 -82q-30 28 -37 34.5t-34 27t-44.5 27t-48.5 13.5t-65 7q-156 0 -252.5 -107.5t-130.5 -292.5q-33 -188 28.5 -290.5t215.5 -102.5 q63 0 122 20t92.5 41.5t84.5 59.5l69 -82q-82 -67 -162.5 -103.5t-174.5 -45.5z" />
<glyph unicode="&#xa3;" horiz-adv-x="1193" d="M944 303l107 43q19 -21 32.5 -67.5t6.5 -90.5q-5 -30 -16 -58t-33.5 -57.5t-54 -50.5t-81 -35t-110.5 -14q-65 0 -133 20t-117 43.5t-116 43.5t-130 20q-116 0 -160 -120h-116q9 53 43.5 113t78.5 117t89 117.5t82 137t51 153.5q4 20 4 33h-178l18 115h154 q-4 25 -13.5 57t-16.5 57.5t-13 56.5t-6 67.5t8 76.5q16 94 62 167t110.5 116.5t137 65.5t148.5 22q207 0 322 -152l-117 -83q-18 24 -33 40t-41 34.5t-63.5 28t-85.5 9.5q-118 0 -198 -61.5t-101 -177.5q-9 -38 -4 -87t12 -78.5t18.5 -76.5t16.5 -82h305l-18 -115h-285 q0 -10 -4 -30q-21 -119 -91.5 -232t-160.5 -203q67 37 143 37q59 0 121.5 -20t106 -43.5t97 -43.5t97.5 -20q123 0 144 105q1 9 1.5 17.5t-1 17t-2.5 14.5t-3.5 15t-4 13t-5 13.5t-4.5 11.5z" />
<glyph unicode="&#xa4;" horiz-adv-x="1167" d="M193 205l-62 69l107 91q-50 110 -21 282q28 167 119 281l-74 92l86 70l68 -82q125 98 291 98q163 0 254 -98l96 82l59 -72l-102 -88q49 -114 20 -283q-28 -165 -121 -282l72 -89l-84 -71l-67 82q-126 -99 -289 -99q-165 0 -256 99zM348 647q-29 -168 35.5 -256t181.5 -88 q56 0 108.5 21t99 61.5t81 108t49.5 153.5q15 89 5 154t-42.5 107t-77.5 62.5t-102 20.5q-119 0 -213 -87.5t-125 -256.5z" />
<glyph unicode="&#xa5;" horiz-adv-x="1234" d="M1128 713h-303l-100 -140h379l-21 -118h-389l-80 -455h-135l80 455h-399l20 118h389l-51 140h-313l20 118h248l-223 603h129l274 -764l547 764h148l-437 -603h238z" />
<glyph unicode="&#xa6;" horiz-adv-x="499" d="M168 307h125l-146 -819h-124zM365 719h-125l145 819h125z" />
<glyph unicode="&#xa7;" horiz-adv-x="980" d="M662 1339q-103 0 -175.5 -54t-89.5 -150q-9 -51 4.5 -92t42.5 -68t69.5 -51.5t85.5 -43t90 -43.5t84 -52.5t66 -69.5t37 -94.5t-2 -128.5q-14 -86 -61 -162q20 -73 4 -158q-29 -165 -148.5 -256.5t-299.5 -91.5q-133 0 -211.5 47.5t-128.5 128.5l100 78 q50 -66 109 -103.5t157 -37.5q122 0 201.5 60.5t99.5 168.5q9 55 -3.5 99t-41.5 73t-69 55.5t-85 46t-90 45t-84 51.5t-67 66.5t-38.5 90t1.5 120.5q15 91 64 162q-24 64 -9 158q27 151 138 235t272 84q102 0 171.5 -35.5t123.5 -105.5l-102 -76q-44 51 -94 77.5t-121 26.5z M342 817q-12 -64 10.5 -111.5t71 -79.5t101 -56.5t115.5 -58t101 -69.5q10 34 11 43q10 58 -4.5 104t-45 75t-76 57t-90 47.5t-96 48t-84.5 57.5q-6 -15 -14 -57z" />
<glyph unicode="&#xa8;" horiz-adv-x="1255" d="M453 1239q8 42 39 70t75 28q45 0 65.5 -28t12.5 -70q-6 -40 -36.5 -66t-76.5 -26q-44 0 -64.5 26t-14.5 66zM809 1239q8 42 39 70t76 28q44 0 64.5 -28t12.5 -70q-6 -39 -36.5 -65.5t-75.5 -26.5t-65.5 26t-14.5 66z" />
<glyph unicode="&#xa9;" horiz-adv-x="1722" d="M1663 721q-40 -225 -165 -394t-310 -258t-404 -89q-163 0 -291.5 52t-210 146.5t-112 234t-0.5 308.5q38 221 163 388t309.5 255t401.5 88q219 0 372.5 -88.5t219 -255t27.5 -387.5zM289 721q-17 -109 -8 -205t50.5 -175.5t105.5 -137t158 -89.5t208 -32q190 0 349.5 85 t259.5 229.5t132 324.5q23 132 -1 247.5t-89 200t-175 133t-253 48.5q-287 0 -488 -174.5t-249 -454.5zM989 1051q-129 0 -209.5 -89.5t-107.5 -242.5q-27 -157 23 -242.5t177 -85.5q76 0 132.5 26.5t117.5 74.5l58 -68q-77 -63 -154 -95t-172 -32q-175 0 -252.5 109.5 t-42.5 310.5q36 201 152 314.5t293 113.5q166 0 262 -117l-86 -67q-36 33 -52.5 46.5t-54.5 28.5t-84 15z" />
<glyph unicode="&#xaa;" horiz-adv-x="901" d="M799 668h-86l2 114q-111 -127 -303 -127q-118 0 -177.5 58t-39.5 168q43 237 372 237h203l4 31q42 227 -182 227q-68 0 -120.5 -22t-106.5 -64l-60 62q130 123 316 123q62 0 112.5 -15.5t92.5 -49.5t58.5 -100t0.5 -157zM741 958l13 68h-203q-211 0 -236 -143 q-11 -69 29.5 -99t108.5 -30q39 0 79.5 9.5t84 30.5t77.5 63.5t47 100.5z" />
<glyph unicode="&#xab;" horiz-adv-x="948" d="M336 63l-227 449l380 430l82 -72l-323 -356l194 -377zM684 63l-227 449l381 430l82 -72l-324 -356l195 -377z" />
<glyph unicode="&#xac;" horiz-adv-x="1314" d="M1130 299h-126l73 412h-887l19 112h1014z" />
<glyph unicode="&#xad;" horiz-adv-x="880" d="M760 555h-590l23 125h589z" />
<glyph unicode="&#xae;" horiz-adv-x="1722" d="M1663 721q-40 -225 -165 -394t-310 -258t-404 -89q-163 0 -291.5 52t-210 146.5t-112 234t-0.5 308.5q38 221 163 388t309.5 255t401.5 88q219 0 372.5 -88.5t219 -255t27.5 -387.5zM289 721q-17 -109 -8 -205t50.5 -175.5t105.5 -137t158 -89.5t208 -32q190 0 349.5 85 t259.5 229.5t132 324.5q23 132 -1 247.5t-89 200t-175 133t-253 48.5q-287 0 -488 -174.5t-249 -454.5zM596 303l147 846h218q158 0 228.5 -59t49.5 -183q-37 -195 -248 -233l197 -371h-111l-186 363h-141l-64 -363h-90zM946 1067h-127l-55 -317h127q117 0 177 37t75 120 q14 79 -34 119.5t-163 40.5z" />
<glyph unicode="&#xaf;" horiz-adv-x="1124" d="M358 1137l21 106h495l-20 -106h-496z" />
<glyph unicode="&#xb0;" horiz-adv-x="745" d="M778 1210q-20 -108 -104.5 -173.5t-202.5 -65.5q-119 0 -181 65.5t-42 173.5q15 93 102 159.5t203 66.5q114 0 177 -66.5t48 -159.5zM342 1210q-12 -66 24 -114.5t119 -48.5t135 48.5t64 114.5q10 60 -24.5 105t-118.5 45t-136.5 -45.5t-62.5 -104.5z" />
<glyph unicode="&#xb1;" horiz-adv-x="1001" d="M668 1020l-60 -338h334l-18 -104h-334l-60 -338h-120l59 338h-330l19 104h329l60 338h121zM715 -31h-590l22 125h590z" />
<glyph unicode="&#xb2;" horiz-adv-x="782" d="M563 1466q138 0 207 -70.5t47 -191.5q-5 -26 -14.5 -53t-19.5 -50t-30 -52t-33.5 -48.5t-43 -52.5t-45 -50.5t-53.5 -54.5t-55 -53.5t-62.5 -59.5t-63.5 -60l-125 -119h451l-18 -100h-623l10 57l238 219q169 154 259.5 263.5t106.5 203.5q14 80 -26 125t-125 45 q-77 0 -134.5 -35.5t-109.5 -107.5l-76 53q130 192 338 192z" />
<glyph unicode="&#xb3;" horiz-adv-x="800" d="M584 1466q132 0 192 -65.5t41 -175.5q-17 -95 -75 -157.5t-136 -74.5q196 -35 154 -268q-25 -139 -120.5 -214t-244.5 -75q-119 0 -193.5 46.5t-103.5 125.5l99 54q28 -56 81.5 -89.5t131.5 -33.5q92 0 156 50t79 140q19 102 -28.5 157.5t-161.5 55.5h-56l17 98h55 q95 0 155 46.5t74 123.5q12 73 -24 114.5t-113 41.5q-124 0 -223 -119l-78 58q120 161 322 161z" />
<glyph unicode="&#xb4;" horiz-adv-x="579" d="M432 1081h-80l236 338h184z" />
<glyph unicode="&#xb5;" horiz-adv-x="1132" d="M920 979h124l-172 -975h-124l26 156q-33 -76 -127 -127t-207 -51q-117 0 -192 57l-98 -551h-125l264 1491h125l-113 -633q-12 -68 -0.5 -119t55 -82.5t117.5 -31.5q53 0 105 18t101.5 54.5t87.5 101t56 149.5z" />
<glyph unicode="&#xb6;" horiz-adv-x="1009" d="M668 -342h-125l295 1669h-105l-295 -1669h-125l181 1016q-183 0 -266 103.5t-54 266.5q29 165 150.5 277.5t302.5 112.5h354z" />
<glyph unicode="&#xb7;" horiz-adv-x="485" d="M188 666q8 43 38.5 71.5t76.5 28.5q48 0 69 -28.5t13 -71.5q-8 -42 -38 -68.5t-77 -26.5q-46 0 -68 27t-14 68z" />
<glyph unicode="&#xb8;" horiz-adv-x="624" d="M133 -190l94 190h99l-60 -119q6 2 27 2q61 0 104.5 -40t30.5 -111q-11 -64 -53 -106.5t-95 -59.5t-116 -17q-108 0 -176 33l32 88q64 -28 152 -28q123 0 137 82q7 44 -17 65t-75 21h-84z" />
<glyph unicode="&#xb9;" horiz-adv-x="450" d="M223 1298l2 82l236 86h28l-180 -1015h-110l155 884z" />
<glyph unicode="&#xba;" horiz-adv-x="958" d="M967 1071q-35 -195 -154 -304.5t-291 -109.5q-173 0 -252.5 109.5t-44.5 304.5q33 194 151.5 299t289.5 105q172 0 253 -104.5t48 -299.5zM344 1071q-26 -143 26.5 -226t170.5 -83q120 0 200 82.5t107 226.5q25 143 -26.5 222t-172.5 79q-119 0 -199.5 -79.5 t-105.5 -221.5z" />
<glyph unicode="&#xbb;" horiz-adv-x="948" d="M528 512l-387 -449l-82 74l330 377l-201 356l111 72zM877 512l-388 -449l-81 74l329 377l-200 356l110 72z" />
<glyph unicode="&#xbc;" horiz-adv-x="2129" d="M231 1278l2 82l234 86h29l-179 -1016h-110l155 885zM1307 205l16 92l575 709h111l-123 -699h158l-19 -102h-157l-35 -205h-109l35 205h-452zM1448 307h330l92 524zM1640 1497l-1134 -1567h-125l1135 1567h124z" />
<glyph unicode="&#xbd;" horiz-adv-x="2091" d="M1300 0l9 57l237 219q169 154 260.5 264t108.5 203q13 79 -28 124.5t-126 45.5q-77 0 -134 -35.5t-109 -107.5l-76 53q63 90 143.5 141.5t194.5 51.5q138 0 207 -70.5t47 -191.5q-5 -26 -14.5 -53.5t-19 -49.5t-30.5 -52t-33.5 -49t-43 -53t-45 -50t-54 -55t-54.5 -53.5 t-62.5 -59.5t-63.5 -60l-125 -119h450l-16 -100h-623zM1640 1497l-1134 -1567h-125l1135 1567h124zM231 1278l2 82l234 86h29l-179 -1016h-110l155 885z" />
<glyph unicode="&#xbe;" horiz-adv-x="2275" d="M1452 205l16 92l576 709h110l-122 -699h157l-18 -102h-158l-35 -205h-108l35 205h-453zM592 1446q132 0 193 -66t40 -176q-17 -95 -74.5 -157t-136.5 -74q196 -35 154 -268q-25 -139 -120.5 -214t-244.5 -75q-119 0 -193.5 46.5t-103.5 125.5l101 53q61 -123 211 -123 q91 0 155.5 50.5t81.5 140.5q18 102 -30.5 157.5t-161.5 55.5h-55l16 98h55q95 0 155.5 46.5t74.5 123.5q12 73 -24.5 114.5t-113.5 41.5q-124 0 -223 -119l-78 57q121 162 322 162zM1903 1497l-1135 -1567h-125l1135 1567h125zM1593 307h330l92 524z" />
<glyph unicode="&#xbf;" horiz-adv-x="905" d="M485 903q8 44 39 72.5t78 28.5q46 0 67 -29t13 -72q-6 -41 -37.5 -67.5t-77.5 -26.5q-47 0 -67.5 26t-14.5 68zM334 -371q-49 0 -90.5 14.5t-73 43.5t-44 77.5t-1.5 110.5q10 59 38.5 107t66.5 82.5t82.5 68.5t90 74.5t86.5 90t74.5 126t50.5 172.5l17 94h-127l-19 -98 q-13 -76 -45 -138.5t-73 -106.5t-88.5 -83.5t-94.5 -78t-87.5 -81.5t-72 -103.5t-44.5 -133.5q-30 -170 58 -267.5t263 -97.5q126 0 238.5 50t187.5 133l-84 86q-55 -64 -140 -103t-169 -39z" />
<glyph unicode="&#xc0;" horiz-adv-x="1249" d="M1008 0l-76 399h-617l-213 -399h-145l776 1434h139l279 -1434h-143zM770 1253l-391 -731h528zM899 1591h-80l-203 338h164z" />
<glyph unicode="&#xc1;" horiz-adv-x="1249" d="M1008 0l-76 399h-617l-213 -399h-145l776 1434h139l279 -1434h-143zM770 1253l-391 -731h528zM879 1595h-80l235 338h185z" />
<glyph unicode="&#xc2;" horiz-adv-x="1249" d="M1008 0l-76 399h-617l-213 -399h-145l776 1434h139l279 -1434h-143zM770 1253l-391 -731h528zM834 1888h106l207 -260l-64 -47l-215 201l-284 -201l-47 47z" />
<glyph unicode="&#xc3;" horiz-adv-x="1249" d="M1008 0l-76 399h-617l-213 -399h-145l776 1434h139l279 -1434h-143zM770 1253l-391 -731h528zM1051 1829h98q-16 -88 -64 -143.5t-116 -55.5q-38 0 -81.5 22t-80 44t-59.5 22q-27 0 -47.5 -25.5t-26.5 -64.5h-99q14 85 63 140t120 55q42 0 87 -23.5t80.5 -47t55.5 -23.5 q53 0 70 100z" />
<glyph unicode="&#xc4;" horiz-adv-x="1249" d="M1008 0l-76 399h-617l-213 -399h-145l776 1434h139l279 -1434h-143zM770 1253l-391 -731h528zM586 1751q8 42 39 70t75 28q45 0 65.5 -28t12.5 -70q-6 -40 -36 -66t-76 -26q-44 0 -65 26t-15 66zM942 1751q8 42 39 70t76 28q44 0 65 -28.5t13 -69.5q-6 -39 -37 -65.5 t-76 -26.5t-65.5 26t-14.5 66z" />
<glyph unicode="&#xc5;" horiz-adv-x="1249" d="M1008 0l-76 399h-617l-213 -399h-145l776 1434h139l279 -1434h-143zM770 1253l-391 -731h528zM1100 1774q-16 -91 -86.5 -147t-184.5 -56q-112 0 -163 56t-35 147q14 83 85.5 138.5t182.5 55.5q113 0 165 -54.5t36 -139.5zM741 1774q-9 -55 17 -87t86 -32t98 32t47 87 q9 52 -17.5 82t-86.5 30t-97.5 -30t-46.5 -82z" />
<glyph unicode="&#xc6;" horiz-adv-x="1830" d="M836 0l63 362h-561l-279 -362h-151l1112 1434h887l-23 -125h-682l-90 -516h422l-23 -125h-421l-97 -543h701l-21 -125h-837zM920 485l145 820l-633 -820h488z" />
<glyph unicode="&#xc7;" horiz-adv-x="1314" d="M565 -197l86 179q-136 8 -239 59t-170.5 147.5t-86.5 239t13 332.5q30 170 100.5 303t170 217.5t222 128t261.5 43.5q94 0 168.5 -17t128 -50.5t90.5 -71t73 -90.5l-116 -86q-69 98 -148.5 144t-199.5 46q-229 0 -392 -153.5t-213 -438.5q-55 -309 52.5 -470t334.5 -161 q127 0 222 45.5t202 131.5l82 -82q-44 -42 -83.5 -72t-96.5 -64.5t-127 -55t-149 -25.5l-52 -107q6 2 27 2q61 0 104.5 -40t30.5 -111q-12 -64 -54.5 -106.5t-95.5 -59.5t-116 -17q-104 0 -176 33l35 88q63 -29 149 -29q123 0 137 82q7 45 -16 65.5t-74 20.5h-84z" />
<glyph unicode="&#xc8;" horiz-adv-x="1112" d="M131 0l252 1434h801l-23 -125h-665l-90 -516h446l-23 -125h-446l-96 -543h686l-21 -125h-821zM893 1591h-80l-203 338h164z" />
<glyph unicode="&#xc9;" horiz-adv-x="1112" d="M131 0l252 1434h801l-23 -125h-665l-90 -516h446l-23 -125h-446l-96 -543h686l-21 -125h-821zM872 1595h-79l235 338h184z" />
<glyph unicode="&#xca;" horiz-adv-x="1112" d="M131 0l252 1434h801l-23 -125h-665l-90 -516h446l-23 -125h-446l-96 -543h686l-21 -125h-821zM827 1888h107l207 -260l-64 -47l-215 201l-284 -201l-48 47z" />
<glyph unicode="&#xcb;" horiz-adv-x="1112" d="M131 0l252 1434h801l-23 -125h-665l-90 -516h446l-23 -125h-446l-96 -543h686l-21 -125h-821zM580 1751q8 42 39 70t75 28q45 0 65.5 -28t12.5 -70q-6 -40 -36.5 -66t-76.5 -26q-44 0 -64.5 26t-14.5 66zM936 1751q8 42 39 70t76 28q44 0 64.5 -28t12.5 -70 q-6 -39 -36.5 -65.5t-75.5 -26.5t-65.5 26t-14.5 66z" />
<glyph unicode="&#xcc;" horiz-adv-x="540" d="M129 0l252 1434h135l-252 -1434h-135zM549 1591h-80l-203 338h164z" />
<glyph unicode="&#xcd;" horiz-adv-x="540" d="M129 0l252 1434h135l-252 -1434h-135zM526 1595h-80l236 338h184z" />
<glyph unicode="&#xce;" horiz-adv-x="540" d="M129 0l252 1434h135l-252 -1434h-135zM483 1888h107l207 -260l-64 -47l-215 201l-285 -201l-47 47z" />
<glyph unicode="&#xcf;" horiz-adv-x="540" d="M129 0l252 1434h135l-252 -1434h-135zM236 1751q8 42 39 70t75 28q45 0 65.5 -28t12.5 -70q-6 -40 -36.5 -66t-76.5 -26q-44 0 -64.5 26t-14.5 66zM592 1751q8 42 39 70t76 28q44 0 64.5 -28t12.5 -70q-6 -39 -36.5 -65.5t-75.5 -26.5t-65.5 26t-14.5 66z" />
<glyph unicode="&#xd0;" horiz-adv-x="1366" d="M131 0l111 637h-125l22 125h125l119 672h279q155 0 275.5 -37.5t197.5 -106t123 -163.5t52.5 -210t-14.5 -247q-26 -149 -93.5 -271t-171.5 -211.5t-251 -138.5t-325 -49h-324zM707 637h-330l-90 -512h153q161 0 287 43.5t210 124t135.5 185.5t74.5 237q16 103 11.5 193 t-40 164t-95.5 126.5t-155 81.5t-219 29h-153l-97 -547h330z" />
<glyph unicode="&#xd1;" horiz-adv-x="1486" d="M381 1434h201l528 -1258l217 1258h137l-221 -1266l-31 -168h-172l-548 1292l-228 -1292h-135zM1169 1829h99q-16 -88 -64 -143.5t-117 -55.5q-38 0 -81.5 22t-80 44t-59.5 22q-27 0 -47 -25.5t-26 -64.5h-99q14 85 63 140t120 55q42 0 87 -23.5t80.5 -47t55.5 -23.5 q52 0 69 100z" />
<glyph unicode="&#xd2;" horiz-adv-x="1480" d="M1417 688q-59 -327 -253.5 -517.5t-477.5 -190.5q-308 0 -445.5 206t-72.5 559q59 326 252.5 516.5t476.5 190.5q204 0 336.5 -94.5t179 -266.5t4.5 -403zM313 723q-27 -139 -15 -253t56 -195.5t128 -126t202 -44.5q155 0 278 77.5t199.5 213t108.5 316.5 q17 106 15.5 199t-28.5 170t-73.5 131.5t-119.5 85t-167 30.5q-154 0 -277.5 -79.5t-199.5 -214t-107 -310.5zM1022 1591h-80l-203 338h164z" />
<glyph unicode="&#xd3;" horiz-adv-x="1480" d="M1417 688q-59 -327 -253.5 -517.5t-477.5 -190.5q-308 0 -445.5 206t-72.5 559q59 326 252.5 516.5t476.5 190.5q204 0 336.5 -94.5t179 -266.5t4.5 -403zM313 723q-27 -139 -15 -253t56 -195.5t128 -126t202 -44.5q155 0 278 77.5t199.5 213t108.5 316.5 q17 106 15.5 199t-28.5 170t-73.5 131.5t-119.5 85t-167 30.5q-154 0 -277.5 -79.5t-199.5 -214t-107 -310.5zM999 1595h-79l235 338h184z" />
<glyph unicode="&#xd4;" horiz-adv-x="1480" d="M1417 688q-59 -327 -253.5 -517.5t-477.5 -190.5q-308 0 -445.5 206t-72.5 559q59 326 252.5 516.5t476.5 190.5q204 0 336.5 -94.5t179 -266.5t4.5 -403zM313 723q-27 -139 -15 -253t56 -195.5t128 -126t202 -44.5q155 0 278 77.5t199.5 213t108.5 316.5 q17 106 15.5 199t-28.5 170t-73.5 131.5t-119.5 85t-167 30.5q-154 0 -277.5 -79.5t-199.5 -214t-107 -310.5zM954 1888h107l207 -260l-64 -47l-215 201l-284 -201l-48 47z" />
<glyph unicode="&#xd5;" horiz-adv-x="1480" d="M1417 688q-59 -327 -253.5 -517.5t-477.5 -190.5q-308 0 -445.5 206t-72.5 559q59 326 252.5 516.5t476.5 190.5q204 0 336.5 -94.5t179 -266.5t4.5 -403zM313 723q-27 -139 -15 -253t56 -195.5t128 -126t202 -44.5q155 0 278 77.5t199.5 213t108.5 316.5 q17 106 15.5 199t-28.5 170t-73.5 131.5t-119.5 85t-167 30.5q-154 0 -277.5 -79.5t-199.5 -214t-107 -310.5zM1198 1829h98q-16 -88 -64 -143.5t-116 -55.5q-38 0 -81.5 22t-80 44t-59.5 22q-27 0 -47.5 -25.5t-26.5 -64.5h-98q14 85 62.5 140t119.5 55q42 0 87 -23.5 t80.5 -47t55.5 -23.5q53 0 70 100z" />
<glyph unicode="&#xd6;" horiz-adv-x="1480" d="M1417 688q-59 -327 -253.5 -517.5t-477.5 -190.5q-308 0 -445.5 206t-72.5 559q59 326 252.5 516.5t476.5 190.5q204 0 336.5 -94.5t179 -266.5t4.5 -403zM313 723q-27 -139 -15 -253t56 -195.5t128 -126t202 -44.5q155 0 278 77.5t199.5 213t108.5 316.5 q17 106 15.5 199t-28.5 170t-73.5 131.5t-119.5 85t-167 30.5q-154 0 -277.5 -79.5t-199.5 -214t-107 -310.5zM707 1751q8 42 39 70t75 28q45 0 65.5 -28t12.5 -70q-6 -40 -36.5 -66t-76.5 -26q-44 0 -64.5 26t-14.5 66zM1063 1751q8 42 39 70t76 28q44 0 64.5 -28t12.5 -70 q-6 -39 -36.5 -65.5t-75.5 -26.5t-65.5 26t-14.5 66z" />
<glyph unicode="&#xd7;" horiz-adv-x="899" d="M326 1057l192 -236l277 236l67 -78l-276 -236l192 -235l-92 -78l-194 234l-275 -234l-65 80l276 233l-192 234z" />
<glyph unicode="&#xd8;" horiz-adv-x="1480" d="M264 -96h-147l168 223q-93 101 -123.5 257.5t6.5 360.5q59 326 252.5 516.5t476.5 190.5q194 0 324 -88l114 152h148l-174 -230q177 -201 108 -598q-59 -327 -253.5 -517.5t-477.5 -190.5q-187 0 -309 73zM313 723q-56 -312 60 -479l764 1009q-96 74 -240 74 q-154 0 -277.5 -79.5t-199.5 -214t-107 -310.5zM1270 711q49 286 -51 454l-760 -1003q92 -58 225 -58q155 0 278 77.5t199.5 213t108.5 316.5z" />
<glyph unicode="&#xd9;" horiz-adv-x="1353" d="M1044 522l162 912h137l-161 -914q-47 -268 -191 -403t-370 -135q-248 0 -358 135.5t-58 402.5l162 914h135l-162 -912q-34 -198 33.5 -307t247.5 -109q181 0 285 109t138 307zM946 1591h-80l-202 338h163z" />
<glyph unicode="&#xda;" horiz-adv-x="1353" d="M1044 522l162 912h137l-161 -914q-47 -268 -191 -403t-370 -135q-248 0 -358 135.5t-58 402.5l162 914h135l-162 -912q-34 -198 33.5 -307t247.5 -109q181 0 285 109t138 307zM930 1595h-80l235 338h185z" />
<glyph unicode="&#xdb;" horiz-adv-x="1353" d="M1044 522l162 912h137l-161 -914q-47 -268 -191 -403t-370 -135q-248 0 -358 135.5t-58 402.5l162 914h135l-162 -912q-34 -198 33.5 -307t247.5 -109q181 0 285 109t138 307zM885 1888h106l207 -260l-63 -47l-215 201l-285 -201l-47 47z" />
<glyph unicode="&#xdc;" horiz-adv-x="1353" d="M1044 522l162 912h137l-161 -914q-47 -268 -191 -403t-370 -135q-248 0 -358 135.5t-58 402.5l162 914h135l-162 -912q-34 -198 33.5 -307t247.5 -109q181 0 285 109t138 307zM637 1751q8 41 39.5 69.5t75.5 28.5q45 0 65 -28t12 -70q-6 -40 -36 -66t-76 -26 q-44 0 -65 26t-15 66zM993 1751q8 42 39 70t76 28q44 0 65 -28.5t13 -69.5q-6 -39 -37 -65.5t-76 -26.5t-65.5 26t-14.5 66z" />
<glyph unicode="&#xdd;" horiz-adv-x="1179" d="M680 555l-96 -555h-135l96 555l-326 879h129l275 -764l546 764h148zM846 1593h-80l235 338h185z" />
<glyph unicode="&#xde;" horiz-adv-x="1142" d="M1059 483q-18 -102 -60.5 -193.5t-106.5 -165t-155.5 -116.5t-197.5 -43q-195 0 -273 84l-69 -397h-127l295 1681h127l-74 -418q109 86 301 86q72 0 131.5 -20t99 -55.5t68.5 -84t40 -106t13 -121.5t-12 -131zM915 483q12 65 13 122t-12 110.5t-41 91.5t-79 61t-122 23 q-175 0 -281 -115l-102 -590q30 -47 92.5 -78.5t144.5 -31.5q71 0 131 23t101.5 60.5t73 91t50.5 110t31 122.5z" />
<glyph unicode="&#xdf;" horiz-adv-x="1161" d="M426 1122l-197 -1122h-135l195 1114q37 204 159 314t324 110q198 0 283 -102.5t55 -272.5q-26 -138 -102.5 -228.5t-176.5 -109.5q58 -11 104 -38t81 -76t45 -119.5t-4 -167.5q-37 -208 -170.5 -316t-351.5 -108h-187l19 115h186q154 0 240 74t116 243q31 176 -35 250 t-227 74h-164l19 112h164q120 0 199.5 78t103.5 211q23 127 -32 193.5t-183 66.5q-144 0 -223.5 -79.5t-104.5 -215.5z" />
<glyph unicode="&#xe0;" d="M119 508q43 243 179 368t323 125q237 0 305 -184l28 162h125l-172 -979h-108l14 172q-126 -192 -346 -192q-95 0 -168.5 30.5t-124 94.5t-64.5 164t9 239zM479 94q73 0 134.5 25t101.5 63t71.5 89.5t48.5 96.5t27 93l8 43q5 40 5 78.5t-5.5 84t-22.5 83t-44 69.5 t-72.5 50t-105.5 18q-139 0 -237.5 -99.5t-135.5 -304.5q-68 -389 227 -389zM725 1137h-80l-203 338h164z" />
<glyph unicode="&#xe1;" d="M119 508q43 243 179 368t323 125q237 0 305 -184l28 162h125l-172 -979h-108l14 172q-126 -192 -346 -192q-95 0 -168.5 30.5t-124 94.5t-64.5 164t9 239zM479 94q73 0 134.5 25t101.5 63t71.5 89.5t48.5 96.5t27 93l8 43q5 40 5 78.5t-5.5 84t-22.5 83t-44 69.5 t-72.5 50t-105.5 18q-139 0 -237.5 -99.5t-135.5 -304.5q-68 -389 227 -389zM707 1141h-80l235 338h185z" />
<glyph unicode="&#xe2;" d="M119 508q43 243 179 368t323 125q237 0 305 -184l28 162h125l-172 -979h-108l14 172q-126 -192 -346 -192q-95 0 -168.5 30.5t-124 94.5t-64.5 164t9 239zM479 94q73 0 134.5 25t101.5 63t71.5 89.5t48.5 96.5t27 93l8 43q5 40 5 78.5t-5.5 84t-22.5 83t-44 69.5 t-72.5 50t-105.5 18q-139 0 -237.5 -99.5t-135.5 -304.5q-68 -389 227 -389zM662 1434h106l207 -260l-66 -48l-213 201l-286 -201l-45 48z" />
<glyph unicode="&#xe3;" d="M119 508q43 243 179 368t323 125q237 0 305 -184l28 162h125l-172 -979h-108l14 172q-126 -192 -346 -192q-95 0 -168.5 30.5t-124 94.5t-64.5 164t9 239zM479 94q73 0 134.5 25t101.5 63t71.5 89.5t48.5 96.5t27 93l8 43q5 40 5 78.5t-5.5 84t-22.5 83t-44 69.5 t-72.5 50t-105.5 18q-139 0 -237.5 -99.5t-135.5 -304.5q-68 -389 227 -389zM879 1374h98q-16 -88 -63.5 -143t-116.5 -55q-38 0 -81.5 22t-80.5 44t-60 22q-27 0 -47 -25.5t-26 -64.5h-99q14 85 63 139.5t120 54.5q42 0 87 -23.5t80.5 -47t55.5 -23.5q53 0 70 100z" />
<glyph unicode="&#xe4;" d="M119 508q43 243 179 368t323 125q237 0 305 -184l28 162h125l-172 -979h-108l14 172q-126 -192 -346 -192q-95 0 -168.5 30.5t-124 94.5t-64.5 164t9 239zM479 94q73 0 134.5 25t101.5 63t71.5 89.5t48.5 96.5t27 93l8 43q5 40 5 78.5t-5.5 84t-22.5 83t-44 69.5 t-72.5 50t-105.5 18q-139 0 -237.5 -99.5t-135.5 -304.5q-68 -389 227 -389zM414 1296q8 42 39 70.5t75 28.5q45 0 65.5 -28.5t12.5 -70.5q-6 -40 -36 -66t-76 -26q-44 0 -65 26t-15 66zM770 1296q8 42 39 70.5t76 28.5q44 0 65 -29t13 -70q-6 -39 -37 -65.5t-76 -26.5 t-65.5 26t-14.5 66z" />
<glyph unicode="&#xe5;" d="M119 508q43 243 179 368t323 125q237 0 305 -184l28 162h125l-172 -979h-108l14 172q-126 -192 -346 -192q-95 0 -168.5 30.5t-124 94.5t-64.5 164t9 239zM479 94q73 0 134.5 25t101.5 63t71.5 89.5t48.5 96.5t27 93l8 43q5 40 5 78.5t-5.5 84t-22.5 83t-44 69.5 t-72.5 50t-105.5 18q-139 0 -237.5 -99.5t-135.5 -304.5q-68 -389 227 -389zM928 1319q-16 -91 -86.5 -147t-184.5 -56q-112 0 -163 56t-35 147q14 83 85.5 138.5t182.5 55.5q113 0 164 -54t37 -140zM569 1319q-9 -55 17 -87t86 -32t98 32t47 87q9 52 -17.5 82.5t-86.5 30.5 t-97.5 -30.5t-46.5 -82.5z" />
<glyph unicode="&#xe6;" horiz-adv-x="1683" d="M1262 1001q411 0 325 -497l-10 -62h-696q-21 -175 45 -262.5t204 -87.5q97 0 184 38t148 93l66 -76q-82 -75 -180.5 -121t-237.5 -46q-267 0 -344 194q-141 -197 -444 -197q-144 0 -218 72.5t-51 202.5q53 299 457 299h258l10 63q8 44 8.5 81t-6.5 64.5t-18.5 48.5 t-29 35t-37 24t-44 15t-47 7t-49.5 2q-139 0 -307 -64l20 123q132 51 312 51q268 0 319 -170q142 170 363 170zM365 90q311 0 366 250l14 82q0 8 3 20h-256q-136 0 -213.5 -47t-92.5 -137q-9 -47 3 -81t40.5 -52.5t62 -26.5t73.5 -8zM1241 889q-125 0 -214.5 -88.5 t-127.5 -247.5h565q43 336 -223 336z" />
<glyph unicode="&#xe7;" horiz-adv-x="980" d="M338 -190l84 172q-185 15 -264 145.5t-39 357.5q43 242 182.5 379t351.5 137q200 0 318 -141l-105 -82q-30 28 -37 34.5t-34 27t-44.5 27t-48.5 13.5t-65 7q-156 0 -252.5 -107.5t-130.5 -292.5q-33 -188 28.5 -290.5t215.5 -102.5q63 0 122 20t92.5 41.5t84.5 59.5 l69 -82q-167 -138 -346 -151l-49 -101q6 2 27 2q61 0 104.5 -40t30.5 -111q-11 -64 -53 -106.5t-95 -59.5t-116 -17q-108 0 -176 33l32 88q64 -28 152 -28q123 0 137 82q7 44 -17 65t-75 21h-84z" />
<glyph unicode="&#xe8;" horiz-adv-x="1048" d="M627 1001q411 0 325 -497l-10 -62h-696q-21 -174 45 -262t205 -88q97 0 183.5 38t147.5 93l66 -76q-82 -75 -180.5 -121t-237.5 -46q-63 0 -116 11.5t-99.5 37t-78.5 65.5t-52.5 96.5t-21.5 130.5t14 168q44 254 182.5 383t323.5 129zM606 889q-125 0 -214.5 -88.5 t-127.5 -247.5h565q43 336 -223 336zM719 1137h-80l-203 338h164z" />
<glyph unicode="&#xe9;" horiz-adv-x="1048" d="M627 1001q411 0 325 -497l-10 -62h-696q-21 -174 45 -262t205 -88q97 0 183.5 38t147.5 93l66 -76q-82 -75 -180.5 -121t-237.5 -46q-63 0 -116 11.5t-99.5 37t-78.5 65.5t-52.5 96.5t-21.5 130.5t14 168q44 254 182.5 383t323.5 129zM606 889q-125 0 -214.5 -88.5 t-127.5 -247.5h565q43 336 -223 336zM698 1141h-80l236 338h184z" />
<glyph unicode="&#xea;" horiz-adv-x="1048" d="M627 1001q411 0 325 -497l-10 -62h-696q-21 -174 45 -262t205 -88q97 0 183.5 38t147.5 93l66 -76q-82 -75 -180.5 -121t-237.5 -46q-63 0 -116 11.5t-99.5 37t-78.5 65.5t-52.5 96.5t-21.5 130.5t14 168q44 254 182.5 383t323.5 129zM606 889q-125 0 -214.5 -88.5 t-127.5 -247.5h565q43 336 -223 336zM653 1434h107l207 -260l-66 -48l-213 201l-287 -201l-45 48z" />
<glyph unicode="&#xeb;" horiz-adv-x="1048" d="M627 1001q411 0 325 -497l-10 -62h-696q-21 -174 45 -262t205 -88q97 0 183.5 38t147.5 93l66 -76q-82 -75 -180.5 -121t-237.5 -46q-63 0 -116 11.5t-99.5 37t-78.5 65.5t-52.5 96.5t-21.5 130.5t14 168q44 254 182.5 383t323.5 129zM606 889q-125 0 -214.5 -88.5 t-127.5 -247.5h565q43 336 -223 336zM406 1296q8 42 39 70.5t75 28.5q45 0 65.5 -28.5t12.5 -70.5q-6 -40 -36.5 -66t-76.5 -26q-44 0 -64.5 26t-14.5 66zM762 1296q8 42 39 70.5t76 28.5q44 0 64.5 -28.5t12.5 -70.5q-6 -39 -36.5 -65.5t-75.5 -26.5t-65.5 26t-14.5 66z " />
<glyph unicode="&#xec;" horiz-adv-x="454" d="M94 0l172 979h125l-172 -979h-125zM416 1137h-80l-203 338h164z" />
<glyph unicode="&#xed;" horiz-adv-x="454" d="M94 0l172 979h125l-172 -979h-125zM397 1141h-80l236 338h184z" />
<glyph unicode="&#xee;" horiz-adv-x="454" d="M94 0l172 979h125l-172 -979h-125zM352 1434h107l207 -260l-66 -48l-213 201l-287 -201l-45 48z" />
<glyph unicode="&#xef;" horiz-adv-x="454" d="M94 0l172 979h125l-172 -979h-125zM104 1296q8 42 39.5 70.5t75.5 28.5q45 0 65.5 -28.5t12.5 -70.5q-6 -40 -36.5 -66t-76.5 -26q-44 0 -65 26t-15 66zM461 1296q8 42 38.5 70.5t75.5 28.5q44 0 65 -29t13 -70q-6 -39 -36.5 -65.5t-75.5 -26.5t-65.5 26t-14.5 66z" />
<glyph unicode="&#xf0;" horiz-adv-x="1212" d="M1026 1468l-133 -116q146 -127 211.5 -314t23.5 -434q-51 -284 -212.5 -454t-405.5 -170q-102 0 -183.5 31.5t-136 91t-75 152t-0.5 208.5q40 227 196.5 352t368.5 125q197 0 321 -100q-31 255 -215 417l-174 -151l-73 88l155 135q-101 64 -241 107l61 114 q167 -48 287 -129l149 131zM995 594q2 15 6 43t5 39q-148 151 -340 151q-164 0 -276 -101t-140 -261q-30 -165 49.5 -269t230.5 -104q93 0 173.5 41t138 112t96.5 159.5t57 189.5z" />
<glyph unicode="&#xf1;" horiz-adv-x="1081" d="M391 979l-33 -178q37 87 136 143.5t215 56.5q147 0 217.5 -91.5t40.5 -268.5l-113 -641h-125l109 618q23 129 -26 199t-153 70q-53 0 -103 -16t-98 -50t-84 -95.5t-52 -143.5l-103 -582h-125l172 979h125zM901 1374h98q-16 -88 -63.5 -143t-116.5 -55q-38 0 -81.5 22 t-80 44t-59.5 22q-27 0 -47.5 -25.5t-26.5 -64.5h-98q14 85 62.5 139.5t119.5 54.5q42 0 87 -23.5t80.5 -47t55.5 -23.5q53 0 70 100z" />
<glyph unicode="&#xf2;" horiz-adv-x="1128" d="M1034 498q-42 -244 -188.5 -381t-360.5 -137q-212 0 -310 137t-56 381q43 242 190 372.5t357 130.5q212 0 311.5 -130t56.5 -373zM254 498q-33 -184 34 -292t218 -108q153 0 256.5 107.5t136.5 292.5q32 183 -34.5 284t-221.5 101q-152 0 -254.5 -101t-134.5 -284z M756 1137h-80l-203 338h164z" />
<glyph unicode="&#xf3;" horiz-adv-x="1128" d="M1034 498q-42 -244 -188.5 -381t-360.5 -137q-212 0 -310 137t-56 381q43 242 190 372.5t357 130.5q212 0 311.5 -130t56.5 -373zM254 498q-33 -184 34 -292t218 -108q153 0 256.5 107.5t136.5 292.5q32 183 -34.5 284t-221.5 101q-152 0 -254.5 -101t-134.5 -284z M737 1141h-80l236 338h184z" />
<glyph unicode="&#xf4;" horiz-adv-x="1128" d="M1034 498q-42 -244 -188.5 -381t-360.5 -137q-212 0 -310 137t-56 381q43 242 190 372.5t357 130.5q212 0 311.5 -130t56.5 -373zM254 498q-33 -184 34 -292t218 -108q153 0 256.5 107.5t136.5 292.5q32 183 -34.5 284t-221.5 101q-152 0 -254.5 -101t-134.5 -284z M694 1434h107l207 -260l-66 -48l-213 201l-287 -201l-45 48z" />
<glyph unicode="&#xf5;" horiz-adv-x="1128" d="M1034 498q-42 -244 -188.5 -381t-360.5 -137q-212 0 -310 137t-56 381q43 242 190 372.5t357 130.5q212 0 311.5 -130t56.5 -373zM254 498q-33 -184 34 -292t218 -108q153 0 256.5 107.5t136.5 292.5q32 183 -34.5 284t-221.5 101q-152 0 -254.5 -101t-134.5 -284z M905 1374h99q-15 -87 -63.5 -142.5t-117.5 -55.5q-38 0 -81.5 22t-80 44t-59.5 22q-27 0 -47.5 -25.5t-26.5 -64.5h-98q14 85 62.5 139.5t119.5 54.5q42 0 87 -23.5t81 -47t56 -23.5q52 0 69 100z" />
<glyph unicode="&#xf6;" horiz-adv-x="1128" d="M1034 498q-42 -244 -188.5 -381t-360.5 -137q-212 0 -310 137t-56 381q43 242 190 372.5t357 130.5q212 0 311.5 -130t56.5 -373zM254 498q-33 -184 34 -292t218 -108q153 0 256.5 107.5t136.5 292.5q32 183 -34.5 284t-221.5 101q-152 0 -254.5 -101t-134.5 -284z M444 1296q8 42 39.5 70.5t75.5 28.5q45 0 65.5 -28.5t12.5 -70.5q-6 -40 -36.5 -66t-76.5 -26q-44 0 -65 26t-15 66zM801 1296q8 42 38.5 70.5t75.5 28.5q44 0 65 -29t13 -70q-6 -39 -36.5 -65.5t-75.5 -26.5t-65.5 26t-14.5 66z" />
<glyph unicode="&#xf7;" horiz-adv-x="1042" d="M883 330h-754l21 116h753zM354 70q8 40 38.5 68t74.5 28t64 -28t12 -68q-6 -40 -35.5 -65t-73.5 -25t-65 25t-15 65zM467 705q8 41 37.5 68.5t73.5 27.5t64.5 -28t12.5 -68q-6 -40 -36 -65.5t-74 -25.5t-64 25.5t-14 65.5z" />
<glyph unicode="&#xf8;" horiz-adv-x="1128" d="M211 -84h-131l123 164q-133 139 -84 418q43 242 190 372.5t357 130.5q117 0 202 -43l76 101h131l-123 -162q130 -133 82 -399q-42 -244 -188.5 -381t-360.5 -137q-112 0 -196 38zM254 498q-34 -187 41 -299l491 653q-57 31 -143 31q-152 0 -254.5 -101t-134.5 -284z M899 498q34 181 -33 284l-495 -655q60 -29 135 -29q153 0 256.5 107.5t136.5 292.5z" />
<glyph unicode="&#xf9;" horiz-adv-x="1079" d="M256 979h125l-113 -631q-20 -115 25.5 -183.5t163.5 -68.5q53 0 102 15.5t96.5 49t82.5 95t50 145.5l103 578h123l-172 -979h-101l27 178q-37 -85 -141 -140.5t-224 -55.5q-64 0 -116 19t-92.5 58t-56 107t0.5 158zM707 1137h-80l-203 338h164z" />
<glyph unicode="&#xfa;" horiz-adv-x="1079" d="M256 979h125l-113 -631q-20 -115 25.5 -183.5t163.5 -68.5q53 0 102 15.5t96.5 49t82.5 95t50 145.5l103 578h123l-172 -979h-101l27 178q-37 -85 -141 -140.5t-224 -55.5q-64 0 -116 19t-92.5 58t-56 107t0.5 158zM688 1141h-80l236 338h184z" />
<glyph unicode="&#xfb;" horiz-adv-x="1079" d="M256 979h125l-113 -631q-20 -115 25.5 -183.5t163.5 -68.5q53 0 102 15.5t96.5 49t82.5 95t50 145.5l103 578h123l-172 -979h-101l27 178q-37 -85 -141 -140.5t-224 -55.5q-64 0 -116 19t-92.5 58t-56 107t0.5 158zM664 1434h106l207 -260l-66 -48l-213 201l-286 -201 l-45 48z" />
<glyph unicode="&#xfc;" horiz-adv-x="1079" d="M256 979h125l-113 -631q-20 -115 25.5 -183.5t163.5 -68.5q53 0 102 15.5t96.5 49t82.5 95t50 145.5l103 578h123l-172 -979h-101l27 178q-37 -85 -141 -140.5t-224 -55.5q-64 0 -116 19t-92.5 58t-56 107t0.5 158zM414 1296q8 42 39 70.5t75 28.5q45 0 65.5 -28.5 t12.5 -70.5q-6 -40 -36 -66t-76 -26q-44 0 -65 26t-15 66zM770 1296q8 42 39 70.5t76 28.5q44 0 65 -29t13 -70q-6 -39 -37 -65.5t-76 -26.5t-65.5 26t-14.5 66z" />
<glyph unicode="&#xfd;" horiz-adv-x="989" d="M301 979l148 -823l446 823h137l-545 -979l-49 -92q-56 -105 -107.5 -174.5t-102.5 -109t-99.5 -55t-108.5 -15.5q-33 0 -69 8l29 112q21 -8 57 -8q34 0 62.5 8.5t66 33.5t78.5 80.5t84 139.5l39 72h-11l-192 979h137zM670 1141h-80l235 338h185z" />
<glyph unicode="&#xfe;" horiz-adv-x="1161" d="M1067 496q-43 -251 -180 -383.5t-334 -132.5q-235 0 -303 186l-107 -600h-127l312 1767h127l-90 -516q134 184 372 184q194 0 283.5 -128t46.5 -377zM696 887q-133 0 -235.5 -86.5t-143.5 -249.5l-20 -117q-14 -166 60 -253t204 -87q140 0 239 103t132 292 q32 188 -29 293t-207 105z" />
<glyph unicode="&#xff;" horiz-adv-x="989" d="M301 979l148 -823l446 823h137l-545 -979l-49 -92q-56 -105 -107.5 -174.5t-102.5 -109t-99.5 -55t-108.5 -15.5q-33 0 -69 8l29 112q21 -8 57 -8q34 0 62.5 8.5t66 33.5t78.5 80.5t84 139.5l39 72h-11l-192 979h137zM377 1296q8 42 39.5 70.5t75.5 28.5q45 0 65 -28.5 t12 -70.5q-6 -40 -36 -66t-76 -26q-44 0 -65 26t-15 66zM733 1296q8 42 39 70.5t76 28.5q44 0 65 -29t13 -70q-6 -39 -37 -65.5t-76 -26.5t-65.5 26t-14.5 66z" />
<glyph unicode="&#x152;" horiz-adv-x="1851" d="M862 0q-383 0 -569 192.5t-127 524.5q59 330 311.5 523t634.5 194h805l-23 -125h-665l-90 -516h512l-23 -125h-512l-96 -543h688l-20 -125h-826zM311 719q-49 -278 95 -436t477 -158l207 1184q-167 -1 -305 -45.5t-234 -124t-157 -186t-83 -234.5z" />
<glyph unicode="&#x153;" horiz-adv-x="1835" d="M1413 1001q412 0 326 -497l-10 -62h-697q-21 -174 45 -262t205 -88q97 0 184 38t148 93l65 -76q-82 -75 -180.5 -121t-236.5 -46q-130 0 -222 52.5t-127 162.5q-75 -104 -185 -159.5t-243 -55.5q-212 0 -310 137t-56 381q43 242 190 372.5t357 130.5q134 0 224 -54.5 t130 -158.5q72 106 174 159.5t219 53.5zM254 498q-33 -184 34 -292t218 -108q153 0 256.5 107.5t136.5 292.5q32 183 -34.5 284t-221.5 101q-152 0 -254.5 -101t-134.5 -284zM1393 889q-125 0 -214.5 -88.5t-127.5 -247.5h565q43 336 -223 336z" />
<glyph unicode="&#x178;" horiz-adv-x="1177" d="M680 555l-96 -555h-135l96 555l-326 879h129l275 -764l546 764h148zM555 1749q8 41 39.5 69.5t75.5 28.5q45 0 65.5 -28t12.5 -70q-6 -40 -36.5 -66t-76.5 -26q-44 0 -65 26t-15 66zM911 1749q8 42 39 70t76 28q44 0 65 -28.5t13 -69.5q-6 -39 -37 -65.5t-76 -26.5 t-65.5 26t-14.5 66z" />
<glyph unicode="&#x2c6;" horiz-adv-x="1705" d="M684 1376h107l206 -260l-63 -47l-215 201l-285 -201l-47 47z" />
<glyph unicode="&#x2dc;" horiz-adv-x="997" d="M813 1317h98q-16 -88 -64 -143.5t-116 -55.5q-38 0 -81.5 22t-80 44t-59.5 22q-27 0 -47.5 -25.5t-26.5 -64.5h-98q14 85 62.5 140t119.5 55q42 0 87 -23.5t80.5 -47t55.5 -23.5q53 0 70 100z" />
<glyph unicode="&#x2000;" horiz-adv-x="984" />
<glyph unicode="&#x2001;" horiz-adv-x="1968" />
<glyph unicode="&#x2002;" horiz-adv-x="984" />
<glyph unicode="&#x2003;" horiz-adv-x="1968" />
<glyph unicode="&#x2004;" horiz-adv-x="656" />
<glyph unicode="&#x2005;" horiz-adv-x="492" />
<glyph unicode="&#x2006;" horiz-adv-x="328" />
<glyph unicode="&#x2007;" horiz-adv-x="328" />
<glyph unicode="&#x2008;" horiz-adv-x="246" />
<glyph unicode="&#x2009;" horiz-adv-x="393" />
<glyph unicode="&#x200a;" horiz-adv-x="109" />
<glyph unicode="&#x2010;" horiz-adv-x="880" d="M760 555h-590l23 125h589z" />
<glyph unicode="&#x2011;" horiz-adv-x="880" d="M760 555h-590l23 125h589z" />
<glyph unicode="&#x2012;" horiz-adv-x="880" d="M760 555h-590l23 125h589z" />
<glyph unicode="&#x2013;" horiz-adv-x="880" d="M760 555h-590l23 125h589z" />
<glyph unicode="&#x2014;" horiz-adv-x="1232" d="M1126 524h-979l19 109h979z" />
<glyph unicode="&#x2018;" horiz-adv-x="446" d="M446 1194q-7 -42 -40 -69t-72 -27q-102 0 -80 127q16 90 86 174t158 143l43 -51q-75 -54 -126 -111t-57 -94q8 4 27 4q36 0 53 -23.5t8 -72.5z" />
<glyph unicode="&#x2019;" horiz-adv-x="446" d="M328 1440q7 42 41 69t73 27q102 0 80 -127q-16 -90 -86.5 -174t-159.5 -143l-40 51q74 53 124 110.5t58 94.5q-15 -5 -27 -5q-36 0 -53 24t-10 73z" />
<glyph unicode="&#x201a;" horiz-adv-x="471" d="M76 76q7 42 40 69t72 27q102 0 80 -127q-16 -91 -85.5 -175t-157.5 -142l-43 51q75 53 125.5 110.5t56.5 94.5q-8 -4 -25 -4q-36 0 -54 23.5t-9 72.5z" />
<glyph unicode="&#x201c;" horiz-adv-x="733" d="M446 1194q-7 -42 -40 -69t-72 -27q-102 0 -80 127q16 90 86 174t158 143l43 -51q-75 -54 -126 -111t-57 -94q8 4 27 4q36 0 53 -23.5t8 -72.5zM731 1194q-7 -42 -40.5 -69t-72.5 -27q-101 0 -79 127q16 91 85.5 175t157.5 142l43 -51q-75 -54 -125.5 -111t-56.5 -94 q8 4 27 4q36 0 53 -23.5t8 -72.5z" />
<glyph unicode="&#x201d;" horiz-adv-x="751" d="M328 1440q7 42 41 69t73 27q102 0 80 -127q-16 -90 -86.5 -174t-159.5 -143l-40 51q74 53 124 110.5t58 94.5q-15 -5 -27 -5q-36 0 -53 24t-10 73zM633 1440q7 42 41 69t74 27q101 0 79 -127q-16 -90 -86.5 -174t-158.5 -143l-41 51q74 53 124 110.5t58 94.5 q-15 -5 -27 -5q-36 0 -53 24t-10 73z" />
<glyph unicode="&#x201e;" horiz-adv-x="774" d="M76 76q7 42 40 69t72 27q102 0 80 -127q-16 -91 -85.5 -175t-157.5 -142l-43 51q75 53 125.5 110.5t56.5 94.5q-8 -4 -25 -4q-36 0 -54 23.5t-9 72.5zM379 76q7 42 40.5 69t72.5 27q101 0 79 -127q-16 -91 -85.5 -175t-157.5 -142l-43 51q75 53 125.5 110.5t56.5 94.5 q-8 -4 -25 -4q-36 0 -54 23.5t-9 72.5z" />
<glyph unicode="&#x2022;" horiz-adv-x="641" d="M244 719q9 55 50.5 93t102.5 38q60 0 88 -38t19 -93q-9 -54 -50 -88.5t-102 -34.5t-89 34.5t-19 88.5z" />
<glyph unicode="&#x2026;" horiz-adv-x="1476" d="M76 74q6 42 36.5 71t77.5 29q45 0 66.5 -29t15.5 -71q-8 -41 -38 -67.5t-76 -26.5q-48 0 -69 26.5t-13 67.5zM580 74q6 42 37.5 71t76.5 29q47 0 67.5 -28.5t14.5 -71.5q-8 -42 -37.5 -68t-76.5 -26q-46 0 -68 26.5t-14 67.5zM1085 74q6 42 37.5 71t77.5 29 q45 0 66.5 -29t15.5 -71q-8 -41 -38.5 -67.5t-76.5 -26.5t-68 26.5t-14 67.5z" />
<glyph unicode="&#x202f;" horiz-adv-x="393" />
<glyph unicode="&#x2039;" horiz-adv-x="600" d="M336 63l-227 449l380 430l82 -72l-323 -356l194 -377z" />
<glyph unicode="&#x203a;" horiz-adv-x="600" d="M528 512l-387 -449l-82 74l330 377l-201 356l111 72z" />
<glyph unicode="&#x205f;" horiz-adv-x="492" />
<glyph unicode="&#x20ac;" horiz-adv-x="1482" d="M840 -20q-257 0 -406 142.5t-149 420.5h-193l68 116h131q0 3 4 37t8 52h-172l66 114h131q52 192 161 326.5t253.5 199t316.5 64.5q94 0 168.5 -17t128.5 -50.5t91 -71t73 -90.5l-117 -86q-69 98 -148.5 144t-199.5 46q-202 0 -354 -120t-220 -345h576l-68 -114h-536 l-2 -13q-1 -10 -6.5 -36t-6.5 -40h451l-66 -116h-391q1 -217 109.5 -328t296.5 -111q127 0 222 45.5t202 131.5l81 -82q-48 -45 -89.5 -77t-105 -68t-141.5 -55t-167 -19z" />
<glyph unicode="&#x2122;" horiz-adv-x="1536" d="M1335 745l95 539l-295 -539h-58l-104 539l-94 -539h-91l121 689h123l103 -525l288 525h125l-121 -689h-92zM782 1434l-12 -72h-215l-109 -617h-92l109 617h-221l12 72h528z" />
<glyph unicode="&#x25fc;" horiz-adv-x="983" d="M0 983h983v-983h-983v983z" />
</font>
</defs>
</svg>
