<?xml version="1.0" standalone="no"?>
<!DOCTYPE svg PUBLIC "-//W3C//DTD SVG 1.1//EN" "http://www.w3.org/Graphics/SVG/1.1/DTD/svg11.dtd" >
<svg xmlns="http://www.w3.org/2000/svg">
<metadata></metadata>
<defs>
<font id="haboro_sansnorm_demi" horiz-adv-x="1077" >
<font-face units-per-em="2048" ascent="1638" descent="-410" />
<missing-glyph horiz-adv-x="473" />
<glyph horiz-adv-x="0" />
<glyph horiz-adv-x="682" />
<glyph horiz-adv-x="0" />
<glyph horiz-adv-x="0" />
<glyph unicode="&#xd;" horiz-adv-x="473" />
<glyph unicode=" "  horiz-adv-x="473" />
<glyph unicode="&#x09;" horiz-adv-x="473" />
<glyph unicode="&#xa0;" horiz-adv-x="473" />
<glyph unicode="!" horiz-adv-x="552" d="M375 367h-199l-29 1212h259zM141 111q0 59 35 98t100 39q64 0 101 -39.5t37 -97.5q0 -57 -37 -94t-101 -37q-65 0 -100 36.5t-35 94.5z" />
<glyph unicode="&#x22;" horiz-adv-x="825" d="M180 885l-86 549h273l-78 -549h-109zM543 885l-86 549h272l-78 -549h-108z" />
<glyph unicode="#" horiz-adv-x="1267" d="M1153 883h-188l-66 -334h168v-162h-201l-75 -387h-177l76 387h-233l-76 -387h-174l76 387h-181v162h211l66 334h-162v161h195l75 390h177l-78 -390h233l78 390h176l-78 -390h158v-161zM555 883l-66 -334h234l65 334h-233z" />
<glyph unicode="$" horiz-adv-x="1105" d="M600 -188h-160l6 172q-131 13 -232 66t-159 130l164 146q62 -68 134 -107t179 -39q122 0 195.5 58.5t73.5 150.5q0 64 -37.5 111t-97.5 77.5t-132.5 57.5t-145 61t-132.5 78.5t-97.5 119t-37.5 173.5q0 166 99.5 267t281.5 118l6 170h160l-6 -172q194 -22 337 -168 l-161 -139q-56 54 -114.5 82t-139.5 28q-106 0 -173 -48.5t-67 -133.5q0 -59 37.5 -103t97 -74t131.5 -58t144 -63.5t131.5 -81t97 -121t37.5 -173.5q0 -169 -112 -281t-302 -132z" />
<glyph unicode="%" horiz-adv-x="1863" d="M561 -47h-207l942 1515h207zM768 1102q0 -163 -97.5 -260t-254.5 -97q-158 0 -255.5 97t-97.5 260t97.5 258.5t255.5 95.5q157 0 254.5 -96t97.5 -258zM596 1102q0 92 -49.5 145t-130.5 53q-83 0 -131.5 -52.5t-48.5 -145.5t49 -146t131 -53q81 0 130.5 53.5t49.5 145.5z M1800 340q0 -162 -97.5 -258t-254.5 -96q-158 0 -255 95.5t-97 258.5q0 164 97 260t255 96q157 0 254.5 -96t97.5 -260zM1628 340q0 92 -49.5 145.5t-130.5 53.5q-82 0 -131 -53t-49 -146q0 -92 49 -144.5t131 -52.5q81 0 130.5 53t49.5 144z" />
<glyph unicode="&#x26;" horiz-adv-x="1366" d="M1079 70h-2q-212 -90 -463 -90q-514 0 -514 440q0 77 18.5 137.5t45.5 97.5t68 64t75.5 39.5t77.5 21.5q-110 26 -170.5 108.5t-60.5 198.5q0 175 115 270t337 95q150 0 267 -43.5t188 -103.5l-113 -160q-80 54 -156.5 83t-179.5 29q-233 0 -233 -182q0 -105 65.5 -154 t204.5 -49h662v-194h-232v-608zM618 182q142 0 248 35v461h-215q-172 0 -246.5 -60.5t-74.5 -185.5q0 -128 69 -189t219 -61z" />
<glyph unicode="'" horiz-adv-x="462" d="M180 885l-86 549h273l-78 -549h-109z" />
<glyph unicode="(" horiz-adv-x="669" d="M326 571q0 -242 76 -488t221 -448l-58 -67q-211 152 -345 421t-134 584q0 310 135.5 581.5t343.5 422.5l58 -68q-145 -202 -221 -448.5t-76 -489.5z" />
<glyph unicode=")" horiz-adv-x="669" d="M344 571q0 243 -76 489.5t-221 448.5l57 68q208 -151 344 -422.5t136 -581.5q0 -314 -134.5 -583t-345.5 -422l-57 67q145 202 221 448t76 488z" />
<glyph unicode="*" horiz-adv-x="1009" d="M111 952l305 115l-305 117l86 176l264 -221l-53 336h196l-55 -334l266 219l86 -176l-309 -117l309 -115l-86 -176l-264 217l53 -331h-196l53 333l-264 -219z" />
<glyph unicode="+" horiz-adv-x="966" d="M575 1020v-318h308v-159h-308v-318h-186v318h-303v159h303v318h186z" />
<glyph unicode="," horiz-adv-x="501" d="M109 109q0 58 38.5 97.5t100.5 39.5q65 0 103 -44.5t38 -129.5q0 -62 -23.5 -120.5t-63.5 -105t-78.5 -79.5t-80.5 -60l-63 76q73 46 123.5 104.5t50.5 98.5q-6 -6 -27 -6q-55 0 -86.5 34t-31.5 95z" />
<glyph unicode="-" horiz-adv-x="911" d="M784 475h-657v205h657v-205z" />
<glyph unicode="." horiz-adv-x="489" d="M109 111q0 58 36 97.5t101 39.5q62 0 98.5 -39.5t36.5 -97.5q0 -57 -36 -94t-99 -37q-65 0 -101 36.5t-36 94.5z" />
<glyph unicode="/" horiz-adv-x="1140" d="M266 -123h-217l825 1639h218z" />
<glyph unicode="0" horiz-adv-x="1282" d="M1180 723q0 -152 -33.5 -284t-98 -235.5t-169.5 -163.5t-238 -60q-134 0 -239.5 60t-170 163.5t-98 235.5t-33.5 284q0 120 20.5 227t64 199.5t106.5 159.5t152.5 105t197.5 38q134 0 238.5 -58t169 -159.5t98 -231.5t33.5 -280zM332 723q0 -111 18.5 -206t55 -170 t97 -118t138.5 -43q79 0 139 42.5t96 117.5t54 170t18 207q0 149 -30 263t-101 186.5t-176 72.5t-176.5 -72t-102 -186.5t-30.5 -263.5z" />
<glyph unicode="1" horiz-adv-x="649" d="M72 1151l-23 158l352 141h70v-1450h-207v1200z" />
<glyph unicode="2" horiz-adv-x="1093" d="M84 0v125l260 287q211 231 304 371.5t93 256.5q0 98 -59 152.5t-166 54.5q-99 0 -164.5 -46.5t-109.5 -141.5l-166 110q132 283 463 283q196 0 314 -103t118 -286q0 -68 -19.5 -135t-50.5 -126t-88 -134.5t-111.5 -139t-141.5 -162.5q-37 -41 -56 -63l-94 -106h589v-197 h-915z" />
<glyph unicode="3" horiz-adv-x="1124" d="M547 1452q208 0 319 -102.5t111 -266.5q0 -133 -66 -218.5t-174 -104.5q54 -8 101 -30t90.5 -62.5t68.5 -109.5t25 -159q0 -202 -126.5 -310.5t-338.5 -108.5q-210 0 -335 85.5t-173 229.5l213 67q78 -184 283 -184q111 0 179.5 63t68.5 175q0 115 -68 177t-205 62h-100 v197h94q112 0 173 55t61 154q0 89 -53 140.5t-156 51.5q-158 0 -242 -149l-186 86q52 126 163.5 194t272.5 68z" />
<glyph unicode="4" horiz-adv-x="1183" d="M47 276v168l631 990h213v-965h225v-193h-225v-276h-207v276h-637zM279 469h405v661z" />
<glyph unicode="5" horiz-adv-x="1097" d="M522 188q122 0 188 68t66 188q0 128 -81.5 199.5t-250.5 71.5h-276l37 719h735v-203h-534l-21 -320h102q259 0 389 -118t130 -349q0 -224 -126 -344t-364 -120q-182 0 -290 67.5t-173 200.5l209 94q51 -80 112 -117t148 -37z" />
<glyph unicode="6" horiz-adv-x="1177" d="M674 1247q-304 0 -336 -477q138 123 319 123q180 0 299 -115t119 -325q0 -216 -126.5 -344.5t-348.5 -128.5q-496 0 -496 684q0 180 32.5 320t85.5 226.5t127.5 142.5t151 77.5t163.5 21.5q107 0 189.5 -27t127.5 -62.5t94 -92.5l-162 -133q-52 58 -109 84t-130 26z M610 688q-148 0 -274 -129q12 -200 78.5 -287.5t193.5 -87.5q114 0 177 68.5t63 185.5q0 122 -66.5 186t-171.5 64z" />
<glyph unicode="7" horiz-adv-x="989" d="M946 1434v-156l-518 -1278h-242l500 1229h-639v205h899z" />
<glyph unicode="8" horiz-adv-x="1175" d="M997 1094q0 -218 -182 -297q126 -41 195 -136.5t69 -246.5q0 -213 -132.5 -323.5t-354.5 -110.5q-227 0 -362.5 112t-135.5 326q0 149 69 244.5t195 136.5q-180 79 -180 295q0 170 109 265t301 95q193 0 301 -94.5t108 -265.5zM328 430q0 -118 70.5 -188t189.5 -70 t188.5 69.5t69.5 190.5q0 120 -69.5 190t-186.5 70q-119 0 -190.5 -70.5t-71.5 -191.5zM393 1081q0 -86 49 -144t146 -58t146.5 58.5t49.5 145.5q0 89 -52 139t-144 50q-90 0 -142.5 -51.5t-52.5 -139.5z" />
<glyph unicode="9" horiz-adv-x="1169" d="M504 188q44 0 83 12t79.5 44.5t71.5 84t54 137.5t31 198q-133 -121 -307 -121q-62 0 -120 15t-111.5 48.5t-93.5 82.5t-63.5 124t-23.5 166q0 213 123 343t338 130q113 0 202 -39t156.5 -120.5t103.5 -218.5t36 -322q0 -129 -17.5 -236.5t-47.5 -186t-73 -139.5t-91 -100 t-105 -64.5t-111.5 -35.5t-113.5 -10q-273 0 -404 165l168 148q37 -49 103.5 -77t132.5 -28zM567 737q139 0 258 113q-10 208 -73 295.5t-177 87.5t-174.5 -69.5t-60.5 -186.5q0 -118 60.5 -179t166.5 -61z" />
<glyph unicode=":" horiz-adv-x="526" d="M127 864q0 58 36 97.5t101 39.5q62 0 98.5 -39.5t36.5 -97.5q0 -57 -36 -94t-99 -37q-65 0 -101 36.5t-36 94.5zM127 111q0 58 36 97.5t101 39.5q62 0 98.5 -39.5t36.5 -97.5q0 -57 -36 -94t-99 -37q-65 0 -101 36.5t-36 94.5z" />
<glyph unicode=";" horiz-adv-x="557" d="M145 864q0 58 36.5 97.5t101.5 39.5q64 0 100.5 -39.5t36.5 -97.5q0 -57 -36.5 -94t-100.5 -37q-65 0 -101.5 36.5t-36.5 94.5zM139 109q0 58 39 97.5t101 39.5q65 0 103 -44.5t38 -129.5q0 -62 -23.5 -120.5t-63.5 -105t-78.5 -79.5t-80.5 -60l-63 76q73 46 123.5 104.5 t50.5 98.5q-6 -6 -27 -6q-55 0 -87 34t-32 95z" />
<glyph unicode="&#x3c;" horiz-adv-x="1136" d="M1018 84l-944 369v225l944 360v-211l-721 -264l721 -268v-211z" />
<glyph unicode="=" horiz-adv-x="1157" d="M133 625v204h891v-204h-891zM133 211v205h891v-205h-891z" />
<glyph unicode="&#x3e;" horiz-adv-x="1136" d="M1063 453l-944 -369v211l721 268l-721 264v211l944 -360v-225z" />
<glyph unicode="?" horiz-adv-x="1007" d="M315 111q0 58 36.5 97.5t101.5 39.5q64 0 100.5 -39.5t36.5 -97.5q0 -57 -36.5 -94t-100.5 -37q-65 0 -101.5 36.5t-36.5 94.5zM467 1231q-71 0 -135.5 -28t-106.5 -79l-172 148q68 89 185.5 136.5t246.5 47.5q208 0 325.5 -117t117.5 -303q0 -77 -21 -140.5t-54.5 -106 t-74 -79.5t-80.5 -70t-73.5 -66.5t-54.5 -79t-21 -99.5v-73h-219v79q0 84 20 150.5t51.5 108.5t70 76.5t77 62.5t70 58t51.5 72t20 95q0 101 -63 154t-160 53z" />
<glyph unicode="@" horiz-adv-x="1630" d="M1546 791q0 -187 -87.5 -287.5t-235.5 -100.5q-143 0 -211 91q-86 -97 -254 -97q-154 0 -228.5 83t-74.5 222q0 150 83 231t228 81q54 0 98.5 -14.5t98.5 -51.5v41l167 2v-342q0 -112 101 -112q66 0 96.5 51.5t30.5 173.5q0 260 -129.5 396t-384.5 136 q-264 0 -410.5 -160.5t-146.5 -426.5q0 -271 147.5 -420.5t392.5 -149.5q345 0 498 187l117 -93q-65 -103 -227 -177t-388 -74q-336 0 -532.5 192t-196.5 535q0 166 49 302.5t141.5 235t234.5 153t321 54.5q137 0 252.5 -35.5t197.5 -97.5t139.5 -146t85 -180.5t27.5 -201.5 zM786 524q108 0 181 84q-4 46 -4 72v139q-80 55 -172 55q-164 0 -164 -172q0 -178 159 -178z" />
<glyph unicode="A" horiz-adv-x="1314" d="M1065 0l-121 336h-571l-117 -336h-238l514 1434h242l529 -1434h-238zM653 1145l-211 -604h428z" />
<glyph unicode="B" horiz-adv-x="1267" d="M178 0v1434h416q255 0 381.5 -99.5t126.5 -267.5q0 -128 -67.5 -208.5t-170.5 -98.5q49 -6 90 -17.5t84.5 -37t73 -61.5t49 -95t19.5 -135q0 -198 -132.5 -306t-388.5 -108h-481zM659 653h-260v-463h269q139 0 205.5 60t66.5 168q0 115 -72 175t-209 60zM608 1243h-209 v-399h219q244 0 244 205q0 95 -60 144.5t-194 49.5z" />
<glyph unicode="C" horiz-adv-x="1361" d="M782 -20q-326 0 -506 191.5t-180 539.5q0 353 183 547t501 194q349 0 527 -235l-177 -146q-77 85 -160.5 126.5t-193.5 41.5q-204 0 -322 -138.5t-118 -381.5q0 -250 124 -388t328 -138q223 0 365 159l164 -139q-86 -109 -221 -171t-314 -62z" />
<glyph unicode="D" horiz-adv-x="1392" d="M178 0v1434h387q230 0 396.5 -91t250.5 -253t84 -379q0 -331 -193 -521t-538 -190h-387zM547 1229h-148v-1024h148q263 0 386.5 134.5t123.5 373.5t-133.5 377.5t-376.5 138.5z" />
<glyph unicode="E" horiz-adv-x="1138" d="M178 0v1434h852v-205h-631v-398h512v-204h-512v-422h652v-205h-873z" />
<glyph unicode="F" d="M178 0v1434h850v-205h-629v-457h455v-205h-455v-567h-221z" />
<glyph unicode="G" horiz-adv-x="1400" d="M801 -20q-333 0 -520 199t-187 534q0 343 188.5 541t499.5 198q166 0 282 -49.5t214 -142.5l-156 -154q-123 133 -342 133q-95 0 -174.5 -31.5t-141 -93.5t-96 -163t-34.5 -232q0 -245 123.5 -385.5t333.5 -140.5q142 0 266 43v290h-271v205h494v-639 q-84 -49 -209.5 -80.5t-269.5 -31.5z" />
<glyph unicode="H" horiz-adv-x="1439" d="M399 0h-221v1434h221v-613h639v613h224v-1434h-224v616h-639v-616z" />
<glyph unicode="I" horiz-adv-x="577" d="M178 0v1434h221v-1434h-221z" />
<glyph unicode="J" horiz-adv-x="593" d="M-41 -444l-61 159q74 22 124.5 52t92.5 82t62 133.5t20 195.5v1256h221v-1252q0 -119 -23 -214t-62.5 -161.5t-99.5 -116.5t-125.5 -81t-148.5 -53z" />
<glyph unicode="K" horiz-adv-x="1302" d="M1016 1434h256l-543 -570l586 -864h-252l-481 711l-183 -193v-518h-221v1434h221v-652z" />
<glyph unicode="L" horiz-adv-x="1050" d="M178 0v1434h221v-1229h611v-205h-832z" />
<glyph unicode="M" horiz-adv-x="1892" d="M1493 0v1190l-442 -1190h-217l-435 1196v-1196h-221v1434h359l405 -1168l420 1168h352v-1434h-221z" />
<glyph unicode="N" horiz-adv-x="1536" d="M1135 317h6v1117h223v-1434h-256l-557 891q-98 161 -141 270h-4v-1161h-224v1434h273l571 -893q70 -109 109 -224z" />
<glyph unicode="O" horiz-adv-x="1546" d="M1450 717q0 -339 -182 -538t-496 -199q-313 0 -494.5 199t-181.5 538q0 338 181.5 536.5t494.5 198.5q314 0 496 -198.5t182 -536.5zM328 717q0 -245 116.5 -389t327.5 -144q212 0 330.5 145t118.5 388q0 238 -119 384t-330 146q-210 0 -327 -145t-117 -385z" />
<glyph unicode="P" horiz-adv-x="1216" d="M178 0v1434h436q272 0 407.5 -100.5t135.5 -325.5q0 -223 -133.5 -324.5t-409.5 -101.5h-215v-582h-221zM616 1229h-217v-443h217q156 0 229 53t73 173q0 114 -73 165.5t-229 51.5z" />
<glyph unicode="Q" horiz-adv-x="1556" d="M1450 717q0 -243 -96.5 -417.5t-272.5 -256.5l103 -51l336 -170l-103 -168l-336 186q-125 70 -201 105t-126 35v2q-305 6 -481.5 203.5t-176.5 531.5q0 338 181.5 536.5t494.5 198.5q314 0 496 -198.5t182 -536.5zM328 717q0 -245 116.5 -389t327.5 -144q212 0 330.5 145 t118.5 388q0 238 -119 384t-330 146q-210 0 -327 -145t-117 -385z" />
<glyph unicode="R" horiz-adv-x="1261" d="M178 0v1434h432q523 0 523 -424q0 -323 -299 -398l385 -612h-256l-367 588h-197v-588h-221zM598 1229h-199v-436h199q157 0 227 50t70 165t-70.5 168t-226.5 53z" />
<glyph unicode="S" horiz-adv-x="1103" d="M580 1253q-106 0 -173 -48.5t-67 -133.5q0 -59 37.5 -103t97 -74t131.5 -58t144 -63.5t131.5 -81t97 -121t37.5 -173.5q0 -186 -134.5 -301.5t-355.5 -115.5q-160 0 -283.5 55t-191.5 145l164 146q62 -68 134 -107t179 -39q122 0 195.5 58.5t73.5 150.5q0 64 -37.5 111 t-97.5 77.5t-132.5 57.5t-145 61t-132.5 78.5t-97.5 119t-37.5 173.5q0 182 119 285.5t333 103.5q135 0 237.5 -43.5t188.5 -130.5l-161 -139q-56 54 -114.5 82t-139.5 28z" />
<glyph unicode="T" horiz-adv-x="1116" d="M457 0v1229h-402v205h1008v-205h-383v-1229h-223z" />
<glyph unicode="U" horiz-adv-x="1372" d="M987 524v910h221v-924q0 -251 -136 -390.5t-386 -139.5q-251 0 -386.5 139t-135.5 391v924h221v-910q0 -155 73.5 -245.5t227.5 -90.5t227.5 90.5t73.5 245.5z" />
<glyph unicode="V" horiz-adv-x="1288" d="M641 268l379 1166h244l-504 -1434h-238l-489 1434h241z" />
<glyph unicode="W" horiz-adv-x="1929" d="M834 1417h251l291 -1134l266 1151h234l-377 -1434h-233l-308 1159l-315 -1159h-233l-367 1434h231l269 -1151z" />
<glyph unicode="X" horiz-adv-x="1243" d="M16 0l488 733l-467 701h242l344 -521l346 521h237l-465 -701l486 -733h-234l-370 555l-369 -555h-238z" />
<glyph unicode="Y" horiz-adv-x="1243" d="M731 516v-516h-219v516l-496 918h240l367 -707l364 707h238z" />
<glyph unicode="Z" horiz-adv-x="1163" d="M1065 1434v-179l-711 -1050h733v-205h-1011v170l704 1059h-682v205h967z" />
<glyph unicode="[" horiz-adv-x="679" d="M387 1311v-1452l227 -41v-140h-450v1817h450v-143z" />
<glyph unicode="\" horiz-adv-x="1140" d="M1092 -123h-218l-825 1639h217z" />
<glyph unicode="]" horiz-adv-x="679" d="M291 -141v1452l-228 41v143h451v-1817h-451v140z" />
<glyph unicode="^" horiz-adv-x="1054" d="M438 1434h178l351 -467h-219l-222 329l-223 -329h-215z" />
<glyph unicode="_" horiz-adv-x="1007" d="M0 -356v204h1008v-204h-1008z" />
<glyph unicode="`" horiz-adv-x="374" d="M326 1081h-144l-272 359h252z" />
<glyph unicode="a" d="M498 807q-143 0 -250 -90l-135 117q157 167 401 167q95 0 171.5 -22.5t136.5 -70.5t93 -130.5t33 -195.5v-586h-164l-26 121q-51 -69 -144 -105.5t-202 -36.5q-153 0 -246.5 77t-93.5 220q0 145 102.5 225.5t321.5 80.5h247q-1 128 -65 178.5t-180 50.5zM453 152 q50 0 96 9.5t90.5 31.5t72.5 64.5t31 100.5v58h-247q-106 0 -158.5 -37t-52.5 -103q0 -124 168 -124z" />
<glyph unicode="b" horiz-adv-x="1208" d="M1112 492q0 -253 -119.5 -382.5t-318.5 -129.5q-219 0 -320 155l-37 -143h-176v1544h207v-700l-2 -11q104 176 334 176q196 0 314 -128t118 -381zM350 487q0 -160 79 -245.5t206 -85.5q124 0 196 87t72 244q0 156 -71.5 247t-198.5 91q-128 0 -205.5 -88.5t-77.5 -249.5z " />
<glyph unicode="c" horiz-adv-x="980" d="M563 823q-133 0 -199.5 -88.5t-66.5 -242.5q0 -160 68.5 -247t199.5 -87q142 0 244 106l127 -125q-149 -159 -371 -159q-228 0 -352.5 130t-124.5 373q0 245 124 381.5t349 136.5q208 0 359 -151l-142 -129q-49 50 -96.5 76t-118.5 26z" />
<glyph unicode="d" horiz-adv-x="1189" d="M1051 0h-177l-24 162q-96 -182 -322 -182q-200 0 -320 132t-120 375q0 244 121 379t323 135q213 0 310 -165v700h209v-1536zM842 483q0 48 -9 94.5t-30.5 92t-52.5 79.5t-79.5 55t-107.5 21q-124 0 -196 -87.5t-72 -254.5q0 -166 71.5 -246.5t194.5 -80.5q73 0 128.5 28 t87 75t47.5 100.5t18 111.5v12z" />
<glyph unicode="e" horiz-adv-x="1089" d="M541 1001q218 0 336 -130t118 -367v-103h-692q35 -243 270 -243q106 0 177 31t131 85l127 -120q-36 -37 -69.5 -63t-85.5 -54t-123 -42.5t-157 -14.5q-220 0 -353.5 128t-133.5 381q0 236 124 374t331 138zM541 825q-102 0 -163.5 -64t-76.5 -186h485 q-14 121 -75.5 185.5t-169.5 64.5z" />
<glyph unicode="f" horiz-adv-x="655" d="M575 1354q-169 0 -169 -219v-156h212v-176h-212v-803h-209v803h-125v176h125v143q0 414 344 414q110 0 184 -31l-20 -178q-53 27 -130 27z" />
<glyph unicode="g" horiz-adv-x="1189" d="M842 979h209v-883q0 -270 -137 -409.5t-394 -139.5q-265 0 -424 138l121 143q134 -102 295 -102q158 0 244 92.5t86 279.5v35q-96 -153 -307 -153q-199 0 -319 132t-120 375q0 244 121.5 379t323.5 135q203 0 301 -151v129zM848 483q0 48 -9 94.5t-30 92t-52 79.5t-79 55 t-107 21q-124 0 -196 -87.5t-72 -254.5q0 -166 71.5 -246.5t194.5 -80.5q75 0 131 29t87 78t46 104t15 116z" />
<glyph unicode="h" horiz-adv-x="1120" d="M989 0h-209v590q0 104 -47.5 161.5t-132.5 57.5q-109 0 -181.5 -78t-72.5 -215v-516h-205v1536h205v-731q23 88 107.5 142t203.5 54q154 0 243 -96t89 -274v-631z" />
<glyph unicode="i" horiz-adv-x="489" d="M141 0v979h207v-979h-207zM102 1327q0 62 38.5 105t105.5 43q66 0 103.5 -43t37.5 -105q0 -59 -37 -98t-104 -39q-68 0 -106 39t-38 98z" />
<glyph unicode="j" horiz-adv-x="489" d="M-10 -453l-49 152q200 52 200 309v971h207v-952q0 -99 -20 -177t-52 -129t-80 -87.5t-97 -56t-109 -30.5zM102 1327q0 62 39 105t105 43q68 0 105.5 -42.5t37.5 -105.5q0 -60 -37 -98.5t-106 -38.5q-67 0 -105.5 39t-38.5 98z" />
<glyph unicode="k" horiz-adv-x="1050" d="M141 0v1536h207v-1026l416 469h260l-377 -406l393 -573h-252l-282 420l-158 -170v-250h-207z" />
<glyph unicode="l" horiz-adv-x="489" d="M141 0v1536h207v-1536h-207z" />
<glyph unicode="m" horiz-adv-x="1693" d="M1561 0h-207v584q0 225 -178 225q-91 0 -155 -65t-67 -191v-553h-206v584q0 107 -49 166t-134 59q-90 0 -153 -67t-66 -203v-539h-205v979h205v-174q20 89 97.5 142.5t185.5 53.5q95 0 177.5 -45.5t121.5 -140.5q31 86 109 136t190 50q64 0 121 -18t106 -55t78 -104 t29 -156v-668z" />
<glyph unicode="n" horiz-adv-x="1122" d="M348 979v-174q24 89 107.5 142.5t203.5 53.5q152 0 241 -96t89 -274v-631h-207v590q0 104 -47.5 161.5t-132.5 57.5q-107 0 -179 -74t-75 -205v-530h-207v979h207z" />
<glyph unicode="o" horiz-adv-x="1155" d="M1071 494q0 -247 -131.5 -380.5t-361.5 -133.5q-229 0 -360.5 133.5t-131.5 380.5q0 244 132.5 375.5t359.5 131.5q229 0 361 -131t132 -376zM297 494q0 -156 75 -245t206 -89q133 0 207.5 88.5t74.5 245.5q0 155 -74 241t-208 86q-131 0 -206 -86.5t-75 -240.5z" />
<glyph unicode="p" horiz-adv-x="1191" d="M141 -434v1413h207v-129q105 151 318 151q95 0 173.5 -31t137 -92t91 -159.5t32.5 -226.5q0 -253 -120 -382.5t-321 -129.5q-209 0 -311 145v-203l2 -356h-209zM336 487q0 -160 79 -245.5t206 -85.5q126 0 198 87t72 244q0 156 -72.5 247t-200.5 91q-126 0 -204 -89 t-78 -249z" />
<glyph unicode="q" horiz-adv-x="1185" d="M86 487q0 244 121 379t323 135q229 0 324 -192l39 170h154v-1413h-209v577q-97 -163 -312 -163q-199 0 -319.5 132t-120.5 375zM840 483q0 48 -9 94.5t-30.5 92t-52.5 79.5t-79.5 55t-107.5 21q-123 0 -194.5 -88t-71.5 -254t71.5 -246.5t194.5 -80.5q60 0 108.5 19.5 t79.5 51.5t52 75.5t30 88t9 92.5z" />
<glyph unicode="r" horiz-adv-x="745" d="M723 993l-25 -200q-44 20 -102 20q-32 0 -65 -11t-67 -37.5t-59.5 -65.5t-42 -101.5t-16.5 -138.5v-459h-205v979h191v-209q20 105 99 172.5t187 67.5q64 0 105 -17z" />
<glyph unicode="s" horiz-adv-x="911" d="M473 1001q115 0 189.5 -31t144.5 -93l-129 -140q-42 42 -90 64t-117 22q-68 0 -112 -23.5t-44 -74.5q0 -35 28.5 -60t74 -40.5t100.5 -30.5t110 -37.5t100.5 -53.5t74 -85.5t28.5 -128.5q0 -140 -98.5 -224.5t-296.5 -84.5q-253 0 -379 147l133 131q91 -100 248 -100 q94 0 140.5 34t46.5 95q0 41 -28.5 69t-74 43.5t-100.5 29.5t-110 33.5t-100.5 48t-74 81t-28.5 125.5q0 75 28 130.5t78.5 88.5t114.5 49t143 16z" />
<glyph unicode="t" horiz-adv-x="724" d="M408 1243v-264h251v-178h-251v-455q0 -97 34 -135.5t93 -38.5q65 0 133 14l12 -184q-86 -22 -168 -22q-157 0 -235 78t-78 241v502h-136v178h136l102 264h107z" />
<glyph unicode="u" horiz-adv-x="1118" d="M770 979h209v-979h-152l-22 162q-21 -77 -119.5 -129.5t-212.5 -52.5q-146 0 -244 95t-98 273v631h205v-582q0 -107 46.5 -165t137.5 -58q47 0 89 14.5t79.5 45t59.5 86.5t22 131v528z" />
<glyph unicode="v" horiz-adv-x="1048" d="M264 979l258 -784l264 784h228l-361 -979h-256l-362 979h229z" />
<glyph unicode="w" horiz-adv-x="1529" d="M877 961l196 -738l203 756h213l-297 -979h-231l-193 666l-207 -666h-229l-279 979h228l180 -762l213 744h203z" />
<glyph unicode="x" horiz-adv-x="1007" d="M33 0l358 489l-358 490h223l246 -336l248 336h223l-359 -490l363 -489h-225l-248 338l-248 -338h-223z" />
<glyph unicode="y" horiz-adv-x="1054" d="M272 979l252 -780l269 780h231l-358 -979h-2l-39 -115q-65 -183 -153 -260.5t-224 -77.5q-77 0 -131 15l26 186q31 -8 76 -8q73 0 125.5 43.5t91.5 157.5l19 59h-74l-340 979h231z" />
<glyph unicode="z" horiz-adv-x="974" d="M68 141l524 660h-490v178h777v-143l-527 -658h551v-178h-835v141z" />
<glyph unicode="{" horiz-adv-x="706" d="M645 -231v-162q-205 0 -325.5 110t-120.5 312q0 62 6 149t6 129q0 69 -36 118t-107 62v134q143 29 143 213q-1 19 -6.5 98.5t-5.5 148.5q0 202 120.5 312t325.5 110v-162q-109 0 -170 -75.5t-61 -184.5q0 -43 5 -124t5 -119q0 -116 -35 -187q-19 -36 -44 -55.5t-71 -40.5 q49 -17 73.5 -34t47.5 -56q39 -66 39 -172q0 -49 -10 -139.5t-10 -126.5q0 -108 61 -183t170 -75z" />
<glyph unicode="|" horiz-adv-x="548" d="M385 1538v-2050h-223v2050h223z" />
<glyph unicode="}" horiz-adv-x="706" d="M61 -393v162q109 0 170.5 75t61.5 183q0 36 -10.5 126.5t-10.5 139.5q0 106 39 172q23 39 47.5 56t73.5 34q-46 21 -71 40.5t-44 55.5q-34 69 -34 187q0 38 5 119t5 124q0 109 -61.5 184.5t-170.5 75.5v162q205 0 326 -110t121 -312q0 -69 -5.5 -148.5t-6.5 -98.5 q0 -184 143 -213v-134q-71 -13 -107 -62t-36 -118q0 -42 6 -129t6 -149q0 -202 -121 -312t-326 -110z" />
<glyph unicode="~" horiz-adv-x="1171" d="M920 772l137 -117q0 -99 -70.5 -171t-187.5 -72q-52 0 -101 19t-87 46.5t-73.5 55t-75 46.5t-77.5 19q-58 0 -93.5 -56t-35.5 -130l-139 123q0 96 70 166.5t200 70.5q59 0 113 -19.5t93 -47t73.5 -55t68 -47t62.5 -19.5q57 0 90 45.5t33 142.5z" />
<glyph unicode="&#xa1;" horiz-adv-x="524" d="M362 623h-198l-29 -1215h256zM127 862q0 58 36 97.5t101 39.5q62 0 98.5 -39.5t36.5 -97.5q0 -57 -36 -94t-99 -37q-65 0 -101 36.5t-36 94.5z" />
<glyph unicode="&#xa2;" horiz-adv-x="1032" d="M672 -188h-199v176q-181 26 -278 153.5t-97 341.5q0 215 97.5 348t277.5 162v187h199v-187q141 -26 258 -143l-142 -129q-49 50 -96.5 76t-118.5 26q-133 0 -199.5 -88.5t-66.5 -242.5q0 -160 68.5 -247t199.5 -87q142 0 244 106l127 -125q-121 -126 -274 -151v-176z" />
<glyph unicode="&#xa3;" horiz-adv-x="1239" d="M963 371l165 24q19 -24 34.5 -76t15.5 -96q0 -45 -14 -86t-45.5 -79.5t-92 -61.5t-143.5 -23q-67 0 -135.5 16.5t-117 36t-110.5 36t-117 16.5q-45 0 -74 -25.5t-36 -72.5h-199q0 67 21 131.5t51.5 118.5t61.5 108.5t55 121.5t28 136h-172v182h142q-8 20 -27.5 60 t-30.5 65.5t-20.5 67t-9.5 84.5q0 99 35.5 177t95 125t131 71t149.5 24q225 0 383 -170l-158 -135q-42 50 -87.5 77t-116.5 27q-96 0 -151.5 -53.5t-55.5 -157.5q0 -48 11.5 -88t38 -96.5t34.5 -77.5h278v-182h-250q-9 -193 -139 -352q70 28 135 28q71 0 137.5 -24.5 t120.5 -49t95 -24.5q56 0 83 27t27 71q0 40 -26 99zM244 100l14 11l4 10z" />
<glyph unicode="&#xa4;" horiz-adv-x="1193" d="M246 184l-111 111l84 84q-72 112 -72 268t72 268l-84 84l111 111l82 -82q116 78 268 78q155 0 268 -76l80 80l109 -113l-78 -77q76 -113 76 -273q0 -158 -76 -274l78 -76l-109 -113l-80 78q-115 -74 -268 -74q-152 0 -268 78zM356 647q0 -129 68 -200.5t172 -71.5 q102 0 170 70.5t68 201.5q0 136 -65 204.5t-173 68.5q-110 0 -175 -69.5t-65 -203.5z" />
<glyph unicode="&#xa5;" horiz-adv-x="1339" d="M1180 649h-328l-55 -100h383v-203h-400v-346h-219v346h-401v203h383l-54 100h-329v205h219l-313 580h239l367 -707l364 707h238l-311 -580h217v-205z" />
<glyph unicode="&#xa6;" horiz-adv-x="526" d="M160 307h205v-819h-205v819zM365 719h-205v819h205v-819z" />
<glyph unicode="&#xa7;" horiz-adv-x="1024" d="M535 1268q-84 0 -141.5 -40.5t-57.5 -113.5q0 -51 32 -90.5t83 -66t113 -52.5t123.5 -58.5t112.5 -74.5t83 -110.5t32 -157.5q0 -106 -47 -189q47 -79 47 -184q0 -174 -116.5 -277.5t-309.5 -103.5q-141 0 -245 53t-160 140l149 133q36 -44 64.5 -70.5t80.5 -49 t114 -22.5q101 0 161 51.5t60 137.5q0 44 -20 79t-53.5 59.5t-77 46t-92 41.5t-97 42.5t-92 53t-77 68.5t-53.5 94.5t-20 125.5q0 114 47 191q-47 76 -47 184q0 172 113 260t293 88q118 0 204.5 -39t159.5 -119l-149 -129q-99 99 -217 99zM336 741q0 -43 21.5 -77t63 -60 t84 -45.5t103 -47t101.5 -50.5q4 24 4 37q0 47 -21.5 83t-63.5 63.5t-83.5 46.5t-104.5 45.5t-102 47.5q-2 -14 -2 -43z" />
<glyph unicode="&#xa8;" horiz-adv-x="1255" d="M262 1247q0 55 34 93t93 38t93 -38t34 -93q0 -54 -33.5 -87.5t-93.5 -33.5t-93.5 33.5t-33.5 87.5zM645 1247q0 55 34.5 93t94.5 38q59 0 93 -38t34 -93q0 -54 -33.5 -87.5t-93.5 -33.5q-61 0 -95 33.5t-34 87.5z" />
<glyph unicode="&#xa9;" horiz-adv-x="1708" d="M1612 721q0 -162 -53.5 -299t-150.5 -234.5t-239.5 -152.5t-314.5 -55q-171 0 -313.5 55t-239.5 152.5t-151 234.5t-54 299q0 159 54 294.5t151 232t239.5 150.5t313.5 54q172 0 314.5 -54t239.5 -150.5t150.5 -232t53.5 -294.5zM266 721q0 -266 161 -432t427 -166 q272 0 429 165t157 433q0 265 -156.5 426.5t-429.5 161.5q-265 0 -426.5 -161t-161.5 -427zM864 979q-107 0 -160 -70.5t-53 -193.5q0 -127 55 -196.5t160 -69.5q112 0 195 83l100 -100q-119 -127 -295 -127q-183 0 -283 104.5t-100 299.5t99.5 304t279.5 109 q166 0 287 -121l-113 -104q-40 41 -77 61.5t-95 20.5z" />
<glyph unicode="&#xaa;" horiz-adv-x="927" d="M799 672h-135l-23 92q-40 -54 -116.5 -82.5t-170.5 -28.5q-119 0 -191.5 60.5t-72.5 179.5q0 246 350 246h187q-1 96 -50.5 134t-142.5 38q-114 0 -196 -70l-113 98q126 136 324 136q72 0 131.5 -17t110.5 -54t79.5 -104.5t28.5 -160.5v-467zM420 807q38 0 71 7.5 t65.5 24.5t51.5 51.5t19 82.5v24h-187q-151 0 -151 -100q0 -50 34 -70t97 -20z" />
<glyph unicode="&#xab;" horiz-adv-x="970" d="M391 49l-317 457l317 442l141 -96l-247 -344l247 -363zM737 49l-317 457l317 442l142 -96l-248 -344l248 -363z" />
<glyph unicode="&#xac;" horiz-adv-x="1329" d="M1186 291h-217v360h-850v174h1067v-534z" />
<glyph unicode="&#xad;" horiz-adv-x="911" d="M784 475h-657v205h657v-205z" />
<glyph unicode="&#xae;" horiz-adv-x="1708" d="M1612 721q0 -162 -53.5 -299t-150.5 -234.5t-239.5 -152.5t-314.5 -55q-171 0 -313.5 55t-239.5 152.5t-151 234.5t-54 299q0 159 54 294.5t151 232t239.5 150.5t313.5 54q172 0 314.5 -54t239.5 -150.5t150.5 -232t53.5 -294.5zM266 721q0 -266 161 -432t427 -166 q272 0 429 165t157 433q0 265 -156.5 426.5t-429.5 161.5q-265 0 -426.5 -161t-161.5 -427zM575 307v823h281q324 0 324 -247q0 -185 -179 -230l230 -346h-172l-217 330h-117v-330h-150zM848 991h-123v-217h123q90 0 129 25t39 84q0 57 -39 82.5t-129 25.5z" />
<glyph unicode="&#xaf;" horiz-adv-x="1124" d="M176 1114v170h551v-170h-551z" />
<glyph unicode="&#xb0;" horiz-adv-x="729" d="M643 1210q0 -101 -78 -170t-198 -69q-124 0 -202.5 68.5t-78.5 170.5q0 93 79 159.5t202 66.5q119 0 197.5 -66.5t78.5 -159.5zM207 1210q0 -60 43 -100.5t117 -40.5q71 0 113 41t42 100q0 47 -38.5 88t-116.5 41q-80 0 -120 -41.5t-40 -87.5z" />
<glyph unicode="&#xb1;" horiz-adv-x="989" d="M590 1020v-318h307v-159h-307v-318h-187v318h-303v159h303v318h187zM815 -190h-657v204h657v-204z" />
<glyph unicode="&#xb2;" horiz-adv-x="786" d="M72 451v81l184 203q149 164 215 264t66 183q0 70 -42.5 109.5t-119.5 39.5q-71 0 -118.5 -33t-80.5 -100l-108 70q92 198 313 198q140 0 224.5 -71.5t84.5 -198.5q0 -29 -4 -55.5t-16 -57t-20.5 -51.5t-33.5 -56.5t-36.5 -53t-47.5 -60.5t-50 -59t-60 -68t-62 -71 l-71 -82h422v-131h-639z" />
<glyph unicode="&#xb3;" horiz-adv-x="808" d="M401 1466q141 0 216 -68t75 -181q0 -93 -46 -154.5t-122 -73.5q201 -34 201 -260q0 -141 -84 -217t-242 -76q-134 0 -220 54t-124 143l131 53q67 -115 207 -115q79 0 128.5 44t49.5 124q0 87 -49 134t-147 47h-70v131h66q81 0 125.5 39.5t44.5 107.5q0 62 -38 98.5 t-108 36.5q-63 0 -104 -27.5t-74 -78.5l-123 65q39 80 116.5 127t190.5 47z" />
<glyph unicode="&#xb4;" horiz-adv-x="579" d="M342 1081h-143l161 359h258z" />
<glyph unicode="&#xb5;" horiz-adv-x="1159" d="M786 979h209v-979h-209v156q-21 -79 -89 -126.5t-177 -47.5q-78 0 -149 26v-520h-207v1491h207v-594q0 -215 172 -215q97 0 168 86t75 209v514z" />
<glyph unicode="&#xb6;" horiz-adv-x="1097" d="M907 -352h-176v1614h-96v-1614h-174v991q-190 0 -296 109t-106 278q0 82 26.5 155.5t76 130t127 89.5t172.5 33h446v-1786z" />
<glyph unicode="&#xb7;" horiz-adv-x="505" d="M117 623q0 58 36 97.5t101 39.5q62 0 98.5 -39.5t36.5 -97.5q0 -57 -36 -94t-99 -37q-65 0 -101 36.5t-36 94.5z" />
<glyph unicode="&#xb8;" horiz-adv-x="624" d="M231 -197l58 195h143l-31 -100q6 2 27 2q77 0 128.5 -42t51.5 -120q0 -65 -38.5 -110t-96.5 -64t-131 -19q-115 0 -213 41l10 119q67 -33 178 -33q60 0 85.5 15t25.5 49q0 67 -104 67h-93z" />
<glyph unicode="&#xb9;" horiz-adv-x="473" d="M61 1262l-16 106l258 98h33v-1015h-141v843z" />
<glyph unicode="&#xba;" horiz-adv-x="985" d="M899 1065q0 -198 -108 -304t-297 -106t-297.5 106t-108.5 304q0 196 109.5 302t296.5 106q188 0 296.5 -106t108.5 -302zM283 1065q0 -116 56.5 -181t154.5 -65q99 0 155 65t56 181q0 115 -56 179.5t-155 64.5q-98 0 -154.5 -64.5t-56.5 -179.5z" />
<glyph unicode="&#xbb;" horiz-adv-x="972" d="M549 506l-318 -457l-141 96l248 363l-248 344l141 96zM899 506l-317 -457l-142 96l248 363l-248 344l142 96z" />
<glyph unicode="&#xbc;" horiz-adv-x="2295" d="M76 1241l-17 107l258 98h33v-1016h-141v844zM1495 201v116l436 687h146v-672h153v-131h-153v-201h-144v201h-438zM1655 332h278v456zM1493 1501l-868 -1571h-150l868 1571h150z" />
<glyph unicode="&#xbd;" horiz-adv-x="2187" d="M1462 0v82l185 203q148 164 214 263.5t66 182.5q0 71 -43 110.5t-119 39.5q-71 0 -117.5 -33t-80.5 -100l-109 69q92 199 314 199q140 0 224.5 -72t84.5 -199q0 -29 -4 -55.5t-16 -57t-20.5 -51.5t-33.5 -56.5t-36.5 -53t-47.5 -60.5t-50 -59t-60 -68t-62 -71l-72 -82 h422v-131h-639zM1493 1501l-868 -1571h-150l868 1571h150zM76 1241l-17 107l258 98h33v-1016h-141v844z" />
<glyph unicode="&#xbe;" horiz-adv-x="2377" d="M1579 201v116l436 687h146v-672h153v-131h-153v-201h-144v201h-438zM412 1446q140 0 215 -68.5t75 -181.5q0 -93 -45.5 -154t-121.5 -73q200 -34 200 -260q0 -141 -83.5 -217t-241.5 -76q-134 0 -220 53.5t-124 142.5l131 54q67 -115 206 -115q79 0 129 44.5t50 123.5 q0 86 -49.5 133t-147.5 47h-70v131h66q81 0 125.5 40t44.5 108q0 63 -38 99t-107 36q-111 0 -179 -107l-123 66q38 80 116.5 127t191.5 47zM1749 1501l-868 -1571h-150l868 1571h150zM1739 332h278v456z" />
<glyph unicode="&#xbf;" horiz-adv-x="991" d="M418 864q0 58 36 97.5t101 39.5q63 0 99 -39.5t36 -97.5t-35.5 -94.5t-99.5 -36.5q-65 0 -101 36.5t-36 94.5zM532 -276q-98 0 -160.5 52.5t-62.5 153.5q0 53 20 95.5t51.5 72t70.5 58t77.5 63t70 77t51.5 109t20 150.5v78h-219v-72q0 -54 -21 -100t-54.5 -80 t-73.5 -66.5t-80.5 -69.5t-74 -80t-54.5 -106t-21 -139q0 -186 117 -303t325 -117q127 0 245.5 48t184.5 135l-172 147q-41 -49 -106 -77.5t-134 -28.5z" />
<glyph unicode="&#xc0;" horiz-adv-x="1314" d="M1065 0l-113 313h-587l-109 -313h-238l514 1434h242l529 -1434h-238zM653 1145l-219 -627h445zM743 1591h-143l-272 359h252z" />
<glyph unicode="&#xc1;" horiz-adv-x="1314" d="M1065 0l-113 313h-587l-109 -313h-238l514 1434h242l529 -1434h-238zM653 1145l-219 -627h445zM729 1595h-143l162 359h258z" />
<glyph unicode="&#xc2;" horiz-adv-x="1314" d="M1065 0l-113 313h-587l-109 -313h-238l514 1434h242l529 -1434h-238zM653 1145l-219 -627h445zM567 1931h181l262 -307l-84 -63l-269 215l-268 -215l-84 63z" />
<glyph unicode="&#xc3;" horiz-adv-x="1314" d="M1065 0l-113 313h-587l-109 -313h-238l514 1434h242l529 -1434h-238zM653 1145l-219 -627h445zM823 1860h142q0 -114 -45 -185t-127 -71q-46 0 -95.5 21t-91.5 42t-71 21t-45.5 -22.5t-16.5 -63.5h-143q0 115 52.5 183t129.5 68q52 0 105.5 -22.5t94 -45t60.5 -22.5 q28 0 39.5 20t11.5 77z" />
<glyph unicode="&#xc4;" horiz-adv-x="1314" d="M1065 0l-113 313h-587l-109 -313h-238l514 1434h242l529 -1434h-238zM653 1145l-219 -627h445zM336 1759q0 55 34 93t93 38t93 -38t34 -93q0 -54 -33.5 -87.5t-93.5 -33.5t-93.5 33.5t-33.5 87.5zM719 1759q0 55 34.5 93t94.5 38q59 0 93 -38t34 -93q0 -54 -33.5 -87.5 t-93.5 -33.5q-61 0 -95 33.5t-34 87.5z" />
<glyph unicode="&#xc5;" horiz-adv-x="1314" d="M1065 0l-113 313h-587l-109 -313h-238l514 1434h242l529 -1434h-238zM653 1145l-219 -627h445zM920 1774q0 -102 -72.5 -163t-194.5 -61q-120 0 -191 61t-71 163q0 98 72 159.5t192 61.5t192.5 -61.5t72.5 -159.5zM547 1774q0 -51 26.5 -79t79.5 -28t81 28.5t28 78.5 t-28 77t-81 27q-106 0 -106 -104z" />
<glyph unicode="&#xc6;" horiz-adv-x="1970" d="M963 0v344h-533l-207 -344h-256l875 1434h1028v-205h-686v-408h407v-205h-407v-411h702v-205h-923zM963 549v682l-410 -682h410z" />
<glyph unicode="&#xc7;" horiz-adv-x="1361" d="M676 -199l53 181q-301 15 -467 205t-166 524q0 353 183 547t501 194q349 0 527 -235l-177 -146q-77 85 -160.5 126.5t-193.5 41.5q-204 0 -322 -138.5t-118 -381.5q0 -250 124 -388t328 -138q223 0 365 159l164 -139q-159 -203 -445 -229l-26 -88q6 2 26 2q77 0 129 -42 t52 -120q0 -65 -38.5 -110t-97 -64t-131.5 -19q-115 0 -213 41l11 119q67 -33 178 -33q59 0 84.5 15t25.5 49q0 67 -104 67h-92z" />
<glyph unicode="&#xc8;" horiz-adv-x="1124" d="M178 0v1434h840v-205h-619v-408h463v-205h-463v-411h639v-205h-860zM707 1591h-144l-272 359h252z" />
<glyph unicode="&#xc9;" horiz-adv-x="1124" d="M178 0v1434h840v-205h-619v-408h463v-205h-463v-411h639v-205h-860zM690 1595h-143l162 359h258z" />
<glyph unicode="&#xca;" horiz-adv-x="1124" d="M178 0v1434h840v-205h-619v-408h463v-205h-463v-411h639v-205h-860zM528 1931h181l262 -307l-84 -63l-269 215l-268 -215l-84 63z" />
<glyph unicode="&#xcb;" horiz-adv-x="1124" d="M178 0v1434h840v-205h-619v-408h463v-205h-463v-411h639v-205h-860zM297 1759q0 55 34 93t93 38t93 -38t34 -93q0 -54 -33.5 -87.5t-93.5 -33.5t-93.5 33.5t-33.5 87.5zM680 1759q0 55 34.5 93t94.5 38q59 0 93 -38t34 -93q0 -54 -33.5 -87.5t-93.5 -33.5q-61 0 -95 33.5 t-34 87.5z" />
<glyph unicode="&#xcc;" horiz-adv-x="577" d="M178 0v1434h221v-1434h-221zM381 1591h-143l-273 359h252z" />
<glyph unicode="&#xcd;" horiz-adv-x="577" d="M178 0v1434h221v-1434h-221zM365 1595h-144l162 359h258z" />
<glyph unicode="&#xce;" horiz-adv-x="577" d="M178 0v1434h221v-1434h-221zM203 1931h180l262 -307l-84 -63l-268 215l-268 -215l-84 63z" />
<glyph unicode="&#xcf;" horiz-adv-x="577" d="M178 0v1434h221v-1434h-221zM-29 1759q0 55 34 93t93 38t93 -38t34 -93q0 -54 -33.5 -87.5t-93.5 -33.5t-93.5 33.5t-33.5 87.5zM354 1759q0 55 34.5 93t94.5 38q59 0 93 -38t34 -93q0 -54 -33.5 -87.5t-93.5 -33.5q-61 0 -95 33.5t-34 87.5z" />
<glyph unicode="&#xd0;" horiz-adv-x="1406" d="M193 0v557h-138v205h138v672h387q230 0 396.5 -91t250.5 -253t84 -379q0 -331 -193 -521t-538 -190h-387zM713 557h-299v-352h147q263 0 386.5 134.5t123.5 373.5t-133.5 377.5t-376.5 138.5h-147v-467h299v-205z" />
<glyph unicode="&#xd1;" horiz-adv-x="1536" d="M1135 317h6v1117h223v-1434h-256l-557 891q-98 161 -141 270h-4v-1161h-224v1434h273l571 -893q70 -109 109 -224zM948 1860h142q0 -114 -45 -185t-127 -71q-46 0 -95.5 21t-92 42t-71.5 21q-61 0 -61 -86h-143q0 115 52.5 183t129.5 68q52 0 105.5 -22.5t94 -45 t60.5 -22.5q28 0 39.5 20t11.5 77z" />
<glyph unicode="&#xd2;" horiz-adv-x="1546" d="M1450 717q0 -339 -182 -538t-496 -199q-313 0 -494.5 199t-181.5 538q0 338 181.5 536.5t494.5 198.5q314 0 496 -198.5t182 -536.5zM328 717q0 -245 116.5 -389t327.5 -144q212 0 330.5 145t118.5 388q0 238 -119 384t-330 146q-210 0 -327 -145t-117 -385zM862 1591 h-143l-273 359h252z" />
<glyph unicode="&#xd3;" horiz-adv-x="1546" d="M1450 717q0 -339 -182 -538t-496 -199q-313 0 -494.5 199t-181.5 538q0 338 181.5 536.5t494.5 198.5q314 0 496 -198.5t182 -536.5zM328 717q0 -245 116.5 -389t327.5 -144q212 0 330.5 145t118.5 388q0 238 -119 384t-330 146q-210 0 -327 -145t-117 -385zM846 1595 h-144l162 359h258z" />
<glyph unicode="&#xd4;" horiz-adv-x="1546" d="M1450 717q0 -339 -182 -538t-496 -199q-313 0 -494.5 199t-181.5 538q0 338 181.5 536.5t494.5 198.5q314 0 496 -198.5t182 -536.5zM328 717q0 -245 116.5 -389t327.5 -144q212 0 330.5 145t118.5 388q0 238 -119 384t-330 146q-210 0 -327 -145t-117 -385zM684 1931 h180l262 -307l-84 -63l-268 215l-268 -215l-84 63z" />
<glyph unicode="&#xd5;" horiz-adv-x="1546" d="M1450 717q0 -339 -182 -538t-496 -199q-313 0 -494.5 199t-181.5 538q0 338 181.5 536.5t494.5 198.5q314 0 496 -198.5t182 -536.5zM328 717q0 -245 116.5 -389t327.5 -144q212 0 330.5 145t118.5 388q0 238 -119 384t-330 146q-210 0 -327 -145t-117 -385zM942 1860 h141q0 -114 -45 -185t-127 -71q-46 0 -95.5 21t-91.5 42t-71 21q-61 0 -61 -86h-143q0 115 52.5 183t129.5 68q52 0 105.5 -22.5t94 -45t60.5 -22.5q28 0 39.5 20t11.5 77z" />
<glyph unicode="&#xd6;" horiz-adv-x="1546" d="M1450 717q0 -339 -182 -538t-496 -199q-313 0 -494.5 199t-181.5 538q0 338 181.5 536.5t494.5 198.5q314 0 496 -198.5t182 -536.5zM328 717q0 -245 116.5 -389t327.5 -144q212 0 330.5 145t118.5 388q0 238 -119 384t-330 146q-210 0 -327 -145t-117 -385zM453 1759 q0 55 34 93t93 38t93 -38t34 -93q0 -54 -33.5 -87.5t-93.5 -33.5t-93.5 33.5t-33.5 87.5zM836 1759q0 55 34.5 93t94.5 38q59 0 93 -38t34 -93q0 -54 -33.5 -87.5t-93.5 -33.5q-61 0 -95 33.5t-34 87.5z" />
<glyph unicode="&#xd7;" horiz-adv-x="911" d="M248 1079l205 -207l206 207l138 -133l-209 -209l209 -207l-138 -133l-206 205l-205 -205l-135 135l204 205l-204 207z" />
<glyph unicode="&#xd8;" horiz-adv-x="1556" d="M436 -90h-241l129 223q-110 98 -169 247t-59 337q0 338 181.5 536.5t494.5 198.5q158 0 285 -53l71 123h242l-137 -236q105 -96 161 -241t56 -328q0 -339 -182 -538t-496 -199q-147 0 -268 47zM328 717q0 -244 112 -383l510 878q-81 35 -178 35q-210 0 -327 -145 t-117 -385zM1221 717q0 224 -105 366l-506 -872q70 -27 162 -27q212 0 330.5 145t118.5 388z" />
<glyph unicode="&#xd9;" horiz-adv-x="1372" d="M987 524v910h221v-924q0 -251 -136 -390.5t-386 -139.5q-251 0 -386.5 139t-135.5 391v924h221v-910q0 -155 73.5 -245.5t227.5 -90.5t227.5 90.5t73.5 245.5zM760 1591h-144l-272 359h252z" />
<glyph unicode="&#xda;" horiz-adv-x="1372" d="M987 524v910h221v-924q0 -251 -136 -390.5t-386 -139.5q-251 0 -386.5 139t-135.5 391v924h221v-910q0 -155 73.5 -245.5t227.5 -90.5t227.5 90.5t73.5 245.5zM762 1595h-144l162 359h258z" />
<glyph unicode="&#xdb;" horiz-adv-x="1372" d="M987 524v910h221v-924q0 -251 -136 -390.5t-386 -139.5q-251 0 -386.5 139t-135.5 391v924h221v-910q0 -155 73.5 -245.5t227.5 -90.5t227.5 90.5t73.5 245.5zM600 1931h180l262 -307l-84 -63l-268 215l-268 -215l-84 63z" />
<glyph unicode="&#xdc;" horiz-adv-x="1372" d="M987 524v910h221v-924q0 -251 -136 -390.5t-386 -139.5q-251 0 -386.5 139t-135.5 391v924h221v-910q0 -155 73.5 -245.5t227.5 -90.5t227.5 90.5t73.5 245.5zM369 1759q0 55 34 93t93 38t93 -38t34 -93q0 -54 -33.5 -87.5t-93.5 -33.5t-93.5 33.5t-33.5 87.5zM752 1759 q0 55 34.5 93t94.5 38q59 0 93 -38t34 -93q0 -54 -33.5 -87.5t-93.5 -33.5q-61 0 -95 33.5t-34 87.5z" />
<glyph unicode="&#xdd;" horiz-adv-x="1243" d="M731 516v-516h-219v516l-496 918h240l367 -707l364 707h238zM696 1593h-143l162 359h258z" />
<glyph unicode="&#xde;" horiz-adv-x="1228" d="M1153 483q0 -102 -29 -193.5t-85.5 -165t-149 -116.5t-209.5 -43q-170 0 -287 70v-383h-215v1681h215v-409q102 77 285 77q119 0 212 -43t149 -116.5t85 -165t29 -193.5zM920 483q0 148 -66.5 240t-210.5 92q-82 0 -148.5 -28.5t-101.5 -67.5v-486q32 -35 99.5 -58 t142.5 -23q78 0 135 26t89 72.5t46.5 104t14.5 128.5z" />
<glyph unicode="&#xdf;" horiz-adv-x="1232" d="M360 1120v-1120h-219v1079q0 228 118 344.5t347 116.5q228 0 346.5 -105t118.5 -270q0 -137 -66 -226.5t-186 -109.5q68 -12 122 -34.5t103.5 -64t77 -111.5t27.5 -164q0 -226 -133.5 -340.5t-382.5 -114.5h-176v176h176q280 0 280 281q0 138 -78.5 208t-222.5 70h-149 v166h149q104 0 169 64t65 174q0 104 -62 162.5t-176 58.5q-131 0 -189.5 -65.5t-58.5 -174.5z" />
<glyph unicode="&#xe0;" d="M498 807q-143 0 -250 -90l-135 117q157 167 401 167q95 0 171.5 -22.5t136.5 -70.5t93 -130.5t33 -195.5v-586h-164l-26 121q-51 -69 -144 -105.5t-202 -36.5q-153 0 -246.5 77t-93.5 220q0 145 102.5 225.5t321.5 80.5h247q-1 128 -65 178.5t-180 50.5zM453 152 q50 0 96 9.5t90.5 31.5t72.5 64.5t31 100.5v58h-247q-106 0 -158.5 -37t-52.5 -103q0 -124 168 -124zM602 1137h-143l-273 358h252z" />
<glyph unicode="&#xe1;" d="M498 807q-143 0 -250 -90l-135 117q157 167 401 167q95 0 171.5 -22.5t136.5 -70.5t93 -130.5t33 -195.5v-586h-164l-26 121q-51 -69 -144 -105.5t-202 -36.5q-153 0 -246.5 77t-93.5 220q0 145 102.5 225.5t321.5 80.5h247q-1 128 -65 178.5t-180 50.5zM453 152 q50 0 96 9.5t90.5 31.5t72.5 64.5t31 100.5v58h-247q-106 0 -158.5 -37t-52.5 -103q0 -124 168 -124zM586 1141h-144l162 358h258z" />
<glyph unicode="&#xe2;" d="M498 807q-143 0 -250 -90l-135 117q157 167 401 167q95 0 171.5 -22.5t136.5 -70.5t93 -130.5t33 -195.5v-586h-164l-26 121q-51 -69 -144 -105.5t-202 -36.5q-153 0 -246.5 77t-93.5 220q0 145 102.5 225.5t321.5 80.5h247q-1 128 -65 178.5t-180 50.5zM453 152 q50 0 96 9.5t90.5 31.5t72.5 64.5t31 100.5v58h-247q-106 0 -158.5 -37t-52.5 -103q0 -124 168 -124zM424 1477h180l262 -308l-84 -63l-268 215l-268 -215l-84 63z" />
<glyph unicode="&#xe3;" d="M498 807q-143 0 -250 -90l-135 117q157 167 401 167q95 0 171.5 -22.5t136.5 -70.5t93 -130.5t33 -195.5v-586h-164l-26 121q-51 -69 -144 -105.5t-202 -36.5q-153 0 -246.5 77t-93.5 220q0 145 102.5 225.5t321.5 80.5h247q-1 128 -65 178.5t-180 50.5zM453 152 q50 0 96 9.5t90.5 31.5t72.5 64.5t31 100.5v58h-247q-106 0 -158.5 -37t-52.5 -103q0 -124 168 -124zM682 1405h141q0 -114 -45 -185t-127 -71q-46 0 -95.5 21t-91.5 42t-71 21q-61 0 -61 -86h-144q0 115 53 183.5t130 68.5q52 0 105.5 -22.5t94 -45t60.5 -22.5 q28 0 39.5 19.5t11.5 76.5z" />
<glyph unicode="&#xe4;" d="M498 807q-143 0 -250 -90l-135 117q157 167 401 167q95 0 171.5 -22.5t136.5 -70.5t93 -130.5t33 -195.5v-586h-164l-26 121q-51 -69 -144 -105.5t-202 -36.5q-153 0 -246.5 77t-93.5 220q0 145 102.5 225.5t321.5 80.5h247q-1 128 -65 178.5t-180 50.5zM453 152 q50 0 96 9.5t90.5 31.5t72.5 64.5t31 100.5v58h-247q-106 0 -158.5 -37t-52.5 -103q0 -124 168 -124zM193 1305q0 55 33.5 93t92.5 38t93 -38t34 -93q0 -54 -33.5 -87.5t-93.5 -33.5t-93 33.5t-33 87.5zM575 1305q0 55 34.5 93t95.5 38q59 0 92.5 -38t33.5 -93 q0 -54 -33 -87.5t-93 -33.5q-61 0 -95.5 33.5t-34.5 87.5z" />
<glyph unicode="&#xe5;" d="M498 807q-143 0 -250 -90l-135 117q157 167 401 167q95 0 171.5 -22.5t136.5 -70.5t93 -130.5t33 -195.5v-586h-164l-26 121q-51 -69 -144 -105.5t-202 -36.5q-153 0 -246.5 77t-93.5 220q0 145 102.5 225.5t321.5 80.5h247q-1 128 -65 178.5t-180 50.5zM453 152 q50 0 96 9.5t90.5 31.5t72.5 64.5t31 100.5v58h-247q-106 0 -158.5 -37t-52.5 -103q0 -124 168 -124zM778 1319q0 -102 -72 -162.5t-194 -60.5q-120 0 -191 61t-71 162q0 98 72 159.5t192 61.5t192 -61.5t72 -159.5zM406 1319q0 -51 26.5 -79t79.5 -28t81 28.5t28 78.5 t-28 77t-81 27q-106 0 -106 -104z" />
<glyph unicode="&#xe6;" horiz-adv-x="1730" d="M1180 1001q218 0 336 -130t118 -367v-103h-692q34 -243 270 -243q106 0 177 31t131 85l127 -120q-36 -37 -69.5 -63t-85.5 -54t-123 -42.5t-157 -14.5q-270 0 -397 178q-58 -88 -167 -135.5t-249 -47.5q-152 0 -245 75t-93 218q0 297 412 297h250v17q0 132 -66 187.5 t-196 55.5q-61 0 -151.5 -12.5t-149.5 -30.5v176q134 43 319 43q262 0 373 -135q122 135 328 135zM1180 825q-102 0 -163.5 -64t-76.5 -186h485q-14 121 -75.5 185.5t-169.5 64.5zM723 356v41h-250q-199 0 -199 -125q0 -63 49 -90.5t126 -27.5q53 0 98.5 10.5t85.5 32.5 t64 63t26 96z" />
<glyph unicode="&#xe7;" horiz-adv-x="991" d="M430 -197l53 183q-190 22 -292.5 149.5t-102.5 347.5q0 245 124 381.5t349 136.5q208 0 359 -151l-142 -129q-49 50 -96.5 76t-118.5 26q-133 0 -199.5 -88.5t-66.5 -242.5q0 -160 68.5 -247t199.5 -87q142 0 244 106l127 -125q-131 -137 -311 -155l-25 -86q6 2 27 2 q77 0 128.5 -42t51.5 -120q0 -65 -38.5 -110t-96.5 -64t-131 -19q-115 0 -213 41l10 119q67 -33 178 -33q60 0 85.5 15t25.5 49q0 67 -105 67h-92z" />
<glyph unicode="&#xe8;" horiz-adv-x="1091" d="M541 1001q218 0 336 -130t118 -367v-103h-692q35 -243 270 -243q106 0 177 31t131 85l127 -120q-36 -37 -69.5 -63t-85.5 -54t-123 -42.5t-157 -14.5q-220 0 -353.5 128t-133.5 381q0 236 124 374t331 138zM541 825q-102 0 -163.5 -64t-76.5 -186h485 q-14 121 -75.5 185.5t-169.5 64.5zM633 1137h-144l-272 358h252z" />
<glyph unicode="&#xe9;" horiz-adv-x="1091" d="M541 1001q218 0 336 -130t118 -367v-103h-692q35 -243 270 -243q106 0 177 31t131 85l127 -120q-36 -37 -69.5 -63t-85.5 -54t-123 -42.5t-157 -14.5q-220 0 -353.5 128t-133.5 381q0 236 124 374t331 138zM541 825q-102 0 -163.5 -64t-76.5 -186h485 q-14 121 -75.5 185.5t-169.5 64.5zM618 1141h-143l162 358h258z" />
<glyph unicode="&#xea;" horiz-adv-x="1091" d="M541 1001q218 0 336 -130t118 -367v-103h-692q35 -243 270 -243q106 0 177 31t131 85l127 -120q-36 -37 -69.5 -63t-85.5 -54t-123 -42.5t-157 -14.5q-220 0 -353.5 128t-133.5 381q0 236 124 374t331 138zM541 825q-102 0 -163.5 -64t-76.5 -186h485 q-14 121 -75.5 185.5t-169.5 64.5zM455 1477h180l262 -308l-84 -63l-268 215l-269 -215l-83 63z" />
<glyph unicode="&#xeb;" horiz-adv-x="1091" d="M541 1001q218 0 336 -130t118 -367v-103h-692q35 -243 270 -243q106 0 177 31t131 85l127 -120q-36 -37 -69.5 -63t-85.5 -54t-123 -42.5t-157 -14.5q-220 0 -353.5 128t-133.5 381q0 236 124 374t331 138zM541 825q-102 0 -163.5 -64t-76.5 -186h485 q-14 121 -75.5 185.5t-169.5 64.5zM225 1305q0 55 34 93t93 38t93 -38t34 -93q0 -54 -33.5 -87.5t-93.5 -33.5t-93.5 33.5t-33.5 87.5zM608 1305q0 55 34.5 93t94.5 38q59 0 93 -38t34 -93q0 -54 -33.5 -87.5t-93.5 -33.5q-61 0 -95 33.5t-34 87.5z" />
<glyph unicode="&#xec;" horiz-adv-x="489" d="M141 0v979h207v-979h-207zM332 1137h-144l-272 358h252z" />
<glyph unicode="&#xed;" horiz-adv-x="489" d="M141 0v979h207v-979h-207zM315 1141h-143l162 358h258z" />
<glyph unicode="&#xee;" horiz-adv-x="489" d="M141 0v979h207v-979h-207zM154 1477h180l262 -308l-84 -63l-268 215l-269 -215l-84 63z" />
<glyph unicode="&#xef;" horiz-adv-x="489" d="M141 0v979h207v-979h-207zM-78 1305q0 55 34 93t93 38t93 -38t34 -93q0 -54 -33.5 -87.5t-93.5 -33.5t-93.5 33.5t-33.5 87.5zM305 1305q0 55 34.5 93t94.5 38q59 0 93 -38t34 -93q0 -54 -33.5 -87.5t-93.5 -33.5q-61 0 -95 33.5t-34 87.5z" />
<glyph unicode="&#xf0;" horiz-adv-x="1257" d="M838 1491l-84 -121q403 -278 403 -778q0 -307 -147 -459.5t-402 -152.5q-232 0 -377 125t-145 354q0 95 26.5 174.5t72.5 135.5t109 95t137 57.5t155 18.5q186 0 323 -96q-76 206 -280 348l-94 -135l-162 108l86 123q-80 39 -213 82l71 186q159 -42 265 -92l92 133z M952 594v20q-71 73 -151 108.5t-183 35.5q-151 0 -231 -78.5t-80 -220.5q0 -149 82.5 -225t214.5 -76q161 0 254.5 114t93.5 322z" />
<glyph unicode="&#xf1;" horiz-adv-x="1122" d="M348 979v-174q24 89 107.5 142.5t203.5 53.5q152 0 241 -96t89 -274v-631h-207v590q0 104 -47.5 161.5t-132.5 57.5q-107 0 -179 -74t-75 -205v-530h-207v979h207zM743 1405h142q0 -114 -45 -185t-127 -71q-46 0 -95.5 21t-91.5 42t-71 21t-45.5 -22.5t-16.5 -63.5h-143 q0 115 53 183.5t129 68.5q52 0 105.5 -22.5t94 -45t60.5 -22.5q28 0 39.5 19.5t11.5 76.5z" />
<glyph unicode="&#xf2;" horiz-adv-x="1173" d="M1071 494q0 -247 -131.5 -380.5t-361.5 -133.5q-229 0 -360.5 133.5t-131.5 380.5q0 244 132.5 375.5t359.5 131.5q229 0 361 -131t132 -376zM297 494q0 -156 75 -245t206 -89q133 0 207.5 88.5t74.5 245.5q0 155 -74 241t-208 86q-131 0 -206 -86.5t-75 -240.5z M674 1137h-144l-272 358h252z" />
<glyph unicode="&#xf3;" horiz-adv-x="1173" d="M1071 494q0 -247 -131.5 -380.5t-361.5 -133.5q-229 0 -360.5 133.5t-131.5 380.5q0 244 132.5 375.5t359.5 131.5q229 0 361 -131t132 -376zM297 494q0 -156 75 -245t206 -89q133 0 207.5 88.5t74.5 245.5q0 155 -74 241t-208 86q-131 0 -206 -86.5t-75 -240.5z M659 1141h-143l162 358h258z" />
<glyph unicode="&#xf4;" horiz-adv-x="1173" d="M1071 494q0 -247 -131.5 -380.5t-361.5 -133.5q-229 0 -360.5 133.5t-131.5 380.5q0 244 132.5 375.5t359.5 131.5q229 0 361 -131t132 -376zM297 494q0 -156 75 -245t206 -89q133 0 207.5 88.5t74.5 245.5q0 155 -74 241t-208 86q-131 0 -206 -86.5t-75 -240.5z M498 1477h180l262 -308l-84 -63l-268 215l-269 -215l-83 63z" />
<glyph unicode="&#xf5;" horiz-adv-x="1173" d="M1071 494q0 -247 -131.5 -380.5t-361.5 -133.5q-229 0 -360.5 133.5t-131.5 380.5q0 244 132.5 375.5t359.5 131.5q229 0 361 -131t132 -376zM297 494q0 -156 75 -245t206 -89q133 0 207.5 88.5t74.5 245.5q0 155 -74 241t-208 86q-131 0 -206 -86.5t-75 -240.5z M737 1405h142q0 -114 -45 -185t-127 -71q-46 0 -95.5 21t-91.5 42t-71 21t-45.5 -22.5t-16.5 -63.5h-143q0 115 53 183.5t129 68.5q52 0 105.5 -22.5t94 -45t60.5 -22.5q28 0 39.5 19.5t11.5 76.5z" />
<glyph unicode="&#xf6;" horiz-adv-x="1173" d="M1071 494q0 -247 -131.5 -380.5t-361.5 -133.5q-229 0 -360.5 133.5t-131.5 380.5q0 244 132.5 375.5t359.5 131.5q229 0 361 -131t132 -376zM297 494q0 -156 75 -245t206 -89q133 0 207.5 88.5t74.5 245.5q0 155 -74 241t-208 86q-131 0 -206 -86.5t-75 -240.5z M266 1305q0 55 34 93t93 38t93 -38t34 -93q0 -54 -33.5 -87.5t-93.5 -33.5t-93.5 33.5t-33.5 87.5zM649 1305q0 55 34.5 93t94.5 38q59 0 93 -38t34 -93q0 -54 -33.5 -87.5t-93.5 -33.5q-61 0 -95 33.5t-34 87.5z" />
<glyph unicode="&#xf7;" horiz-adv-x="1046" d="M938 336h-829v174h829v-174zM385 92q0 50 30.5 84.5t86.5 34.5q55 0 85.5 -34.5t30.5 -84.5q0 -51 -30 -81.5t-86 -30.5q-57 0 -87 30.5t-30 81.5zM385 727q0 50 30.5 84.5t86.5 34.5q55 0 85.5 -34.5t30.5 -84.5q0 -51 -30 -82t-86 -31q-57 0 -87 31t-30 82z" />
<glyph unicode="&#xf8;" horiz-adv-x="1173" d="M362 -80h-204l94 162q-166 135 -166 412q0 244 132.5 375.5t359.5 131.5q102 0 188 -28l53 90h205l-102 -176q149 -136 149 -393q0 -247 -131.5 -380.5t-361.5 -133.5q-83 0 -168 20zM297 494q0 -146 61 -228l314 541q-51 14 -94 14q-131 0 -206 -86.5t-75 -240.5z M860 494q0 118 -49 202l-305 -528q31 -8 72 -8q133 0 207.5 88.5t74.5 245.5z" />
<glyph unicode="&#xf9;" horiz-adv-x="1118" d="M770 979h209v-979h-152l-22 162q-21 -77 -119.5 -129.5t-212.5 -52.5q-146 0 -244 95t-98 273v631h205v-582q0 -107 46.5 -165t137.5 -58q47 0 89 14.5t79.5 45t59.5 86.5t22 131v528zM623 1137h-144l-272 358h252z" />
<glyph unicode="&#xfa;" horiz-adv-x="1118" d="M770 979h209v-979h-152l-22 162q-21 -77 -119.5 -129.5t-212.5 -52.5q-146 0 -244 95t-98 273v631h205v-582q0 -107 46.5 -165t137.5 -58q47 0 89 14.5t79.5 45t59.5 86.5t22 131v528zM608 1141h-143l162 358h258z" />
<glyph unicode="&#xfb;" horiz-adv-x="1118" d="M770 979h209v-979h-152l-22 162q-21 -77 -119.5 -129.5t-212.5 -52.5q-146 0 -244 95t-98 273v631h205v-582q0 -107 46.5 -165t137.5 -58q47 0 89 14.5t79.5 45t59.5 86.5t22 131v528zM457 1477h180l262 -308l-84 -63l-268 215l-268 -215l-84 63z" />
<glyph unicode="&#xfc;" horiz-adv-x="1118" d="M770 979h209v-979h-152l-22 162q-21 -77 -119.5 -129.5t-212.5 -52.5q-146 0 -244 95t-98 273v631h205v-582q0 -107 46.5 -165t137.5 -58q47 0 89 14.5t79.5 45t59.5 86.5t22 131v528zM223 1305q0 55 34 93t93 38t93 -38t34 -93q0 -54 -33.5 -87.5t-93.5 -33.5 t-93.5 33.5t-33.5 87.5zM606 1305q0 55 34.5 93t94.5 38q59 0 93 -38t34 -93q0 -54 -33.5 -87.5t-93.5 -33.5q-61 0 -95 33.5t-34 87.5z" />
<glyph unicode="&#xfd;" horiz-adv-x="1054" d="M272 979l252 -780l269 780h231l-358 -979h-2l-39 -115q-65 -183 -153 -260.5t-224 -77.5q-77 0 -131 15l26 186q31 -8 76 -8q73 0 125.5 43.5t91.5 157.5l19 59h-74l-340 979h231zM600 1141h-143l161 358h259z" />
<glyph unicode="&#xfe;" horiz-adv-x="1210" d="M1118 492q0 -253 -119.5 -382.5t-320.5 -129.5q-225 0 -322 159v-575h-215v1769h215v-499q99 167 328 167q95 0 173.5 -31t137 -92t91 -159.5t32.5 -226.5zM637 825q-117 0 -193 -76t-88 -214v-97q12 -137 89 -209.5t194 -72.5q125 0 196.5 87t71.5 244q0 156 -71.5 247 t-198.5 91z" />
<glyph unicode="&#xff;" horiz-adv-x="1054" d="M272 979l252 -780l269 780h231l-358 -979h-2l-39 -115q-65 -183 -153 -260.5t-224 -77.5q-77 0 -131 15l26 186q31 -8 76 -8q73 0 125.5 43.5t91.5 157.5l19 59h-74l-340 979h231zM207 1305q0 55 34 93t93 38t93 -38t34 -93q0 -54 -33.5 -87.5t-93.5 -33.5t-93.5 33.5 t-33.5 87.5zM590 1305q0 55 34.5 93t94.5 38q59 0 93 -38t34 -93q0 -54 -33.5 -87.5t-93.5 -33.5q-61 0 -95 33.5t-34 87.5z" />
<glyph unicode="&#x152;" horiz-adv-x="1908" d="M946 0q-398 0 -625 186t-227 531t227 531t625 186h856v-205h-631v-408h469v-205h-469v-411h652v-205h-877zM332 717q0 -243 159.5 -373.5t454.5 -130.5v1008q-293 0 -453.5 -133t-160.5 -371z" />
<glyph unicode="&#x153;" horiz-adv-x="1890" d="M1337 1001q218 0 336.5 -130t118.5 -367v-103h-692q34 -243 270 -243q106 0 176.5 31t130.5 85l127 -120q-36 -37 -69.5 -63t-85 -54t-122.5 -42.5t-157 -14.5q-267 0 -395 176q-126 -176 -397 -176q-229 0 -360.5 133.5t-131.5 380.5q0 244 132.5 375.5t359.5 131.5 q268 0 397 -176q125 176 362 176zM297 494q0 -156 75 -245t206 -89q133 0 207.5 88.5t74.5 245.5q0 155 -74 241t-208 86q-131 0 -206 -86.5t-75 -240.5zM1337 825q-102 0 -163 -64t-76 -186h485q-14 121 -75.5 185.5t-170.5 64.5z" />
<glyph unicode="&#x178;" horiz-adv-x="1243" d="M731 516v-516h-219v516l-496 918h240l367 -707l364 707h238zM303 1757q0 55 34 93t93 38t93 -38t34 -93q0 -54 -33.5 -87.5t-93.5 -33.5t-93.5 33.5t-33.5 87.5zM686 1757q0 55 34.5 93t94.5 38q59 0 93 -38t34 -93q0 -54 -33.5 -87.5t-93.5 -33.5q-61 0 -95 33.5 t-34 87.5z" />
<glyph unicode="&#x2c6;" horiz-adv-x="1705" d="M477 1419h180l263 -307l-84 -63l-269 215l-268 -215l-84 63z" />
<glyph unicode="&#x2dc;" horiz-adv-x="935" d="M627 1348h141q0 -114 -45 -185t-127 -71q-46 0 -95.5 21t-91.5 42t-71 21t-45.5 -22.5t-16.5 -63.5h-143q0 115 52.5 183t129.5 68q52 0 105.5 -22.5t94 -45t60.5 -22.5q28 0 40 20t12 77z" />
<glyph unicode="&#x2000;" horiz-adv-x="997" />
<glyph unicode="&#x2001;" horiz-adv-x="1995" />
<glyph unicode="&#x2002;" horiz-adv-x="997" />
<glyph unicode="&#x2003;" horiz-adv-x="1995" />
<glyph unicode="&#x2004;" horiz-adv-x="665" />
<glyph unicode="&#x2005;" horiz-adv-x="498" />
<glyph unicode="&#x2006;" horiz-adv-x="332" />
<glyph unicode="&#x2007;" horiz-adv-x="332" />
<glyph unicode="&#x2008;" horiz-adv-x="249" />
<glyph unicode="&#x2009;" horiz-adv-x="399" />
<glyph unicode="&#x200a;" horiz-adv-x="110" />
<glyph unicode="&#x2010;" horiz-adv-x="911" d="M784 475h-657v205h657v-205z" />
<glyph unicode="&#x2011;" horiz-adv-x="911" d="M784 475h-657v205h657v-205z" />
<glyph unicode="&#x2012;" horiz-adv-x="911" d="M784 475h-657v205h657v-205z" />
<glyph unicode="&#x2013;" horiz-adv-x="911" d="M784 475h-657v205h657v-205z" />
<glyph unicode="&#x2014;" horiz-adv-x="1214" d="M1096 530h-979v162h979v-162z" />
<glyph unicode="&#x2018;" horiz-adv-x="481" d="M369 1133q0 -58 -39 -98t-101 -40q-65 0 -103 44.5t-38 129.5q0 62 23.5 120.5t63.5 105t78.5 79.5t80.5 60l63 -76q-73 -46 -123.5 -104.5t-50.5 -98.5q7 7 27 7q55 0 87 -34t32 -95z" />
<glyph unicode="&#x2019;" horiz-adv-x="481" d="M123 1403q0 58 38.5 97.5t100.5 39.5q65 0 103 -44.5t38 -129.5q0 -62 -23.5 -120.5t-63 -104.5t-78 -79.5t-80.5 -60.5l-64 76q73 46 123.5 104.5t50.5 98.5q-6 -6 -26 -6q-55 0 -87 34t-32 95z" />
<glyph unicode="&#x201a;" horiz-adv-x="501" d="M109 109q0 58 38.5 97.5t100.5 39.5q65 0 103 -44.5t38 -129.5q0 -62 -23.5 -120.5t-63.5 -105t-78.5 -79.5t-80.5 -60l-63 76q73 46 123.5 104.5t50.5 98.5q-6 -6 -27 -6q-55 0 -86.5 34t-31.5 95z" />
<glyph unicode="&#x201c;" horiz-adv-x="835" d="M369 1133q0 -58 -39 -98t-101 -40q-65 0 -103 44.5t-38 129.5q0 62 23.5 120.5t63.5 105t78.5 79.5t80.5 60l63 -76q-73 -46 -123.5 -104.5t-50.5 -98.5q7 7 27 7q55 0 87 -34t32 -95zM723 1133q0 -58 -38.5 -98t-100.5 -40q-65 0 -103.5 44.5t-38.5 129.5 q0 62 23.5 120.5t63.5 105t78.5 79.5t80.5 60l64 -76q-73 -46 -123.5 -104.5t-50.5 -98.5q7 7 26 7q55 0 87 -34t32 -95z" />
<glyph unicode="&#x201d;" horiz-adv-x="856" d="M123 1403q0 58 38.5 97.5t100.5 39.5q65 0 103 -44.5t38 -129.5q0 -62 -23.5 -120.5t-63 -104.5t-78 -79.5t-80.5 -60.5l-64 76q73 46 123.5 104.5t50.5 98.5q-6 -6 -26 -6q-55 0 -87 34t-32 95zM498 1403q0 58 38.5 97.5t100.5 39.5q65 0 103 -44.5t38 -129.5 q0 -62 -23.5 -120.5t-63.5 -105t-78.5 -79.5t-80.5 -60l-63 76q73 46 123.5 104.5t50.5 98.5q-6 -6 -27 -6q-55 0 -86.5 34t-31.5 95z" />
<glyph unicode="&#x201e;" horiz-adv-x="866" d="M109 109q0 58 38.5 97.5t100.5 39.5q65 0 103 -44.5t38 -129.5q0 -62 -23.5 -120.5t-63.5 -105t-78.5 -79.5t-80.5 -60l-63 76q73 46 123.5 104.5t50.5 98.5q-6 -6 -27 -6q-55 0 -86.5 34t-31.5 95zM473 109q0 58 38.5 97.5t100.5 39.5q65 0 103.5 -44.5t38.5 -129.5 q0 -62 -23.5 -120.5t-63.5 -105t-78.5 -79.5t-80.5 -60l-64 76q73 46 123.5 104.5t50.5 98.5q-6 -6 -26 -6q-55 0 -87 34t-32 95z" />
<glyph unicode="&#x2022;" horiz-adv-x="692" d="M160 717q0 81 49.5 135.5t136.5 54.5t136.5 -54.5t49.5 -135.5q0 -78 -49 -128t-137 -50t-137 50t-49 128z" />
<glyph unicode="&#x2026;" horiz-adv-x="1572" d="M109 111q0 58 36 97.5t101 39.5q63 0 99 -39.5t36 -97.5t-35.5 -94.5t-99.5 -36.5q-65 0 -101 36.5t-36 94.5zM649 111q0 58 36 97.5t101 39.5q64 0 101 -39.5t37 -97.5q0 -57 -37 -94t-101 -37q-65 0 -101 36.5t-36 94.5zM1192 111q0 59 35 98t100 39q64 0 100.5 -39.5 t36.5 -97.5q0 -57 -36.5 -94t-100.5 -37q-65 0 -100 36.5t-35 94.5z" />
<glyph unicode="&#x202f;" horiz-adv-x="399" />
<glyph unicode="&#x2039;" horiz-adv-x="624" d="M391 49l-317 457l317 442l141 -96l-247 -344l247 -363z" />
<glyph unicode="&#x203a;" horiz-adv-x="622" d="M549 506l-318 -457l-141 96l248 363l-248 344l141 96z" />
<glyph unicode="&#x205f;" horiz-adv-x="498" />
<glyph unicode="&#x20ac;" horiz-adv-x="1552" d="M934 -20q-269 0 -440.5 130.5t-223.5 374.5h-207l64 162h123q-2 20 -2 64v6h-174l63 162h123q41 276 217.5 424.5t454.5 148.5q348 0 526 -235l-176 -146q-77 85 -160.5 126.5t-193.5 41.5q-168 0 -279.5 -94.5t-146.5 -265.5h579l-63 -162h-531q0 -47 2 -70h435 l-64 -162h-338q51 -141 160 -216.5t258 -75.5q223 0 365 159l163 -139q-86 -109 -220.5 -171t-313.5 -62z" />
<glyph unicode="&#x2122;" horiz-adv-x="1617" d="M1337 745v494l-190 -494h-100l-185 484v-484h-121v689h172l183 -498l190 498h178v-689h-127zM614 1434v-95h-204v-594h-129v594h-213v95h546z" />
<glyph unicode="&#x25fc;" horiz-adv-x="983" d="M0 983h983v-983h-983v983z" />
</font>
</defs>
</svg>
