<?xml version="1.0" standalone="no"?>
<!DOCTYPE svg PUBLIC "-//W3C//DTD SVG 1.1//EN" "http://www.w3.org/Graphics/SVG/1.1/DTD/svg11.dtd" >
<svg xmlns="http://www.w3.org/2000/svg">
<metadata></metadata>
<defs>
<font id="haboro_sansnorm_book" horiz-adv-x="1251" >
<font-face units-per-em="2048" ascent="1638" descent="-410" />
<missing-glyph horiz-adv-x="509" />
<glyph horiz-adv-x="0" />
<glyph horiz-adv-x="682" />
<glyph horiz-adv-x="0" />
<glyph horiz-adv-x="0" />
<glyph unicode="&#xd;" horiz-adv-x="509" />
<glyph unicode=" "  horiz-adv-x="509" />
<glyph unicode="&#x09;" horiz-adv-x="509" />
<glyph unicode="&#xa0;" horiz-adv-x="509" />
<glyph unicode="!" horiz-adv-x="512" d="M311 299h-110l-23 1282h156zM158 74q0 44 25.5 73t72.5 29t73.5 -29t26.5 -73q0 -41 -26 -67.5t-74 -26.5t-73 26t-25 68z" />
<glyph unicode="&#x22;" horiz-adv-x="743" d="M174 928l-45 506h166l-43 -506h-78zM494 928l-45 506h165l-43 -506h-77z" />
<glyph unicode="#" horiz-adv-x="1185" d="M1079 903h-190l-78 -364h186v-103h-209l-92 -436h-118l92 436h-273l-92 -436h-117l93 436h-183v103h203l78 364h-176v103h196l93 428h116l-92 -428h275l92 428h118l-92 -428h170v-103zM496 903l-78 -364h274l78 364h-274z" />
<glyph unicode="$" horiz-adv-x="1056" d="M571 -188h-114v170q-236 17 -381 192l98 88q45 -48 86.5 -79t110.5 -55t151 -24q137 0 222 71t85 187q0 79 -38.5 138.5t-100 96.5t-135.5 68.5t-148 66t-135.5 78t-100 115.5t-38.5 167q0 155 93.5 249.5t258.5 108.5l4 172h115l-2 -174q185 -16 318 -156l-99 -86 q-65 60 -128.5 90.5t-149.5 30.5q-123 0 -198 -62t-75 -171q0 -58 24 -103.5t64.5 -76.5t93 -57t110.5 -49.5t115.5 -49t110 -59.5t93 -77t64.5 -107t24 -144q0 -161 -107 -266.5t-289 -120.5z" />
<glyph unicode="%" horiz-adv-x="1873" d="M571 -57h-135l852 1530h137zM731 1106q0 -165 -91.5 -257.5t-240.5 -92.5q-147 0 -239 92.5t-92 257.5q0 166 92 258t239 92q149 0 240.5 -92t91.5 -258zM618 1106q0 118 -60 181t-159 63q-97 0 -157 -63t-60 -181q0 -115 60 -179.5t157 -64.5q98 0 158.5 64t60.5 180z M1806 334q0 -165 -92 -257.5t-239 -92.5q-149 0 -240.5 92.5t-91.5 257.5q0 166 91.5 258t240.5 92q147 0 239 -92t92 -258zM1692 334q0 118 -60 181t-157 63t-157.5 -63t-60.5 -181q0 -116 60.5 -180t157.5 -64t157 63.5t60 180.5z" />
<glyph unicode="&#x26;" horiz-adv-x="1349" d="M584 1452q137 0 243 -45t156 -100l-68 -95q-66 56 -143.5 88.5t-191.5 32.5q-140 0 -203.5 -57t-63.5 -172q0 -142 75 -203t233 -61h663v-119h-276v-655q-162 -86 -416 -86q-473 0 -473 432q0 78 19.5 140.5t49.5 101.5t72 67t80.5 41.5t81.5 21.5q-114 19 -180 100.5 t-66 207.5q0 182 98.5 271t309.5 89zM621 721q-188 0 -276.5 -73.5t-88.5 -231.5q0 -160 82.5 -238t255.5 -78q167 0 285 47v574h-258z" />
<glyph unicode="'" horiz-adv-x="423" d="M174 928l-45 506h166l-43 -506h-78z" />
<glyph unicode="(" horiz-adv-x="641" d="M250 573q0 -249 91.5 -506t250.5 -432l-49 -57q-194 156 -315.5 428.5t-121.5 566.5q0 292 122 565t315 429l49 -58q-159 -175 -250.5 -431t-91.5 -505z" />
<glyph unicode=")" horiz-adv-x="641" d="M391 573q0 249 -91.5 505t-250.5 431l49 58q193 -156 315 -429t122 -565q0 -294 -121.5 -566.5t-315.5 -428.5l-49 57q159 175 250.5 432t91.5 506z" />
<glyph unicode="*" horiz-adv-x="976" d="M143 983l285 127l-281 127l56 113l254 -187l-31 312h125l-31 -314l252 185l59 -109l-280 -127l280 -125l-55 -113l-256 185l31 -309h-125l31 311l-256 -187z" />
<glyph unicode="+" horiz-adv-x="989" d="M553 1020v-338h334v-104h-334v-338h-121v338h-330v104h330v338h121z" />
<glyph unicode="," horiz-adv-x="471" d="M135 78q0 42 28.5 70t67.5 28q48 0 76.5 -31.5t28.5 -97.5q0 -89 -55.5 -170.5t-135.5 -140.5l-49 53q63 50 103.5 105.5t40.5 89.5q-8 -4 -25 -4q-36 0 -58 24t-22 74z" />
<glyph unicode="-" horiz-adv-x="880" d="M735 512h-590v125h590v-125z" />
<glyph unicode="." horiz-adv-x="466" d="M133 74q0 44 26.5 73t73.5 29q46 0 72.5 -29.5t26.5 -72.5q0 -41 -26.5 -67.5t-72.5 -26.5q-48 0 -74 26.5t-26 67.5z" />
<glyph unicode="/" horiz-adv-x="1069" d="M190 -123h-139l826 1639h139z" />
<glyph unicode="0" horiz-adv-x="1269" d="M1151 725q0 -204 -59 -371t-177.5 -270.5t-277.5 -103.5q-121 0 -220.5 60t-163.5 162.5t-99 237t-35 285.5q0 202 59 365t178.5 262.5t280.5 99.5q159 0 277.5 -99.5t177.5 -262.5t59 -365zM260 727q0 -122 23 -232t68 -199t119 -141.5t167 -52.5t166 52t117 141 t67 198.5t23 231.5q0 118 -22 223.5t-65.5 192t-117 137.5t-168.5 51t-169.5 -50.5t-118.5 -136.5t-66.5 -191.5t-22.5 -223.5z" />
<glyph unicode="1" horiz-adv-x="589" d="M88 1241l-16 98l276 113h41v-1452h-129v1298z" />
<glyph unicode="2" horiz-adv-x="1071" d="M94 0v61l293 328q102 115 160.5 186.5t124 166t95.5 175t30 156.5q0 121 -75.5 190.5t-207.5 69.5q-112 0 -188.5 -53.5t-137.5 -163.5l-98 70q34 61 71 105.5t88 83t119 58t152 19.5q191 0 302.5 -100.5t111.5 -270.5q0 -53 -13.5 -109t-31 -102t-57 -109t-66.5 -102.5 t-87 -112t-91.5 -108.5t-104.5 -119l-180 -202h666v-117h-875z" />
<glyph unicode="3" horiz-adv-x="1093" d="M524 1452q193 0 295.5 -97.5t102.5 -258.5q0 -142 -63.5 -226.5t-178.5 -105.5q42 -6 81 -21t78.5 -44t68.5 -69t47 -101.5t18 -137.5q0 -197 -120 -304t-321 -107q-357 0 -473 282l119 49q94 -215 348 -215q139 0 224.5 78.5t85.5 218.5q0 148 -89 228.5t-264 80.5h-67 v119h65q152 0 227.5 70.5t75.5 198.5q0 115 -66.5 180t-191.5 65q-197 0 -297 -176l-106 53q27 52 59 92t79 75t113.5 54t149.5 19z" />
<glyph unicode="4" horiz-adv-x="1138" d="M57 297v111l658 1030h127v-1026h227v-115h-227v-297h-129v297h-656zM195 412h518v821z" />
<glyph unicode="5" horiz-adv-x="1054" d="M500 100q152 0 232.5 85.5t80.5 236.5q0 168 -99 258t-304 90h-226l43 664h658v-119h-545l-31 -426h133q258 0 383 -120.5t125 -346.5q0 -208 -115.5 -325t-338.5 -117q-154 0 -253 55t-177 168l110 67q69 -90 142 -130t182 -40z" />
<glyph unicode="6" horiz-adv-x="1155" d="M655 1331q-35 0 -67.5 -5.5t-71 -22.5t-71.5 -44.5t-65.5 -74t-56 -108t-39.5 -151t-20 -198.5q79 81 164 118.5t190 37.5q85 0 157 -24t131.5 -74t93.5 -137t34 -202q0 -212 -115 -339t-329 -127q-111 0 -194.5 36.5t-145 115.5t-93.5 212t-32 318q0 141 18.5 257.5 t49 197t74 142t89.5 97t100.5 58.5t100.5 30.5t96 7.5q140 0 224.5 -46t148.5 -134l-98 -78q-57 73 -118.5 105t-154.5 32zM606 762q-97 0 -179 -43.5t-163 -126.5q10 -257 93 -374.5t241 -117.5q144 0 221.5 91.5t77.5 246.5q0 160 -79.5 242t-211.5 82z" />
<glyph unicode="7" horiz-adv-x="950" d="M903 1434v-86l-565 -1350h-150l547 1309h-680v127h848z" />
<glyph unicode="8" horiz-adv-x="1142" d="M948 1098q0 -225 -188 -299q125 -43 196.5 -145.5t71.5 -256.5q0 -206 -123.5 -311.5t-331.5 -105.5q-209 0 -333.5 106.5t-124.5 314.5q0 152 71 254t197 144q-188 76 -188 299q0 168 102 261t274 93q173 0 275 -92.5t102 -261.5zM252 401q0 -144 86 -224.5t233 -80.5 q149 0 235.5 80t86.5 227q0 150 -87.5 239t-232.5 89q-146 0 -233.5 -90t-87.5 -240zM324 1100q0 -49 12.5 -91.5t39.5 -80t77 -59t118 -21.5q69 0 120 22t79 59.5t40.5 80.5t12.5 92q0 113 -66 175t-186 62q-119 0 -183 -63t-64 -176z" />
<glyph unicode="9" horiz-adv-x="1144" d="M498 100q30 0 58.5 4.5t65.5 20t68 40.5t63.5 70t56.5 105t41.5 149.5t22.5 198.5q-148 -135 -342 -135q-82 0 -152.5 22.5t-130 71t-94 135t-34.5 203.5q0 211 113.5 339t324.5 128q108 0 190.5 -37t144 -116.5t93 -212.5t31.5 -316q0 -142 -19 -260t-50 -198 t-75 -141.5t-89.5 -96.5t-99 -57t-97.5 -29.5t-90 -7.5q-241 0 -379 153l94 92q52 -59 130 -92t155 -33zM543 672q174 0 334 147q-6 273 -85 391.5t-229 118.5q-149 0 -224 -94t-75 -252q0 -157 73.5 -234t205.5 -77z" />
<glyph unicode=":" horiz-adv-x="489" d="M145 901q0 44 27 73.5t74 29.5q45 0 71.5 -30t26.5 -73q0 -41 -26 -67.5t-72 -26.5q-48 0 -74.5 26.5t-26.5 67.5zM145 74q0 43 26.5 72.5t74.5 29.5q46 0 72 -29.5t26 -72.5q0 -41 -26 -67.5t-72 -26.5q-48 0 -74.5 26.5t-26.5 67.5z" />
<glyph unicode=";" horiz-adv-x="540" d="M182 899q0 43 25.5 71.5t73.5 28.5t74 -28.5t26 -71.5q0 -42 -26 -69t-74 -27t-73.5 27t-25.5 69zM176 78q0 42 28.5 70t67.5 28q48 0 76.5 -31.5t28.5 -97.5q0 -89 -55.5 -170.5t-135.5 -140.5l-49 53q63 50 103.5 105.5t40.5 89.5q-8 -4 -25 -4q-36 0 -58 24t-22 74z " />
<glyph unicode="&#x3c;" horiz-adv-x="1093" d="M963 88l-877 406v155l877 371v-137l-764 -312l764 -346v-137z" />
<glyph unicode="=" horiz-adv-x="1175" d="M152 666v127h872v-127h-872zM152 283v127h872v-127h-872z" />
<glyph unicode="&#x3e;" horiz-adv-x="1093" d="M1008 494l-877 -406v137l764 346l-764 312v137l877 -371v-155z" />
<glyph unicode="?" horiz-adv-x="927" d="M336 74q0 44 26.5 73t73.5 29q46 0 72.5 -29.5t26.5 -72.5q0 -41 -26.5 -67.5t-72.5 -26.5q-48 0 -74 26.5t-26 67.5zM444 1321q-83 0 -161.5 -38t-120.5 -101l-103 88q60 83 164.5 132.5t231.5 49.5q177 0 283 -98t106 -269q0 -73 -21 -133.5t-54.5 -103t-74 -81.5 t-80.5 -77.5t-73.5 -82t-54.5 -105.5t-21 -137v-99h-131v94q0 96 20 172t52 125.5t70.5 89.5t77 73.5t70.5 68t52 82t20 106.5q0 121 -73.5 182.5t-178.5 61.5z" />
<glyph unicode="@" horiz-adv-x="1632" d="M1530 768q0 -184 -75 -280.5t-222 -96.5q-153 0 -205 105q-84 -107 -260 -107q-79 0 -136.5 24t-90.5 67.5t-48.5 97t-15.5 120.5q0 155 77.5 234.5t223.5 79.5q62 0 112.5 -16t113.5 -56v41l110 2v-358q0 -78 34 -108t91 -30q90 0 129 62.5t39 200.5q0 134 -33.5 242 t-101 188.5t-177 124t-253.5 43.5q-281 0 -443.5 -178t-162.5 -472q0 -292 159 -453t426 -161q207 0 345.5 61t215.5 156l82 -65q-72 -103 -243 -179.5t-400 -76.5q-156 0 -285 47t-223 136t-146 224.5t-52 304.5q0 224 88 396t253.5 268t385.5 96q139 0 253.5 -36.5 t194 -100.5t134.5 -151t80.5 -186.5t25.5 -209.5zM791 483q136 0 213 115v240q-105 77 -211 77q-191 0 -191 -217q0 -215 189 -215z" />
<glyph unicode="A" d="M1079 0l-147 401h-615l-143 -401h-145l524 1434h141l533 -1434h-148zM625 1249l-260 -721h522z" />
<glyph unicode="B" horiz-adv-x="1220" d="M201 0v1434h374q236 0 347.5 -96.5t111.5 -260.5q0 -129 -66 -207.5t-163 -99.5q59 -7 109 -27.5t97 -60.5t74 -111.5t27 -167.5q0 -403 -506 -403h-405zM602 707h-262v-590h276q349 0 349 289q0 301 -363 301zM571 1317h-231v-494h252q295 0 295 250q0 119 -75 181.5 t-241 62.5z" />
<glyph unicode="C" horiz-adv-x="1316" d="M758 -20q-142 0 -258 45.5t-202 134.5t-133.5 230.5t-47.5 324.5q0 182 47.5 323t134 231t204 136.5t261.5 46.5q170 0 279.5 -59.5t199.5 -169.5l-102 -88q-87 98 -174.5 143t-206.5 45q-228 0 -362 -157t-134 -451q0 -298 134.5 -452t361.5 -154q88 0 163.5 26.5 t121.5 59.5t104 88l98 -84q-31 -34 -60.5 -61t-75.5 -58t-94.5 -51.5t-116 -34.5t-142.5 -14z" />
<glyph unicode="D" horiz-adv-x="1361" d="M201 0v1434h305q185 0 328.5 -54.5t232.5 -152t134.5 -227.5t45.5 -287q0 -159 -46.5 -289t-137.5 -225t-233 -147t-324 -52h-305zM494 1307h-154v-1180h154q129 0 230.5 28.5t170.5 79.5t114 125.5t65 162t20 192.5q0 131 -35.5 237.5t-107 186.5t-188 124t-269.5 44z " />
<glyph unicode="E" horiz-adv-x="1122" d="M201 0v1434h807v-127h-668v-512h522v-125h-522v-543h688v-127h-827z" />
<glyph unicode="F" horiz-adv-x="1056" d="M201 0v1434h805v-127h-666v-557h494v-125h-494v-625h-139z" />
<glyph unicode="G" horiz-adv-x="1353" d="M766 -20q-306 0 -477.5 198.5t-171.5 536.5q0 180 49 322t135 231.5t199 136.5t245 47q89 0 162 -14.5t129.5 -42.5t95 -56t82.5 -69l-98 -90q-132 143 -368 143q-101 0 -187.5 -37.5t-153.5 -110.5t-105 -192.5t-38 -273.5q0 -279 135.5 -439.5t370.5 -160.5 q162 0 307 53v375h-313v127h453v-588q-205 -96 -451 -96z" />
<glyph unicode="H" horiz-adv-x="1380" d="M340 0h-139v1434h139v-643h700v643h140v-1434h-140v666h-700v-666z" />
<glyph unicode="I" horiz-adv-x="540" d="M201 0v1434h139v-1434h-139z" />
<glyph unicode="J" horiz-adv-x="559" d="M-63 -442l-31 100q313 77 313 465v1311h139v-1307q0 -478 -421 -569z" />
<glyph unicode="K" horiz-adv-x="1222" d="M1018 1434h164l-559 -576l585 -858h-153l-520 768l-195 -201v-567h-139v1434h139v-699z" />
<glyph unicode="L" horiz-adv-x="1036" d="M201 0v1434h139v-1307h647v-127h-786z" />
<glyph unicode="M" horiz-adv-x="1802" d="M1464 0v1280l-493 -1280h-140l-491 1288v-1288h-139v1434h225l475 -1268l481 1268h220v-1434h-138z" />
<glyph unicode="N" horiz-adv-x="1488" d="M1145 195h6v1239h137v-1434h-166l-594 967q-54 87 -180 321h-6v-1288h-139v1434h200l611 -994q46 -76 131 -245z" />
<glyph unicode="O" horiz-adv-x="1474" d="M1358 715q0 -338 -165.5 -536.5t-457.5 -198.5q-291 0 -454.5 198.5t-163.5 538.5q0 338 164 536.5t454 198.5q292 0 457.5 -199.5t165.5 -537.5zM258 719q0 -286 122.5 -451.5t354.5 -165.5q233 0 357.5 166.5t124.5 446.5q0 179 -53 315.5t-163.5 217.5t-265.5 81 q-154 0 -263.5 -80t-161.5 -215.5t-52 -314.5z" />
<glyph unicode="P" horiz-adv-x="1157" d="M201 0v1434h360q258 0 389 -100t131 -314q0 -220 -130.5 -318t-391.5 -98h-219v-604h-139zM557 1307h-217v-578h217q193 0 285 66.5t92 226.5q0 154 -92 219.5t-285 65.5z" />
<glyph unicode="Q" horiz-adv-x="1482" d="M1358 715q0 -263 -102 -445.5t-289 -251.5q63 -27 157 -73l336 -164l-65 -113l-334 182q-118 64 -196 97t-130 33q-291 0 -454.5 198.5t-163.5 538.5q0 338 164 536.5t454 198.5q292 0 457.5 -199.5t165.5 -537.5zM258 719q0 -286 122.5 -451.5t354.5 -165.5 q233 0 357.5 166.5t124.5 446.5q0 179 -53 315.5t-163.5 217.5t-265.5 81q-154 0 -263.5 -80t-161.5 -215.5t-52 -314.5z" />
<glyph unicode="R" horiz-adv-x="1187" d="M201 0v1434h340q506 0 506 -408q0 -328 -334 -391l422 -635h-166l-404 621h-225v-621h-139zM537 1307h-197v-559h197q190 0 276 66.5t86 209.5q0 142 -87 212.5t-275 70.5z" />
<glyph unicode="S" horiz-adv-x="1073" d="M549 1327q-123 0 -198 -62t-75 -171q0 -58 24 -103.5t64.5 -76.5t93 -57t110.5 -49.5t115.5 -49t110 -59.5t93 -77t64.5 -107t24 -144q0 -173 -124 -282t-329 -109q-156 0 -260.5 52.5t-179.5 141.5l98 88q45 -48 86.5 -79t110.5 -55t151 -24q137 0 222.5 71t85.5 187 q0 79 -38.5 138.5t-100 96.5t-135.5 68.5t-148.5 66t-136 78t-100 115.5t-38.5 167q0 168 109.5 264t300.5 96q121 0 211 -40.5t166 -119.5l-99 -86q-65 60 -128.5 90.5t-149.5 30.5z" />
<glyph unicode="T" horiz-adv-x="1079" d="M475 0v1307h-418v127h965v-127h-408v-1307h-139z" />
<glyph unicode="U" horiz-adv-x="1353" d="M1028 518v916h137v-920q0 -265 -126.5 -398.5t-362.5 -133.5q-235 0 -362.5 134t-127.5 398v920h140v-916q0 -195 85 -302t265 -107t266 107t86 302z" />
<glyph unicode="V" horiz-adv-x="1204" d="M602 176l404 1258h147l-479 -1434h-146l-475 1434h146z" />
<glyph unicode="W" horiz-adv-x="1863" d="M852 1413h158l331 -1253l316 1274h143l-375 -1434h-155l-340 1247l-344 -1247h-154l-371 1434h144l311 -1274z" />
<glyph unicode="X" horiz-adv-x="1167" d="M37 0l473 735l-449 699h150l373 -582l374 582h146l-447 -697l473 -737h-147l-399 621l-400 -621h-147z" />
<glyph unicode="Y" horiz-adv-x="1179" d="M659 553v-553h-137v553l-483 881h149l402 -748l401 748h150z" />
<glyph unicode="Z" horiz-adv-x="1105" d="M1001 1434v-105l-743 -1202h768v-127h-938v102l743 1205h-737v127h907z" />
<glyph unicode="[" horiz-adv-x="624" d="M328 1372v-1565l227 -40v-82h-367v1810h367v-82z" />
<glyph unicode="\" horiz-adv-x="1069" d="M1018 -123h-139l-826 1639h140z" />
<glyph unicode="]" horiz-adv-x="624" d="M297 -193v1565l-227 41v82h366v-1810h-366v82z" />
<glyph unicode="^" horiz-adv-x="1044" d="M461 1434h121l352 -457h-146l-266 342l-268 -342h-143z" />
<glyph unicode="_" horiz-adv-x="966" d="M0 -279v127h967v-127h-967z" />
<glyph unicode="`" horiz-adv-x="292" d="M262 1081h-82l-264 338h170z" />
<glyph unicode="a" horiz-adv-x="1038" d="M475 885q-84 0 -146.5 -28t-123.5 -81l-80 74q133 151 362 151q398 0 398 -401v-606h-103l-20 145q-60 -87 -152.5 -124.5t-195.5 -37.5q-148 0 -234 72t-86 207q0 137 97 218t309 81h258v41q0 289 -283 289zM430 90q41 0 82.5 8t86.5 28.5t79.5 51.5t57 82t22.5 115v74 h-258q-136 0 -204.5 -49t-68.5 -140q0 -47 18 -81.5t48 -53t64 -27t73 -8.5z" />
<glyph unicode="b" horiz-adv-x="1163" d="M1053 494q0 -250 -113.5 -382t-308.5 -132q-227 0 -332 176l-33 -164h-102v1544h129v-723q103 188 340 188q195 0 307.5 -128.5t112.5 -378.5zM293 494q0 -198 92.5 -302t235.5 -104t224 104t81 297q0 191 -80.5 297.5t-229.5 106.5q-145 0 -234 -101.5t-89 -297.5z" />
<glyph unicode="c" horiz-adv-x="974" d="M553 891q-157 0 -237 -109t-80 -295q0 -189 79.5 -293t235.5 -104q64 0 120 20t87 42t73 59l82 -78q-80 -75 -165 -114t-197 -39q-212 0 -327 131t-115 374q0 242 114.5 379t325.5 137q199 0 340 -141l-88 -78q-42 36 -70 56t-75.5 36.5t-102.5 16.5z" />
<glyph unicode="d" horiz-adv-x="1146" d="M983 0h-111l-20 174q-98 -194 -328 -194q-186 0 -300.5 124.5t-114.5 378.5q0 255 117 386.5t309 131.5q227 0 321 -190v725h127v-1536zM856 483q0 39 -5.5 79t-17.5 88t-36 89.5t-57.5 76.5t-85 55t-115.5 20q-140 0 -221.5 -101t-81.5 -311q0 -389 296 -389 q66 0 119 19t87 52.5t58.5 72.5t37 85.5t17.5 85.5t5 78z" />
<glyph unicode="e" horiz-adv-x="1048" d="M524 1001q416 0 416 -497v-62h-698q10 -173 92.5 -260.5t220.5 -87.5q99 0 178.5 38t128.5 93l82 -78q-45 -47 -89 -79.5t-124.5 -60t-177.5 -27.5q-95 0 -173 27.5t-140 85.5t-96.5 159t-34.5 237q0 129 31.5 228.5t88 160.5t131 92t164.5 31zM524 889 q-125 0 -198 -88.5t-84 -247.5h563q-16 336 -281 336z" />
<glyph unicode="f" horiz-adv-x="598" d="M512 1423q-87 0 -131.5 -53.5t-44.5 -181.5v-209h217v-113h-217v-866h-127v866h-125v113h125v211q0 346 287 346q91 0 163 -27l-20 -110q-54 24 -127 24z" />
<glyph unicode="g" horiz-adv-x="1146" d="M856 979h127v-895q0 -265 -120.5 -400t-348.5 -135q-230 0 -375 123l78 92q52 -42 130 -71t167 -29q158 0 250 104t92 316v92q-97 -196 -332 -196q-89 0 -162.5 29t-130.5 88t-88.5 157.5t-31.5 228.5q0 255 117 386.5t309 131.5q225 0 319 -186v164zM858 483 q0 39 -5.5 79t-17.5 88t-36 89.5t-57.5 76.5t-85 55t-115.5 20q-140 0 -221.5 -101t-81.5 -311q0 -389 294 -389q78 0 138.5 28t95 69.5t56.5 97.5t29 103.5t7 94.5z" />
<glyph unicode="h" horiz-adv-x="1083" d="M926 0h-127v618q0 128 -59.5 197.5t-161.5 69.5q-54 0 -103 -17t-91.5 -53.5t-67.5 -101.5t-25 -152v-561h-127v1536h127v-727q23 87 110.5 139.5t204.5 52.5q146 0 233 -92t87 -268v-641z" />
<glyph unicode="i" horiz-adv-x="456" d="M164 0v979h129v-979h-129zM125 1337q0 45 27 75t75 30t74.5 -30t26.5 -75q0 -42 -26.5 -69t-74.5 -27t-75 27.5t-27 68.5z" />
<glyph unicode="j" horiz-adv-x="456" d="M6 -451l-26 91q97 29 140.5 114.5t43.5 235.5v989h129v-985q0 -199 -70.5 -306.5t-216.5 -138.5zM129 1337q0 45 26.5 75t73.5 30q49 0 76 -30t27 -75q0 -42 -27 -69t-76 -27q-48 0 -74 27t-26 69z" />
<glyph unicode="k" horiz-adv-x="980" d="M164 0v1536h129v-1077l477 520h158l-355 -377l373 -602h-147l-314 510l-192 -205v-305h-129z" />
<glyph unicode="l" horiz-adv-x="456" d="M164 0v1536h129v-1536h-129z" />
<glyph unicode="m" horiz-adv-x="1607" d="M164 0v979h127v-172q20 89 93 141.5t177 52.5q91 0 169 -44t114 -134q30 81 108 129.5t185 48.5q59 0 112 -17t100 -52.5t75 -100t28 -149.5v-682h-129v647q0 119 -57 178.5t-156 59.5q-46 0 -86 -14t-74.5 -44t-56 -84.5t-23.5 -128.5v-614h-127v647q0 111 -57 174.5 t-149 63.5q-103 0 -173 -76.5t-73 -228.5v-580h-127z" />
<glyph unicode="n" horiz-adv-x="1083" d="M293 979v-170q22 87 109 139.5t204 52.5q146 0 234 -92t88 -268v-641h-129v618q0 128 -59.5 197.5t-161.5 69.5q-53 0 -101 -16.5t-89.5 -50.5t-67 -96t-27.5 -144v-578h-129v979h129z" />
<glyph unicode="o" horiz-adv-x="1122" d="M1016 498q0 -245 -121 -381.5t-334 -136.5q-212 0 -333.5 136.5t-121.5 381.5q0 243 122 373t333 130t333 -130t122 -373zM236 498q0 -186 85.5 -294t239.5 -108q155 0 240.5 107.5t85.5 294.5q0 185 -85 286t-241 101q-155 0 -240 -101t-85 -286z" />
<glyph unicode="p" horiz-adv-x="1161" d="M164 -434v1413h129v-162q103 184 338 184q195 0 307.5 -128.5t112.5 -378.5t-113.5 -382t-308.5 -132q-235 0 -336 184v-598h-129zM291 494q0 -198 92 -302t235 -104t224.5 104t81.5 297q0 191 -80.5 297.5t-227.5 106.5q-146 0 -235.5 -101.5t-89.5 -297.5z" />
<glyph unicode="q" horiz-adv-x="1146" d="M109 483q0 256 116.5 387t309.5 131q231 0 323 -196l39 176h86v-1415h-129v610q-97 -196 -330 -196q-186 0 -300.5 124.5t-114.5 378.5zM530 90q72 0 129 23.5t91.5 60t58 86t33 94t12.5 92.5v68q-2 48 -11 95t-31.5 100t-56 92t-89.5 64.5t-127 25.5q-140 0 -221.5 -101 t-81.5 -311q0 -389 294 -389z" />
<glyph unicode="r" horiz-adv-x="714" d="M684 981l-22 -119q-45 25 -103 25q-34 0 -69 -12.5t-71 -43.5t-64 -76t-46 -116.5t-18 -159.5v-479h-127v979h123v-217q20 108 97.5 175t186.5 67q69 0 113 -23z" />
<glyph unicode="s" horiz-adv-x="856" d="M446 1001q103 0 169.5 -31.5t123.5 -82.5l-84 -86q-51 44 -97 65t-116 21q-84 0 -137 -32.5t-53 -102.5q0 -45 28 -78.5t72 -55t98 -40.5t108 -43t98 -55.5t72 -84.5t28 -123q0 -135 -87.5 -213.5t-252.5 -78.5q-126 0 -210.5 41.5t-125.5 97.5l86 82q102 -107 250 -107 q100 0 155.5 43.5t55.5 132.5q0 45 -21.5 79t-57 55t-80.5 41t-92 35t-92 38.5t-80.5 51.5t-57 73.5t-21.5 104.5q0 69 27.5 120.5t74.5 79t101.5 40.5t117.5 13z" />
<glyph unicode="t" horiz-adv-x="675" d="M346 1233v-254h258v-113h-258v-569q0 -203 156 -203q54 0 116 15l5 -113q-59 -16 -131 -16q-134 0 -203.5 73t-69.5 238v575h-160v113h160l51 254h76z" />
<glyph unicode="u" horiz-adv-x="1081" d="M788 979h127v-979h-102l-6 178q-22 -85 -115 -140.5t-213 -55.5q-64 0 -120.5 19t-103 58.5t-74 108t-27.5 158.5v653h127v-629q0 -115 57.5 -183.5t173.5 -68.5q52 0 98.5 15.5t88 49t65.5 94.5t24 144v578z" />
<glyph unicode="v" horiz-adv-x="974" d="M197 979l290 -825l291 825h140l-373 -979h-115l-373 979h140z" />
<glyph unicode="w" horiz-adv-x="1447" d="M784 963l240 -775l238 791h120l-301 -979h-112l-242 778l-252 -778h-110l-297 979h135l221 -791l252 775h108z" />
<glyph unicode="x" horiz-adv-x="962" d="M49 0l361 494l-353 485h142l282 -389l283 389h139l-352 -483l362 -496h-141l-293 399l-289 -399h-141z" />
<glyph unicode="y" horiz-adv-x="991" d="M205 979l293 -821l299 821h139l-373 -979l-33 -92q-37 -105 -75 -174.5t-82 -109t-89.5 -55t-105.5 -15.5q-51 0 -78 8l15 114q19 -8 55 -8q35 0 62.5 9t60.5 34t64.5 80t60.5 139l22 70h-10l-367 979h142z" />
<glyph unicode="z" horiz-adv-x="933" d="M74 82l579 784h-538v113h714v-82l-583 -784h608v-113h-780v82z" />
<glyph unicode="{" horiz-adv-x="663" d="M596 -332v-106q-176 0 -280.5 113t-104.5 321q0 67 5 168.5t5 148.5q0 73 -35.5 123.5t-105.5 63.5v78q143 29 143 219q-12 144 -12 288q0 207 105 321t280 114v-109q-116 0 -184 -95t-68 -233q0 -37 4 -123.5t4 -130.5q0 -134 -28 -194q-12 -25 -26 -43t-25 -27.5 t-31 -23.5q5 -3 21.5 -13.5t21 -14t15.5 -13.5t18.5 -22t15.5 -29q31 -61 31 -146q0 -40 -10.5 -144.5t-10.5 -170.5q0 -131 68.5 -225.5t183.5 -94.5z" />
<glyph unicode="|" horiz-adv-x="516" d="M328 1538v-2050h-140v2050h140z" />
<glyph unicode="}" horiz-adv-x="663" d="M68 -438v106q115 0 183 94.5t68 225.5q0 66 -10 170.5t-10 144.5q0 85 31 146q8 17 15.5 29t18.5 22t15.5 13.5t21 14t21.5 13.5q-20 14 -31 23.5t-25 27.5t-26 43q-29 62 -29 194q0 44 4 130.5t4 123.5q0 138 -67.5 233t-183.5 95v109q175 0 280 -114t105 -321 q0 -132 -13 -288q0 -190 144 -219v-78q-71 -13 -106.5 -63.5t-35.5 -123.5q0 -47 5.5 -148.5t5.5 -168.5q0 -208 -104.5 -321t-280.5 -113z" />
<glyph unicode="~" horiz-adv-x="1122" d="M887 768l88 -72q0 -77 -61.5 -142t-147.5 -65q-58 0 -112.5 26t-91 57t-85.5 57t-96 26q-67 0 -104 -47t-37 -119l-90 78q0 77 60.5 139t160.5 62q52 0 101.5 -17t87 -41t71.5 -48t68 -41t63 -17q49 0 87 41.5t38 122.5z" />
<glyph unicode="&#xa1;" horiz-adv-x="483" d="M297 686h-111l-22 -1282h155zM143 899q0 44 26 73t73 29t73.5 -29t26.5 -73q0 -41 -26 -67.5t-74 -26.5t-73.5 26t-25.5 68z" />
<glyph unicode="&#xa2;" horiz-adv-x="1015" d="M612 -188h-116v172q-183 17 -282 147t-99 354t98.5 358.5t282.5 153.5v193h116v-191q156 -16 283 -139l-88 -78q-42 36 -70 56t-75.5 36.5t-102.5 16.5q-157 0 -237 -109t-80 -295q0 -189 79.5 -293t235.5 -104q64 0 120.5 20t88 42t72.5 59l82 -78q-140 -133 -308 -149 v-172z" />
<glyph unicode="&#xa3;" horiz-adv-x="1196" d="M963 305l102 43q23 -23 44 -69t21 -89q0 -30 -6 -58t-23.5 -58t-45.5 -51.5t-75 -35.5t-108 -14q-65 0 -136 20t-124 43.5t-123 43.5t-133 20q-116 0 -139 -120h-119q0 54 24 114t58 117t68 117.5t58 136.5t24 153q0 21 -2 31h-178v117h153q-10 26 -39.5 87.5t-44 113 t-14.5 114.5q0 93 33.5 166t89.5 116.5t125 66t145 22.5q200 0 352 -152l-104 -86q-31 34 -55 54t-75 39.5t-114 19.5q-117 0 -185.5 -60.5t-68.5 -176.5q0 -56 16 -108t44.5 -115t40.5 -101h303v-117h-283q2 -10 2 -28q0 -120 -50 -232.5t-124 -200.5q63 35 137 35 t156 -31.5t156 -62.5t128 -31q63 0 94 28.5t31 76.5q0 41 -36 102z" />
<glyph unicode="&#xa4;" horiz-adv-x="1169" d="M229 203l-73 73l90 91q-70 112 -70 280q0 169 70 281l-90 90l73 74l84 -84q107 98 273 98q157 0 270 -96l82 82l72 -76l-86 -86q71 -114 71 -283q0 -168 -71 -282l86 -86l-72 -76l-82 82q-109 -97 -270 -97q-165 0 -273 99zM307 647q0 -168 80 -255t199 -87 q116 0 196 87.5t80 254.5q0 169 -79 255.5t-197 86.5q-119 0 -199 -87t-80 -255z" />
<glyph unicode="&#xa5;" horiz-adv-x="1236" d="M1077 711h-299l-76 -140h375v-120h-385v-451h-137v451h-403v120h393l-78 140h-315v120h249l-329 603h149l402 -748l401 748h150l-330 -603h233v-120z" />
<glyph unicode="&#xa6;" horiz-adv-x="499" d="M186 307h127v-819h-127v819zM313 719h-127v819h127v-819z" />
<glyph unicode="&#xa7;" horiz-adv-x="980" d="M498 1337q-102 0 -164 -53.5t-62 -148.5q0 -51 20 -91t54.5 -67.5t78.5 -51t93 -44t98 -43t93 -53.5t78.5 -69.5t54.5 -95.5t20 -128q0 -90 -35 -162q35 -68 35 -160q0 -164 -104.5 -256t-284.5 -92q-235 0 -373 176l90 80q63 -67 127.5 -104t163.5 -37q120 0 188 60 t68 167q0 55 -20 99t-54.5 73.5t-78.5 54.5t-93 46.5t-98 44t-93 52t-78.5 65.5t-54.5 89.5t-20 120.5q0 97 37 164q-37 64 -37 157q0 153 96 237.5t257 84.5q104 0 180 -35.5t145 -105.5l-92 -78q-55 51 -109.5 77.5t-125.5 26.5zM272 815q0 -64 30.5 -111t83.5 -79 t109.5 -56t125 -57t112.5 -68q4 24 4 41q0 58 -22.5 104t-57.5 75t-85.5 57t-98 47t-103.5 47.5t-94 56.5q-4 -36 -4 -57z" />
<glyph unicode="&#xa8;" horiz-adv-x="1255" d="M305 1239q0 43 26 71.5t72 28.5t71.5 -28.5t25.5 -71.5q0 -40 -25.5 -66t-71.5 -26t-72 26t-26 66zM662 1239q0 43 26 71.5t72 28.5t72 -28.5t26 -71.5q0 -40 -26 -66t-72 -26t-72 26t-26 66z" />
<glyph unicode="&#xa9;" horiz-adv-x="1722" d="M1608 721q0 -169 -55 -308.5t-153.5 -234t-237 -146.5t-302.5 -52q-218 0 -386.5 89t-263.5 258t-95 394q0 220 94.5 386.5t263.5 255.5t387 89q219 0 388.5 -89t264.5 -255.5t95 -386.5zM233 721q0 -180 75 -324t219 -228.5t333 -84.5t333.5 84.5t220 228.5t75.5 324 q0 177 -75.5 319t-220 225t-333.5 83q-287 0 -457 -173.5t-170 -453.5zM877 1053q-131 0 -198 -90.5t-67 -243.5q0 -158 66.5 -244t195.5 -86q78 0 130.5 26.5t103.5 73.5l68 -65q-67 -62 -138.5 -94.5t-163.5 -32.5q-175 0 -270.5 109.5t-95.5 310.5q0 200 94.5 314 t269.5 114q166 0 283 -117l-74 -65q-50 45 -94.5 67.5t-109.5 22.5z" />
<glyph unicode="&#xaa;" horiz-adv-x="901" d="M422 1374q-68 0 -116 -22t-95 -64l-72 64q111 123 295 123q49 0 92.5 -9t86.5 -31.5t73 -58t49 -92.5t19 -131v-485h-86l-19 112q-91 -125 -280 -125q-117 0 -186.5 58t-69.5 168q0 239 329 239h203v29q0 225 -223 225zM645 973v53h-203q-206 0 -206 -143q0 -68 45 -97.5 t112 -29.5q31 0 63 6t67 21.5t61.5 39t43.5 62.5t17 88z" />
<glyph unicode="&#xab;" horiz-adv-x="948" d="M397 63l-307 449l305 430l99 -74l-263 -354l263 -377zM745 63l-307 449l305 430l99 -74l-262 -354l262 -377z" />
<glyph unicode="&#xac;" horiz-adv-x="1314" d="M1153 299h-129v410h-887v114h1016v-524z" />
<glyph unicode="&#xad;" horiz-adv-x="880" d="M735 512h-590v125h590v-125z" />
<glyph unicode="&#xae;" horiz-adv-x="1722" d="M1608 721q0 -169 -55 -308.5t-153.5 -234t-237 -146.5t-302.5 -52q-218 0 -386.5 89t-263.5 258t-95 394q0 220 94.5 386.5t263.5 255.5t387 89q219 0 388.5 -89t264.5 -255.5t95 -386.5zM233 721q0 -180 75 -324t219 -228.5t333 -84.5t333.5 84.5t220 228.5t75.5 324 q0 177 -75.5 319t-220 225t-333.5 83q-287 0 -457 -173.5t-170 -453.5zM604 285v895h232q338 0 338 -258q0 -204 -220 -246l277 -391h-117l-264 383h-150v-383h-96zM831 1090h-131v-332h131q124 0 180 39t56 125q0 85 -56.5 126.5t-179.5 41.5z" />
<glyph unicode="&#xaf;" horiz-adv-x="1124" d="M229 1137v106h498v-106h-498z" />
<glyph unicode="&#xb0;" horiz-adv-x="745" d="M637 1210q0 -107 -73.5 -173t-190.5 -66q-119 0 -193 66t-74 173q0 93 75.5 159.5t191.5 66.5q114 0 189 -66.5t75 -159.5zM201 1210q0 -65 44.5 -114t127.5 -49q82 0 126 49t44 114q0 60 -43 105t-127 45q-85 0 -128.5 -45t-43.5 -105z" />
<glyph unicode="&#xb1;" horiz-adv-x="1001" d="M561 1020v-338h334v-104h-334v-338h-121v338h-329v104h329v338h121zM791 -76h-590v125h590v-125z" />
<glyph unicode="&#xb2;" horiz-adv-x="784" d="M76 451v59l198 217q144 159 214.5 266.5t70.5 200.5q0 78 -48.5 123t-133.5 45q-77 0 -128 -34.5t-91 -106.5l-84 53q96 192 303 192q138 0 219.5 -70.5t81.5 -191.5q0 -29 -4 -57t-17 -59.5t-22 -53.5t-34.5 -58.5t-36.5 -54t-47.5 -61t-49 -58t-57.5 -66t-58 -66.5 l-102 -117h450v-102h-624z" />
<glyph unicode="&#xb3;" horiz-adv-x="800" d="M397 1466q132 0 204.5 -65.5t72.5 -175.5q0 -96 -46.5 -158t-123.5 -74q203 -35 203 -266q0 -140 -83.5 -215.5t-232.5 -75.5q-119 0 -202 46.5t-126 127.5l93 52q80 -121 231 -121q91 0 146 49.5t55 138.5q0 102 -57.5 157.5t-170.5 55.5h-55v98h55q94 0 145.5 46.5 t51.5 123.5q0 73 -42.5 113.5t-119.5 40.5q-124 0 -200 -117l-91 58q92 161 293 161z" />
<glyph unicode="&#xb4;" horiz-adv-x="579" d="M313 1081h-80l177 338h186z" />
<glyph unicode="&#xb5;" horiz-adv-x="1132" d="M817 979h129v-975h-129v156q-21 -76 -105 -127t-196 -51q-118 0 -201 55v-549h-129v1491h129v-651q3 -98 55 -155.5t156 -57.5q53 0 101.5 17.5t91 54t69 100.5t29.5 149v543z" />
<glyph unicode="&#xb6;" horiz-adv-x="1011" d="M805 -342h-129v1667h-103v-1667h-127v1016q-182 0 -283.5 103.5t-101.5 266.5q0 165 102.5 277.5t282.5 112.5h359v-1776z" />
<glyph unicode="&#xb7;" horiz-adv-x="485" d="M143 666q0 42 27 71t74 29q45 0 71.5 -29t26.5 -71q0 -41 -26 -69t-72 -28q-48 0 -74.5 27.5t-26.5 69.5z" />
<glyph unicode="&#xb8;" horiz-adv-x="624" d="M240 -190l59 190h100l-39 -119q6 2 29 2q62 0 112 -39.5t50 -111.5q0 -63 -35.5 -106t-86.5 -60t-112 -17q-108 0 -184 33l17 90q63 -28 157 -28q123 0 123 82q0 84 -106 84h-84z" />
<glyph unicode="&#xb9;" horiz-adv-x="450" d="M68 1298l-13 82l219 86h29v-1015h-110v882z" />
<glyph unicode="&#xba;" horiz-adv-x="960" d="M852 1071q0 -195 -100 -304.5t-273 -109.5t-271.5 109.5t-98.5 304.5q0 194 99.5 299t270.5 105q172 0 272.5 -105t100.5 -299zM229 1071q0 -142 66 -224.5t184 -82.5q120 0 186 82t66 225q0 142 -65.5 220.5t-186.5 78.5q-118 0 -184 -79t-66 -220z" />
<glyph unicode="&#xbb;" horiz-adv-x="950" d="M510 512l-307 -449l-97 74l263 377l-263 354l99 74zM858 512l-307 -449l-96 74l262 377l-262 354l98 74z" />
<glyph unicode="&#xbc;" horiz-adv-x="2134" d="M78 1278l-12 82l219 86h28v-1016h-110v883zM1348 205v94l450 707h111v-699h157v-102h-157v-205h-111v205h-450zM1473 307h325v518zM1450 1497l-860 -1567h-125l860 1567h125z" />
<glyph unicode="&#xbd;" horiz-adv-x="2093" d="M1376 0v59l199 217q144 159 214.5 266.5t70.5 200.5q0 78 -49 123t-134 45q-77 0 -128 -34.5t-91 -106.5l-84 53q96 193 303 193q138 0 219.5 -70.5t81.5 -191.5q0 -48 -15.5 -98t-36 -89.5t-64 -97.5t-74.5 -94.5t-93 -107.5l-42 -48l-103 -117h451v-102h-625z M1450 1497l-860 -1567h-125l860 1567h125zM78 1278l-12 82l219 86h28v-1016h-110v883z" />
<glyph unicode="&#xbe;" horiz-adv-x="2277" d="M1491 205v94l451 707h110v-699h158v-102h-158v-205h-110v205h-451zM410 1446q132 0 204 -66t72 -176q0 -96 -46.5 -157.5t-123.5 -73.5q203 -35 203 -266q0 -140 -83.5 -215.5t-232.5 -75.5q-119 0 -201 46.5t-126 127.5l92 51q80 -121 231 -121q91 0 146 50t55 139 q0 102 -57 157.5t-170 55.5h-56v98h56q94 0 145 46.5t51 123.5q0 73 -42 113t-119 40q-126 0 -201 -116l-90 57q93 162 293 162zM1712 1497l-860 -1567h-125l860 1567h125zM1616 307h326v518z" />
<glyph unicode="&#xbf;" horiz-adv-x="907" d="M399 901q0 43 26.5 73t72.5 30q47 0 73.5 -29.5t26.5 -73.5q0 -41 -26 -67.5t-74 -26.5q-46 0 -72.5 26.5t-26.5 67.5zM473 -367q-105 0 -178.5 61.5t-73.5 182.5q0 59 20 106.5t52 82t70.5 68t77.5 74t71 89.5t52 125.5t20 171.5v94h-129v-98q0 -75 -21 -137 t-54.5 -105.5t-74 -82.5t-81.5 -77.5t-74.5 -81.5t-54.5 -103.5t-21 -133.5q0 -171 106 -269t283 -98q125 0 229.5 50.5t165.5 132.5l-102 88q-40 -63 -119.5 -101.5t-163.5 -38.5z" />
<glyph unicode="&#xc0;" d="M1079 0l-145 397h-617l-143 -397h-145l524 1434h141l533 -1434h-148zM625 1249l-263 -727h527zM694 1591h-82l-264 338h170z" />
<glyph unicode="&#xc1;" d="M1079 0l-145 397h-617l-143 -397h-145l524 1434h141l533 -1434h-148zM625 1249l-263 -727h527zM670 1595h-80l176 338h186z" />
<glyph unicode="&#xc2;" d="M1079 0l-145 397h-617l-143 -397h-145l524 1434h141l533 -1434h-148zM625 1249l-263 -727h527zM573 1894h107l254 -262l-55 -47l-252 201l-252 -201l-56 47z" />
<glyph unicode="&#xc3;" d="M1079 0l-145 397h-617l-143 -397h-145l524 1434h141l533 -1434h-148zM625 1249l-263 -727h527zM801 1829h98q0 -89 -38 -144t-107 -55q-38 0 -85.5 22t-88.5 44t-64 22q-26 0 -41.5 -25.5t-15.5 -64.5h-101q0 85 39.5 140t110.5 55q42 0 91.5 -23t89.5 -46t59 -23 q53 0 53 98z" />
<glyph unicode="&#xc4;" d="M1079 0l-145 397h-617l-143 -397h-145l524 1434h141l533 -1434h-148zM625 1249l-263 -727h527zM348 1751q0 43 26 71.5t72 28.5t71.5 -28.5t25.5 -71.5q0 -40 -25.5 -66t-71.5 -26t-72 26t-26 66zM705 1751q0 43 26 71.5t72 28.5t72 -28.5t26 -71.5q0 -40 -26 -66 t-72 -26t-72 26t-26 66z" />
<glyph unicode="&#xc5;" d="M1079 0l-145 397h-617l-143 -397h-145l524 1434h141l533 -1434h-148zM625 1249l-263 -727h527zM860 1753q0 -91 -61 -147t-174 -56q-112 0 -173 56t-61 147q0 86 61.5 141.5t172.5 55.5q113 0 174 -55.5t61 -141.5zM502 1753q0 -54 31.5 -85.5t91.5 -31.5t92.5 31.5 t32.5 85.5q0 53 -32 83t-93 30q-60 0 -91.5 -30t-31.5 -83z" />
<glyph unicode="&#xc6;" horiz-adv-x="1835" d="M909 0v360h-561l-213 -360h-155l860 1434h891v-127h-682v-514h421v-127h-421v-539h700v-127h-840zM909 487v813l-485 -813h485z" />
<glyph unicode="&#xc7;" horiz-adv-x="1316" d="M672 -197l55 177q-278 11 -444 197.5t-166 537.5q0 182 47.5 323t134 231t204 136.5t261.5 46.5q170 0 279.5 -59.5t199.5 -169.5l-102 -88q-87 98 -174.5 143t-206.5 45q-228 0 -362 -157t-134 -451q0 -298 134.5 -452t361.5 -154q88 0 163.5 26.5t121.5 59.5t104 88 l98 -84q-36 -39 -71.5 -70t-87 -63.5t-118 -54t-143.5 -27.5l-34 -109q6 2 28 2q62 0 112 -39.5t50 -111.5q0 -63 -35.5 -106t-86 -60t-111.5 -17q-109 0 -185 33l17 90q63 -28 157 -28q62 0 92.5 19t30.5 62q0 84 -106 84h-84z" />
<glyph unicode="&#xc8;" horiz-adv-x="1112" d="M201 0v1434h803v-127h-664v-514h446v-127h-446v-539h684v-127h-823zM686 1591h-82l-264 338h170z" />
<glyph unicode="&#xc9;" horiz-adv-x="1112" d="M201 0v1434h803v-127h-664v-514h446v-127h-446v-539h684v-127h-823zM664 1595h-80l176 338h186z" />
<glyph unicode="&#xca;" horiz-adv-x="1112" d="M201 0v1434h803v-127h-664v-514h446v-127h-446v-539h684v-127h-823zM567 1894h107l254 -262l-56 -47l-251 201l-252 -201l-56 47z" />
<glyph unicode="&#xcb;" horiz-adv-x="1112" d="M201 0v1434h803v-127h-664v-514h446v-127h-446v-539h684v-127h-823zM342 1751q0 43 26 71.5t72 28.5t71.5 -28.5t25.5 -71.5q0 -40 -25.5 -66t-71.5 -26t-72 26t-26 66zM698 1751q0 43 26.5 71.5t72.5 28.5t72 -28.5t26 -71.5q0 -40 -26 -66t-72 -26t-72.5 26t-26.5 66z " />
<glyph unicode="&#xcc;" horiz-adv-x="540" d="M201 0v1434h139v-1434h-139zM344 1591h-82l-264 338h170z" />
<glyph unicode="&#xcd;" horiz-adv-x="540" d="M201 0v1434h139v-1434h-139zM319 1595h-79l176 338h186z" />
<glyph unicode="&#xce;" horiz-adv-x="540" d="M201 0v1434h139v-1434h-139zM223 1894h107l254 -262l-56 -47l-252 201l-251 -201l-56 47z" />
<glyph unicode="&#xcf;" horiz-adv-x="540" d="M201 0v1434h139v-1434h-139zM-2 1751q0 43 26 71.5t72 28.5t71.5 -28.5t25.5 -71.5q0 -40 -25.5 -66t-71.5 -26t-72 26t-26 66zM354 1751q0 43 26.5 71.5t72.5 28.5t72 -28.5t26 -71.5q0 -40 -26 -66t-72 -26t-72.5 26t-26.5 66z" />
<glyph unicode="&#xd0;" horiz-adv-x="1366" d="M205 0v594h-129v125h129v715h305q185 0 328.5 -54.5t232.5 -152t134.5 -227.5t45.5 -287q0 -159 -46.5 -289t-137.5 -225t-233 -147t-324 -52h-305zM666 594h-322v-467h154q129 0 230.5 28.5t170.5 79.5t114 125.5t65 162t20 192.5q0 131 -35.5 237.5t-107 186.5 t-188 124t-269.5 44h-154v-588h322v-125z" />
<glyph unicode="&#xd1;" horiz-adv-x="1488" d="M1145 195h6v1239h137v-1434h-166l-594 967q-54 87 -180 321h-6v-1288h-139v1434h200l611 -994q46 -76 131 -245zM922 1829h98q0 -89 -38.5 -144t-107.5 -55q-38 0 -85.5 22t-88 44t-63.5 22q-26 0 -41.5 -25.5t-15.5 -64.5h-101q0 85 39.5 140t110.5 55q42 0 91.5 -23 t89 -46t58.5 -23q54 0 54 98z" />
<glyph unicode="&#xd2;" horiz-adv-x="1474" d="M1358 715q0 -338 -165.5 -536.5t-457.5 -198.5q-291 0 -454.5 198.5t-163.5 538.5q0 338 164 536.5t454 198.5q292 0 457.5 -199.5t165.5 -537.5zM258 719q0 -286 122.5 -451.5t354.5 -165.5q233 0 357.5 166.5t124.5 446.5q0 179 -53 315.5t-163.5 217.5t-265.5 81 q-154 0 -263.5 -80t-161.5 -215.5t-52 -314.5zM805 1591h-82l-264 338h170z" />
<glyph unicode="&#xd3;" horiz-adv-x="1474" d="M1358 715q0 -338 -165.5 -536.5t-457.5 -198.5q-291 0 -454.5 198.5t-163.5 538.5q0 338 164 536.5t454 198.5q292 0 457.5 -199.5t165.5 -537.5zM258 719q0 -286 122.5 -451.5t354.5 -165.5q233 0 357.5 166.5t124.5 446.5q0 179 -53 315.5t-163.5 217.5t-265.5 81 q-154 0 -263.5 -80t-161.5 -215.5t-52 -314.5zM780 1595h-80l177 338h186z" />
<glyph unicode="&#xd4;" horiz-adv-x="1474" d="M1358 715q0 -338 -165.5 -536.5t-457.5 -198.5q-291 0 -454.5 198.5t-163.5 538.5q0 338 164 536.5t454 198.5q292 0 457.5 -199.5t165.5 -537.5zM258 719q0 -286 122.5 -451.5t354.5 -165.5q233 0 357.5 166.5t124.5 446.5q0 179 -53 315.5t-163.5 217.5t-265.5 81 q-154 0 -263.5 -80t-161.5 -215.5t-52 -314.5zM684 1894h107l253 -262l-55 -47l-252 201l-252 -201l-55 47z" />
<glyph unicode="&#xd5;" horiz-adv-x="1474" d="M1358 715q0 -338 -165.5 -536.5t-457.5 -198.5q-291 0 -454.5 198.5t-163.5 538.5q0 338 164 536.5t454 198.5q292 0 457.5 -199.5t165.5 -537.5zM258 719q0 -286 122.5 -451.5t354.5 -165.5q233 0 357.5 166.5t124.5 446.5q0 179 -53 315.5t-163.5 217.5t-265.5 81 q-154 0 -263.5 -80t-161.5 -215.5t-52 -314.5zM911 1829h99q0 -89 -38.5 -144t-107.5 -55q-38 0 -85.5 22t-88 44t-63.5 22q-26 0 -42 -25.5t-16 -64.5h-100q0 85 39 140t110 55q42 0 91.5 -23t89.5 -46t59 -23q53 0 53 98z" />
<glyph unicode="&#xd6;" horiz-adv-x="1474" d="M1358 715q0 -338 -165.5 -536.5t-457.5 -198.5q-291 0 -454.5 198.5t-163.5 538.5q0 338 164 536.5t454 198.5q292 0 457.5 -199.5t165.5 -537.5zM258 719q0 -286 122.5 -451.5t354.5 -165.5q233 0 357.5 166.5t124.5 446.5q0 179 -53 315.5t-163.5 217.5t-265.5 81 q-154 0 -263.5 -80t-161.5 -215.5t-52 -314.5zM459 1751q0 43 26 71.5t72 28.5q45 0 70.5 -28.5t25.5 -71.5q0 -40 -25 -66t-71 -26t-72 26t-26 66zM815 1751q0 43 26 71.5t72 28.5t72.5 -28.5t26.5 -71.5q0 -40 -26.5 -66t-72.5 -26t-72 26t-26 66z" />
<glyph unicode="&#xd7;" horiz-adv-x="899" d="M213 1057l233 -236l236 236l80 -78l-236 -236l236 -235l-80 -78l-236 234l-233 -234l-78 80l234 233l-234 234z" />
<glyph unicode="&#xd8;" horiz-adv-x="1482" d="M356 -96h-151l127 219q-215 200 -215 594q0 338 164 536.5t454 198.5q181 0 320 -82l84 146h151l-131 -228q199 -199 199 -573q0 -338 -165.5 -536.5t-457.5 -198.5q-164 0 -295 67zM258 719q0 -313 141 -477l590 1015q-112 72 -254 72q-154 0 -263.5 -80t-161.5 -215.5 t-52 -314.5zM1217 715q0 282 -130 450l-583 -1007q95 -56 231 -56q233 0 357.5 166.5t124.5 446.5z" />
<glyph unicode="&#xd9;" horiz-adv-x="1353" d="M1028 518v916h137v-920q0 -265 -126.5 -398.5t-362.5 -133.5q-235 0 -362.5 134t-127.5 398v920h140v-916q0 -195 85 -302t265 -107t266 107t86 302zM739 1591h-82l-264 338h170z" />
<glyph unicode="&#xda;" horiz-adv-x="1353" d="M1028 518v916h137v-920q0 -265 -126.5 -398.5t-362.5 -133.5q-235 0 -362.5 134t-127.5 398v920h140v-916q0 -195 85 -302t265 -107t266 107t86 302zM721 1595h-80l176 338h187z" />
<glyph unicode="&#xdb;" horiz-adv-x="1353" d="M1028 518v916h137v-920q0 -265 -126.5 -398.5t-362.5 -133.5q-235 0 -362.5 134t-127.5 398v920h140v-916q0 -195 85 -302t265 -107t266 107t86 302zM625 1894h106l254 -262l-55 -47l-252 201l-252 -201l-55 47z" />
<glyph unicode="&#xdc;" horiz-adv-x="1353" d="M1028 518v916h137v-920q0 -265 -126.5 -398.5t-362.5 -133.5q-235 0 -362.5 134t-127.5 398v920h140v-916q0 -195 85 -302t265 -107t266 107t86 302zM399 1751q0 43 26.5 71.5t72.5 28.5q45 0 70.5 -28.5t25.5 -71.5q0 -40 -25 -66t-71 -26t-72.5 26t-26.5 66zM756 1751 q0 43 26 71.5t72 28.5t72 -28.5t26 -71.5q0 -40 -26 -66t-72 -26t-72 26t-26 66z" />
<glyph unicode="&#xdd;" horiz-adv-x="1179" d="M659 553v-553h-137v553l-483 881h149l402 -748l401 748h150zM639 1593h-80l176 338h187z" />
<glyph unicode="&#xde;" horiz-adv-x="1144" d="M1051 483q0 -102 -27 -193.5t-78.5 -165t-136 -116.5t-191.5 -43q-186 0 -286 84v-397h-131v1681h131v-418q93 86 284 86q87 0 159 -28.5t122.5 -77.5t85.5 -115t51.5 -141t16.5 -156zM903 483q0 83 -15 151.5t-49 128t-97 93t-150 33.5q-172 0 -260 -113v-590 q38 -46 107.5 -77t150.5 -31q71 0 126 22.5t90 60t57 91t31 110t9 121.5z" />
<glyph unicode="&#xdf;" horiz-adv-x="1163" d="M303 1122v-1122h-139v1114q0 204 103 314t306 110q200 0 304 -102t104 -273q0 -138 -61.5 -228.5t-159.5 -109.5q59 -10 109.5 -36t94.5 -72t69.5 -121t25.5 -172q0 -208 -118 -316t-339 -108h-182v117h182q156 0 232.5 74.5t76.5 242.5q0 175 -82.5 248.5t-246.5 73.5 h-160v114h160q121 0 188.5 77t67.5 208q0 127 -67 193.5t-193 66.5q-144 0 -209.5 -78.5t-65.5 -214.5z" />
<glyph unicode="&#xe0;" horiz-adv-x="1038" d="M475 885q-84 0 -146.5 -28t-123.5 -81l-80 74q133 151 362 151q398 0 398 -401v-606h-103l-20 145q-60 -87 -152.5 -124.5t-195.5 -37.5q-148 0 -234 72t-86 207q0 137 97 218t309 81h258v41q0 289 -283 289zM430 90q41 0 82.5 8t86.5 28.5t79.5 51.5t57 82t22.5 115v74 h-258q-136 0 -204.5 -49t-68.5 -140q0 -47 18 -81.5t48 -53t64 -27t73 -8.5zM555 1137h-82l-264 338h170z" />
<glyph unicode="&#xe1;" horiz-adv-x="1038" d="M475 885q-84 0 -146.5 -28t-123.5 -81l-80 74q133 151 362 151q398 0 398 -401v-606h-103l-20 145q-60 -87 -152.5 -124.5t-195.5 -37.5q-148 0 -234 72t-86 207q0 137 97 218t309 81h258v41q0 289 -283 289zM430 90q41 0 82.5 8t86.5 28.5t79.5 51.5t57 82t22.5 115v74 h-258q-136 0 -204.5 -49t-68.5 -140q0 -47 18 -81.5t48 -53t64 -27t73 -8.5zM532 1141h-79l176 338h186z" />
<glyph unicode="&#xe2;" horiz-adv-x="1038" d="M475 885q-84 0 -146.5 -28t-123.5 -81l-80 74q133 151 362 151q398 0 398 -401v-606h-103l-20 145q-60 -87 -152.5 -124.5t-195.5 -37.5q-148 0 -234 72t-86 207q0 137 97 218t309 81h258v41q0 289 -283 289zM430 90q41 0 82.5 8t86.5 28.5t79.5 51.5t57 82t22.5 115v74 h-258q-136 0 -204.5 -49t-68.5 -140q0 -47 18 -81.5t48 -53t64 -27t73 -8.5zM436 1440h107l254 -262l-56 -48l-252 201l-251 -201l-56 48z" />
<glyph unicode="&#xe3;" horiz-adv-x="1038" d="M475 885q-84 0 -146.5 -28t-123.5 -81l-80 74q133 151 362 151q398 0 398 -401v-606h-103l-20 145q-60 -87 -152.5 -124.5t-195.5 -37.5q-148 0 -234 72t-86 207q0 137 97 218t309 81h258v41q0 289 -283 289zM430 90q41 0 82.5 8t86.5 28.5t79.5 51.5t57 82t22.5 115v74 h-258q-136 0 -204.5 -49t-68.5 -140q0 -47 18 -81.5t48 -53t64 -27t73 -8.5zM662 1374h98q0 -89 -38.5 -143.5t-107.5 -54.5q-38 0 -85.5 22t-88 44t-63.5 22q-26 0 -42 -25.5t-16 -64.5h-100q0 85 39.5 139.5t110.5 54.5q42 0 91.5 -23t89 -46t58.5 -23q54 0 54 98z" />
<glyph unicode="&#xe4;" horiz-adv-x="1038" d="M475 885q-84 0 -146.5 -28t-123.5 -81l-80 74q133 151 362 151q398 0 398 -401v-606h-103l-20 145q-60 -87 -152.5 -124.5t-195.5 -37.5q-148 0 -234 72t-86 207q0 137 97 218t309 81h258v41q0 289 -283 289zM430 90q41 0 82.5 8t86.5 28.5t79.5 51.5t57 82t22.5 115v74 h-258q-136 0 -204.5 -49t-68.5 -140q0 -47 18 -81.5t48 -53t64 -27t73 -8.5zM211 1296q0 43 26 72t72 29t71.5 -29t25.5 -72q0 -40 -25.5 -66t-71.5 -26t-72 26t-26 66zM567 1296q0 43 26.5 72t72.5 29t72 -29t26 -72q0 -40 -26 -66t-72 -26t-72.5 26t-26.5 66z" />
<glyph unicode="&#xe5;" horiz-adv-x="1038" d="M475 885q-84 0 -146.5 -28t-123.5 -81l-80 74q133 151 362 151q398 0 398 -401v-606h-103l-20 145q-60 -87 -152.5 -124.5t-195.5 -37.5q-148 0 -234 72t-86 207q0 137 97 218t309 81h258v41q0 289 -283 289zM430 90q41 0 82.5 8t86.5 28.5t79.5 51.5t57 82t22.5 115v74 h-258q-136 0 -204.5 -49t-68.5 -140q0 -47 18 -81.5t48 -53t64 -27t73 -8.5zM723 1298q0 -91 -61 -146.5t-175 -55.5q-112 0 -172.5 55.5t-60.5 146.5q0 86 61 141.5t172 55.5q113 0 174.5 -55.5t61.5 -141.5zM365 1298q0 -54 31 -85t91 -31t92.5 31t32.5 85q0 53 -32 83 t-93 30q-60 0 -91 -29.5t-31 -83.5z" />
<glyph unicode="&#xe6;" horiz-adv-x="1685" d="M1159 1001q416 0 416 -497v-62h-698q10 -173 92.5 -260.5t220.5 -87.5q99 0 178.5 38t128.5 93l82 -78q-45 -47 -89 -79.5t-124.5 -60t-177.5 -27.5q-266 0 -377 196q-109 -199 -414 -199q-144 0 -229.5 72t-85.5 203q0 299 403 299h258v61q0 70 -16 121.5t-41 81 t-62.5 46.5t-72.5 22.5t-80 5.5q-138 0 -297 -64v125q122 51 301 51q266 0 352 -170q112 170 332 170zM743 358v82h-258q-270 0 -270 -182q0 -88 61 -128t146 -40q67 0 121.5 13t101 42t72.5 83.5t26 129.5zM1159 889q-125 0 -198 -88.5t-84 -247.5h563q-16 336 -281 336z " />
<glyph unicode="&#xe7;" horiz-adv-x="980" d="M444 -190l54 172q-187 15 -288 145.5t-101 357.5q0 242 114.5 379t325.5 137q199 0 340 -141l-88 -78q-42 36 -70 56t-75.5 36.5t-102.5 16.5q-157 0 -237 -109t-80 -295q0 -189 79.5 -293t235.5 -104q64 0 120 20t87 42t73 59l82 -78q-142 -135 -315 -151l-33 -101 q6 2 29 2q62 0 112 -39.5t50 -111.5q0 -63 -35.5 -106t-86.5 -60t-112 -17q-108 0 -184 33l16 90q63 -28 158 -28q123 0 123 82q0 84 -107 84h-84z" />
<glyph unicode="&#xe8;" horiz-adv-x="1048" d="M524 1001q416 0 416 -497v-62h-698q10 -173 92.5 -260.5t220.5 -87.5q99 0 178.5 38t128.5 93l82 -78q-45 -47 -89 -79.5t-124.5 -60t-177.5 -27.5q-95 0 -173 27.5t-140 85.5t-96.5 159t-34.5 237q0 129 31.5 228.5t88 160.5t131 92t164.5 31zM524 889 q-125 0 -198 -88.5t-84 -247.5h563q-16 336 -281 336zM594 1137h-82l-264 338h170z" />
<glyph unicode="&#xe9;" horiz-adv-x="1048" d="M524 1001q416 0 416 -497v-62h-698q10 -173 92.5 -260.5t220.5 -87.5q99 0 178.5 38t128.5 93l82 -78q-45 -47 -89 -79.5t-124.5 -60t-177.5 -27.5q-95 0 -173 27.5t-140 85.5t-96.5 159t-34.5 237q0 129 31.5 228.5t88 160.5t131 92t164.5 31zM524 889 q-125 0 -198 -88.5t-84 -247.5h563q-16 336 -281 336zM571 1141h-79l176 338h186z" />
<glyph unicode="&#xea;" horiz-adv-x="1048" d="M524 1001q416 0 416 -497v-62h-698q10 -173 92.5 -260.5t220.5 -87.5q99 0 178.5 38t128.5 93l82 -78q-45 -47 -89 -79.5t-124.5 -60t-177.5 -27.5q-95 0 -173 27.5t-140 85.5t-96.5 159t-34.5 237q0 129 31.5 228.5t88 160.5t131 92t164.5 31zM524 889 q-125 0 -198 -88.5t-84 -247.5h563q-16 336 -281 336zM475 1440h107l254 -262l-56 -48l-252 201l-252 -201l-55 48z" />
<glyph unicode="&#xeb;" horiz-adv-x="1048" d="M524 1001q416 0 416 -497v-62h-698q10 -173 92.5 -260.5t220.5 -87.5q99 0 178.5 38t128.5 93l82 -78q-45 -47 -89 -79.5t-124.5 -60t-177.5 -27.5q-95 0 -173 27.5t-140 85.5t-96.5 159t-34.5 237q0 129 31.5 228.5t88 160.5t131 92t164.5 31zM524 889 q-125 0 -198 -88.5t-84 -247.5h563q-16 336 -281 336zM250 1296q0 43 26 72t72 29q45 0 70.5 -29t25.5 -72q0 -40 -25 -66t-71 -26t-72 26t-26 66zM606 1296q0 43 26.5 72t72.5 29t72 -29t26 -72q0 -40 -26 -66t-72 -26t-72.5 26t-26.5 66z" />
<glyph unicode="&#xec;" horiz-adv-x="456" d="M164 0v979h129v-979h-129zM291 1137h-82l-264 338h170z" />
<glyph unicode="&#xed;" horiz-adv-x="456" d="M164 0v979h129v-979h-129zM268 1141h-80l177 338h186z" />
<glyph unicode="&#xee;" horiz-adv-x="456" d="M164 0v979h129v-979h-129zM172 1440h107l253 -262l-55 -48l-252 201l-252 -201l-55 48z" />
<glyph unicode="&#xef;" horiz-adv-x="456" d="M164 0v979h129v-979h-129zM-53 1296q0 43 26 72t72 29q45 0 70.5 -29t25.5 -72q0 -40 -25 -66t-71 -26t-72 26t-26 66zM303 1296q0 43 26 72t72 29t72.5 -29t26.5 -72q0 -40 -26.5 -66t-72.5 -26t-72 26t-26 66z" />
<glyph unicode="&#xf0;" horiz-adv-x="1214" d="M836 1479l-111 -123q171 -126 271 -315.5t100 -446.5q0 -160 -40 -280.5t-111 -192t-161 -106.5t-198 -35q-100 0 -186 30t-152 88t-104 150.5t-38 208.5q0 229 135.5 356t350.5 127q190 0 338 -111q-77 262 -293 428l-137 -151l-94 82l124 139q-119 66 -258 107l41 116 q182 -52 308 -125l118 134zM963 584q0 10 -5 82q-77 77 -160 118t-196 41q-174 0 -267 -98t-93 -266q0 -91 28 -162.5t76.5 -115.5t109.5 -66.5t130 -22.5q165 0 271 127t106 363z" />
<glyph unicode="&#xf1;" horiz-adv-x="1083" d="M293 979v-170q22 87 109 139.5t204 52.5q146 0 234 -92t88 -268v-641h-129v618q0 128 -59.5 197.5t-161.5 69.5q-53 0 -101 -16.5t-89.5 -50.5t-67 -96t-27.5 -144v-578h-129v979h129zM733 1374h98q0 -89 -38 -143.5t-107 -54.5q-38 0 -85.5 22t-88 44t-63.5 22 q-26 0 -42 -25.5t-16 -64.5h-100q0 85 39 139.5t110 54.5q42 0 91.5 -23t89.5 -46t59 -23q53 0 53 98z" />
<glyph unicode="&#xf2;" horiz-adv-x="1130" d="M1016 498q0 -245 -121 -381.5t-334 -136.5q-212 0 -333.5 136.5t-121.5 381.5q0 243 122 373t333 130t333 -130t122 -373zM236 498q0 -186 85.5 -294t239.5 -108q155 0 240.5 107.5t85.5 294.5q0 185 -85 286t-241 101q-155 0 -240 -101t-85 -286zM633 1137h-82l-264 338 h170z" />
<glyph unicode="&#xf3;" horiz-adv-x="1130" d="M1016 498q0 -245 -121 -381.5t-334 -136.5q-212 0 -333.5 136.5t-121.5 381.5q0 243 122 373t333 130t333 -130t122 -373zM236 498q0 -186 85.5 -294t239.5 -108q155 0 240.5 107.5t85.5 294.5q0 185 -85 286t-241 101q-155 0 -240 -101t-85 -286zM608 1141h-80l177 338 h186z" />
<glyph unicode="&#xf4;" horiz-adv-x="1130" d="M1016 498q0 -245 -121 -381.5t-334 -136.5q-212 0 -333.5 136.5t-121.5 381.5q0 243 122 373t333 130t333 -130t122 -373zM236 498q0 -186 85.5 -294t239.5 -108q155 0 240.5 107.5t85.5 294.5q0 185 -85 286t-241 101q-155 0 -240 -101t-85 -286zM514 1440h107l253 -262 l-55 -48l-252 201l-252 -201l-55 48z" />
<glyph unicode="&#xf5;" horiz-adv-x="1130" d="M1016 498q0 -245 -121 -381.5t-334 -136.5q-212 0 -333.5 136.5t-121.5 381.5q0 243 122 373t333 130t333 -130t122 -373zM236 498q0 -186 85.5 -294t239.5 -108q155 0 240.5 107.5t85.5 294.5q0 185 -85 286t-241 101q-155 0 -240 -101t-85 -286zM735 1374h99 q0 -89 -38.5 -143.5t-107.5 -54.5q-38 0 -85.5 22t-88 44t-63.5 22q-26 0 -42 -25.5t-16 -64.5h-100q0 85 39 139.5t110 54.5q42 0 91.5 -23t89.5 -46t59 -23q53 0 53 98z" />
<glyph unicode="&#xf6;" horiz-adv-x="1130" d="M1016 498q0 -245 -121 -381.5t-334 -136.5q-212 0 -333.5 136.5t-121.5 381.5q0 243 122 373t333 130t333 -130t122 -373zM236 498q0 -186 85.5 -294t239.5 -108q155 0 240.5 107.5t85.5 294.5q0 185 -85 286t-241 101q-155 0 -240 -101t-85 -286zM287 1296q0 43 26 72 t72 29q45 0 70.5 -29t25.5 -72q0 -40 -25 -66t-71 -26t-72 26t-26 66zM643 1296q0 43 26 72t72 29t72.5 -29t26.5 -72q0 -40 -26.5 -66t-72.5 -26t-72 26t-26 66z" />
<glyph unicode="&#xf7;" horiz-adv-x="1042" d="M899 330h-756v116h756v-116zM414 70q0 42 25.5 70t70.5 28q44 0 69 -28t25 -70q0 -40 -25 -65t-69 -25q-46 0 -71 25t-25 65zM414 705q0 42 25.5 70t70.5 28q44 0 69 -28t25 -70q0 -40 -25 -65.5t-69 -25.5q-46 0 -71 25.5t-25 65.5z" />
<glyph unicode="&#xf8;" horiz-adv-x="1130" d="M301 -84h-133l94 164q-156 137 -156 418q0 243 122 373t333 130q121 0 211 -43l57 101h134l-95 -164q148 -132 148 -397q0 -245 -121 -381.5t-334 -136.5q-114 0 -201 38zM236 498q0 -195 94 -303l381 659q-67 31 -150 31q-155 0 -240 -101t-85 -286zM887 498 q0 183 -84 284l-381 -657q66 -29 139 -29q155 0 240.5 107.5t85.5 294.5z" />
<glyph unicode="&#xf9;" horiz-adv-x="1081" d="M788 979h127v-979h-102l-6 178q-22 -85 -115 -140.5t-213 -55.5q-64 0 -120.5 19t-103 58.5t-74 108t-27.5 158.5v653h127v-629q0 -115 57.5 -183.5t173.5 -68.5q52 0 98.5 15.5t88 49t65.5 94.5t24 144v578zM582 1137h-82l-264 338h170z" />
<glyph unicode="&#xfa;" horiz-adv-x="1081" d="M788 979h127v-979h-102l-6 178q-22 -85 -115 -140.5t-213 -55.5q-64 0 -120.5 19t-103 58.5t-74 108t-27.5 158.5v653h127v-629q0 -115 57.5 -183.5t173.5 -68.5q52 0 98.5 15.5t88 49t65.5 94.5t24 144v578zM559 1141h-80l176 338h187z" />
<glyph unicode="&#xfb;" horiz-adv-x="1081" d="M788 979h127v-979h-102l-6 178q-22 -85 -115 -140.5t-213 -55.5q-64 0 -120.5 19t-103 58.5t-74 108t-27.5 158.5v653h127v-629q0 -115 57.5 -183.5t173.5 -68.5q52 0 98.5 15.5t88 49t65.5 94.5t24 144v578zM483 1440h107l254 -262l-56 -48l-251 201l-252 -201l-56 48z " />
<glyph unicode="&#xfc;" horiz-adv-x="1081" d="M788 979h127v-979h-102l-6 178q-22 -85 -115 -140.5t-213 -55.5q-64 0 -120.5 19t-103 58.5t-74 108t-27.5 158.5v653h127v-629q0 -115 57.5 -183.5t173.5 -68.5q52 0 98.5 15.5t88 49t65.5 94.5t24 144v578zM256 1296q0 43 26 72t72 29t71.5 -29t25.5 -72 q0 -40 -25.5 -66t-71.5 -26t-72 26t-26 66zM612 1296q0 43 26.5 72t72.5 29t72 -29t26 -72q0 -40 -26 -66t-72 -26t-72.5 26t-26.5 66z" />
<glyph unicode="&#xfd;" horiz-adv-x="991" d="M205 979l293 -821l299 821h139l-373 -979l-33 -92q-37 -105 -75 -174.5t-82 -109t-89.5 -55t-105.5 -15.5q-51 0 -78 8l15 114q19 -8 55 -8q35 0 62.5 9t60.5 34t64.5 80t60.5 139l22 70h-10l-367 979h142zM541 1141h-80l176 338h186z" />
<glyph unicode="&#xfe;" horiz-adv-x="1163" d="M1055 494q0 -249 -114.5 -381.5t-309.5 -132.5q-233 0 -336 186v-600h-131v1767h131v-518q102 186 340 186q194 0 307 -129t113 -378zM618 893q-134 0 -222 -87t-101 -255v-117q13 -170 103.5 -258t224.5 -88q141 0 222 104t81 297q0 192 -80 298t-228 106z" />
<glyph unicode="&#xff;" horiz-adv-x="991" d="M205 979l293 -821l299 821h139l-373 -979l-33 -92q-37 -105 -75 -174.5t-82 -109t-89.5 -55t-105.5 -15.5q-51 0 -78 8l15 114q19 -8 55 -8q35 0 62.5 9t60.5 34t64.5 80t60.5 139l22 70h-10l-367 979h142zM219 1296q0 43 26 72t72 29t71.5 -29t25.5 -72q0 -40 -25.5 -66 t-71.5 -26t-72 26t-26 66zM575 1296q0 43 26.5 72t72.5 29t72 -29t26 -72q0 -40 -26 -66t-72 -26t-72.5 26t-26.5 66z" />
<glyph unicode="&#x152;" horiz-adv-x="1853" d="M934 0q-383 0 -602 191.5t-219 525.5q0 331 218 523.5t601 193.5h807v-127h-664v-514h508v-127h-508v-539h684v-127h-825zM260 719q0 -276 171 -433t503 -157l-2 1176q-166 -1 -295.5 -45t-211 -122.5t-123.5 -184.5t-42 -234z" />
<glyph unicode="&#x153;" horiz-adv-x="1837" d="M1311 1001q415 0 415 -497v-62h-698q10 -173 92.5 -260.5t220.5 -87.5q99 0 179 38.5t129 92.5l82 -78q-70 -74 -161.5 -120.5t-230.5 -46.5q-282 0 -387 219q-56 -106 -156 -162.5t-235 -56.5q-212 0 -333.5 136.5t-121.5 381.5q0 243 122 373t333 130q134 0 235 -55 t156 -160q53 107 146 161t213 54zM236 498q0 -186 85.5 -294t239.5 -108q155 0 240.5 107.5t85.5 294.5q0 185 -85 286t-241 101q-155 0 -240 -101t-85 -286zM1311 889q-125 0 -198.5 -88.5t-84.5 -247.5h563q-16 336 -280 336z" />
<glyph unicode="&#x178;" horiz-adv-x="1179" d="M659 553v-553h-137v553l-483 881h149l402 -748l401 748h150zM317 1749q0 43 26.5 71.5t72.5 28.5q45 0 70.5 -28.5t25.5 -71.5q0 -40 -25 -66t-71 -26t-72.5 26t-26.5 66zM674 1749q0 43 26 71.5t72 28.5t72 -28.5t26 -71.5q0 -40 -26 -66t-72 -26t-72 26t-26 66z" />
<glyph unicode="&#x2c6;" horiz-adv-x="1705" d="M514 1382h107l253 -262l-55 -47l-252 201l-252 -201l-55 47z" />
<glyph unicode="&#x2dc;" horiz-adv-x="995" d="M653 1317h99q0 -89 -38.5 -144t-107.5 -55q-38 0 -85.5 22t-88 44t-63.5 22q-26 0 -42 -25.5t-16 -64.5h-100q0 85 39 140t110 55q42 0 91.5 -23t89.5 -46t59 -23q53 0 53 98z" />
<glyph unicode="&#x2000;" horiz-adv-x="975" />
<glyph unicode="&#x2001;" horiz-adv-x="1950" />
<glyph unicode="&#x2002;" horiz-adv-x="975" />
<glyph unicode="&#x2003;" horiz-adv-x="1950" />
<glyph unicode="&#x2004;" horiz-adv-x="650" />
<glyph unicode="&#x2005;" horiz-adv-x="487" />
<glyph unicode="&#x2006;" horiz-adv-x="325" />
<glyph unicode="&#x2007;" horiz-adv-x="325" />
<glyph unicode="&#x2008;" horiz-adv-x="243" />
<glyph unicode="&#x2009;" horiz-adv-x="390" />
<glyph unicode="&#x200a;" horiz-adv-x="108" />
<glyph unicode="&#x2010;" horiz-adv-x="880" d="M735 512h-590v125h590v-125z" />
<glyph unicode="&#x2011;" horiz-adv-x="880" d="M735 512h-590v125h590v-125z" />
<glyph unicode="&#x2012;" horiz-adv-x="880" d="M735 512h-590v125h590v-125z" />
<glyph unicode="&#x2013;" horiz-adv-x="880" d="M735 512h-590v125h590v-125z" />
<glyph unicode="&#x2014;" horiz-adv-x="1230" d="M1106 524h-979v111h979v-111z" />
<glyph unicode="&#x2018;" horiz-adv-x="448" d="M311 1192q0 -42 -28.5 -70t-67.5 -28q-104 0 -104 129q0 89 55.5 170.5t134.5 140.5l49 -53q-63 -50 -103 -105t-40 -90q8 4 24 4q36 0 58 -24t22 -74z" />
<glyph unicode="&#x2019;" horiz-adv-x="446" d="M147 1440q0 42 29 70t68 28q104 0 104 -129q0 -89 -55.5 -170.5t-134.5 -140.5l-49 53q63 50 103 105t40 90q-10 -5 -25 -5q-36 0 -58 24.5t-22 74.5z" />
<glyph unicode="&#x201a;" horiz-adv-x="471" d="M135 78q0 42 28.5 70t67.5 28q48 0 76.5 -31.5t28.5 -97.5q0 -89 -55.5 -170.5t-135.5 -140.5l-49 53q63 50 103.5 105.5t40.5 89.5q-8 -4 -25 -4q-36 0 -58 24t-22 74z" />
<glyph unicode="&#x201c;" horiz-adv-x="735" d="M311 1192q0 -42 -28.5 -70t-67.5 -28q-104 0 -104 129q0 89 55.5 170.5t134.5 140.5l49 -53q-63 -50 -103 -105t-40 -90q8 4 24 4q36 0 58 -24t22 -74zM598 1192q0 -42 -28.5 -70t-67.5 -28q-48 0 -76.5 31.5t-28.5 97.5q0 89 55.5 170.5t135.5 140.5l49 -53 q-63 -50 -103 -105t-40 -90q8 4 24 4q36 0 58 -24t22 -74z" />
<glyph unicode="&#x201d;" horiz-adv-x="753" d="M147 1440q0 42 29 70t68 28q104 0 104 -129q0 -89 -55.5 -170.5t-134.5 -140.5l-49 53q63 50 103 105t40 90q-10 -5 -25 -5q-36 0 -58 24.5t-22 74.5zM455 1440q0 42 28.5 70t67.5 28q104 0 104 -129q0 -89 -55.5 -170.5t-134.5 -140.5l-49 53q63 50 103 105t40 90 q-10 -5 -24 -5q-36 0 -58 24.5t-22 74.5z" />
<glyph unicode="&#x201e;" horiz-adv-x="776" d="M135 78q0 42 28.5 70t67.5 28q48 0 76.5 -31.5t28.5 -97.5q0 -89 -55.5 -170.5t-135.5 -140.5l-49 53q63 50 103.5 105.5t40.5 89.5q-8 -4 -25 -4q-36 0 -58 24t-22 74zM440 78q0 42 29 70t68 28q104 0 104 -129q0 -89 -55.5 -170.5t-134.5 -140.5l-50 53 q63 50 103.5 105.5t40.5 89.5q-8 -4 -25 -4q-36 0 -58 24t-22 74z" />
<glyph unicode="&#x2022;" horiz-adv-x="643" d="M190 719q0 56 35 94.5t97 38.5q60 0 95.5 -39t35.5 -94t-34.5 -90t-96.5 -35q-63 0 -97.5 34.5t-34.5 90.5z" />
<glyph unicode="&#x2026;" horiz-adv-x="1478" d="M133 74q0 44 26.5 73t73.5 29q46 0 72.5 -29.5t26.5 -72.5q0 -41 -26.5 -67.5t-72.5 -26.5q-48 0 -74 26.5t-26 67.5zM639 74q0 44 26.5 73t73.5 29q48 0 74.5 -29.5t26.5 -72.5q0 -41 -26.5 -67.5t-74.5 -26.5t-74 26.5t-26 67.5zM1147 74q0 43 26 72.5t72 29.5 q48 0 74.5 -29.5t26.5 -72.5q0 -41 -26.5 -67.5t-74.5 -26.5q-46 0 -72 26.5t-26 67.5z" />
<glyph unicode="&#x202f;" horiz-adv-x="390" />
<glyph unicode="&#x2039;" horiz-adv-x="600" d="M397 63l-307 449l305 430l99 -74l-263 -354l263 -377z" />
<glyph unicode="&#x203a;" horiz-adv-x="600" d="M510 512l-307 -449l-97 74l263 377l-263 354l99 74z" />
<glyph unicode="&#x205f;" horiz-adv-x="487" />
<glyph unicode="&#x20ac;" horiz-adv-x="1484" d="M895 -20q-254 0 -421.5 142.5t-207.5 420.5h-196l47 114h137v91h-182l47 114h143q36 288 206.5 439t432.5 151q170 0 279.5 -59.5t199.5 -169.5l-102 -88q-87 98 -174.5 143t-206.5 45q-197 0 -325 -118.5t-160 -342.5h567l-45 -114h-533v-91h447l-45 -114h-389 q37 -215 164.5 -324.5t318.5 -109.5q88 0 163.5 26.5t121.5 59.5t104 88l98 -84q-31 -34 -60.5 -61t-75.5 -58t-94.5 -51.5t-116 -34.5t-142.5 -14z" />
<glyph unicode="&#x2122;" horiz-adv-x="1538" d="M1278 745v539l-201 -539h-59l-199 539v-539h-90v689h125l193 -525l198 525h125v-689h-92zM604 1434v-72h-217v-617h-92v617h-221v72h530z" />
<glyph unicode="&#x25fc;" horiz-adv-x="983" d="M0 983h983v-983h-983v983z" />
</font>
</defs>
</svg>
